<svg width="191" height="41" viewBox="0 0 191 41" fill="none" xmlns="http://www.w3.org/2000/svg">
<g clip-path="url(#clip0_18_25786)">
<path d="M57.1748 38.9481H61.6415V12.3119H66.0487V7.87256H57.1748V38.9481Z" fill="#EEF0ED"/>
<path d="M83.9162 7.87256H70.5156V12.3119H83.9162V7.87256Z" fill="#EEF0ED"/>
<path d="M83.9162 34.5088H70.5156V38.9482H83.9162V34.5088Z" fill="#EEF0ED"/>
<path d="M18.2842 14.9163H5.18164V22.6112H18.2842V14.9163Z" fill="#EEF0ED"/>
<path d="M77.2457 16.7512C75.3995 16.7512 73.8508 17.4023 72.5406 18.7046C71.2303 20.0068 70.5752 21.5458 70.5752 23.3807C70.5752 25.2156 71.2303 26.7546 72.5406 28.0568C73.8508 29.359 75.3995 30.0101 77.2457 30.0101C79.0919 30.0101 80.6405 29.359 81.9508 28.0568C83.261 26.7546 83.9162 25.2156 83.9162 23.3807C83.9162 21.5458 83.261 20.0068 81.9508 18.7046C80.6405 17.4023 79.0919 16.7512 77.2457 16.7512ZM78.7943 24.9789C78.3772 25.3932 77.8412 25.63 77.2457 25.63C76.6501 25.63 76.1142 25.3932 75.6971 24.9789C75.2803 24.5645 75.0419 24.0318 75.0419 23.4399C75.0419 22.848 75.2803 22.3152 75.6971 21.9009C76.1142 21.4866 76.6501 21.2498 77.2457 21.2498C77.8412 21.2498 78.3772 21.4866 78.7943 21.9009C79.2111 22.3152 79.4494 22.848 79.4494 23.4399C79.4494 24.0318 79.2707 24.5645 78.7943 24.9789Z" fill="#EEF0ED"/>
<path d="M95.0533 7.87256C93.2067 7.87256 91.6585 8.52366 90.3482 9.82587C89.0379 11.1281 88.3828 12.6671 88.3828 14.502V38.889H92.8495V20.8355C93.5643 21.0723 94.279 21.1907 95.0533 21.1907C96.8995 21.1907 98.4477 20.5395 99.758 19.2373C101.068 17.9351 101.724 16.3961 101.724 14.5612C101.724 12.7263 101.068 11.1873 99.758 9.88505C98.5073 8.52366 96.8995 7.87256 95.0533 7.87256ZM96.6611 16.1002C96.2444 16.5145 95.7084 16.7513 95.1129 16.7513C94.5173 16.7513 93.981 16.5145 93.5643 16.1002C93.1475 15.6858 92.9091 15.1531 92.9091 14.5612C92.9091 13.9693 93.1475 13.4366 93.5643 13.0222C93.981 12.6079 94.5173 12.3711 95.1129 12.3711C95.7084 12.3711 96.2444 12.6079 96.6611 13.0222C97.0783 13.4366 97.3163 13.9693 97.3163 14.5612C97.3163 15.1531 97.0783 15.6858 96.6611 16.1002Z" fill="#EEF0ED"/>
<path d="M127.929 34.5088H105.595V38.9482H127.929V34.5088Z" fill="#EEF0ED"/>
<path d="M127.929 7.87256H123.462V30.0694H127.929V7.87256Z" fill="#EEF0ED"/>
<path d="M112.324 30.0694C114.171 30.0694 115.719 29.4183 117.029 28.116C118.34 26.8138 118.995 25.2749 118.995 23.4399C118.995 21.605 118.34 20.066 117.029 18.7638C115.719 17.4616 114.171 16.8105 112.324 16.8105C111.55 16.8105 110.776 16.9289 110.121 17.1656V7.87256H105.654V23.3807C105.654 25.2157 106.309 26.7547 107.619 28.0569C108.87 29.4182 110.478 30.0694 112.324 30.0694ZM110.717 21.8418C111.133 21.4274 111.669 21.1906 112.265 21.1906C112.86 21.1906 113.397 21.4274 113.813 21.8418C114.23 22.2561 114.469 22.7888 114.469 23.3807C114.469 23.9727 114.23 24.5054 113.813 24.9197C113.397 25.334 112.86 25.5708 112.265 25.5708C111.669 25.5708 111.133 25.334 110.717 24.9197C110.299 24.5054 110.061 23.9727 110.061 23.3807C110.061 22.7888 110.299 22.3153 110.717 21.8418Z" fill="#EEF0ED"/>
<path d="M141.329 14.798L136.862 10.3586V7.87256H132.396V38.9482H136.862V16.7513L141.329 21.1906V38.9482H145.796V7.87256H141.329V14.798Z" fill="#EEF0ED"/>
<path d="M172.537 7.87256H168.07V30.0694H172.537V7.87256Z" fill="#EEF0ED"/>
<path d="M156.933 30.0694C158.779 30.0694 160.328 29.4183 161.638 28.116C162.949 26.8138 163.604 25.2749 163.604 23.4399C163.604 21.605 162.949 20.066 161.638 18.7638C160.328 17.4616 158.779 16.8105 156.933 16.8105C156.159 16.8105 155.385 16.9289 154.73 17.1656V7.87256H150.263V23.3807C150.263 25.2157 150.918 26.7547 152.228 28.0569C153.538 29.4182 155.087 30.0694 156.933 30.0694ZM155.385 21.8418C155.802 21.4274 156.338 21.1906 156.933 21.1906C157.529 21.1906 158.065 21.4274 158.482 21.8418C158.899 22.2561 159.137 22.7888 159.137 23.3807C159.137 23.9727 158.899 24.5054 158.482 24.9197C158.065 25.334 157.529 25.5708 156.933 25.5708C156.338 25.5708 155.802 25.334 155.385 24.9197C154.968 24.5054 154.73 23.9727 154.73 23.3807C154.73 22.7888 154.908 22.3153 155.385 21.8418Z" fill="#EEF0ED"/>
<path d="M172.597 34.5088H150.263V38.9482H172.597V34.5088Z" fill="#EEF0ED"/>
<path d="M186.533 7.87256V18.4678H181.471V7.87256H177.004V22.9072H186.533V38.9482H191V7.87256H186.533Z" fill="#EEF0ED"/>
<path d="M33.4116 11.7791C40.0821 11.4832 48.718 10.2401 49.6111 1.30221C47.1098 5.32723 42.2855 9.11548 35.9726 8.58278C39.5462 8.34601 44.2509 3.31472 41.3924 0C40.3201 6.09674 31.9227 7.81327 25.2523 7.6949C23.4655 7.63572 17.8672 7.0438 16.5569 7.10298C10.899 7.33976 7.20643 9.64821 5.06238 13.2589C3.99033 15.0347 3.99033 17.1063 3.15653 19.2372C2.32274 21.2498 0.65513 23.3214 0 25.5708C0.536015 25.6299 4.58591 25.3932 4.76457 25.6299C4.94323 25.8667 4.40725 28.1752 4.34769 28.7079C4.04989 31.0163 2.68007 34.3311 4.58591 34.923C5.4197 35.1598 7.92111 34.6862 8.6358 35.1598C9.41003 35.6925 9.64825 36.5804 9.46959 37.4682C9.23137 38.7704 8.99316 40.0133 8.93357 40.8421C9.8865 41.1974 23.406 40.8421 23.406 40.8421C22.9891 37.7642 22.7508 34.627 22.9891 31.3715C23.1678 29.2998 24.0016 27.9384 24.8949 26.5178C26.9794 27.1689 29.2426 28.2343 31.0889 27.5832C28.8257 26.9321 26.8603 24.6829 26.503 23.795C26.5625 23.7358 36.5086 26.6954 39.0098 23.0847C38.3547 23.2623 31.208 23.4399 28.4684 19.5332C34.2454 22.1376 44.6084 22.1968 47.3481 16.8104C43.7149 18.527 35.1388 19.0597 30.4337 14.7387C37.6402 16.692 46.5142 18.0534 50.9214 9.88499C49.7899 10.7729 49.1943 11.0688 48.1817 11.6016C45.204 13.3181 38.1762 13.0813 33.4116 11.7791ZM10.2438 20.7762C8.7549 20.8354 6.19394 19.3556 6.19394 19.3556C6.19394 19.3556 7.26598 18.6453 8.39758 18.1718C8.39758 18.2902 8.33803 18.4678 8.33803 18.5861C8.39758 19.6516 9.23137 19.2372 10.2438 19.2372C11.2563 19.1781 12.0306 19.5332 12.0306 18.4678C12.0306 18.3494 12.0306 18.1718 11.971 18.0534C13.1026 18.4678 14.1746 19.0597 14.1746 19.0597C14.1746 19.0597 11.6732 20.717 10.2438 20.7762Z" fill="#EEF0ED"/>
<path d="M10.2437 20.2435C11.3949 20.2435 12.3282 19.316 12.3282 18.1718C12.3282 17.0276 11.3949 16.1001 10.2437 16.1001C9.09244 16.1001 8.15918 17.0276 8.15918 18.1718C8.15918 19.316 9.09244 20.2435 10.2437 20.2435Z" fill="#EEF0ED"/>
<path d="M6.37305 16.988L7.26639 15.5082L9.05312 14.6204L13.5199 16.1002L12.6265 17.58L11.9588 17.5136L9.6487 17.284L8.78289 17.5708L7.86197 17.8759L6.37305 16.988Z" fill="#EEF0ED"/>
<path d="M5.77734 19.3556C9.94634 16.6921 10.5419 16.6921 14.4131 19.0597" stroke="#EEF0ED"/>
</g>
<defs>
<clipPath id="clip0_18_25786">
<rect width="191" height="41" fill="white"/>
</clipPath>
</defs>
</svg>
