<svg width="34" height="34" viewBox="0 0 34 34" fill="none" xmlns="http://www.w3.org/2000/svg">
<path d="M15.023 5C14.4062 5 14.9555 7.73344 15.1043 8.27344C14.3923 8.00464 13.4343 6.6 12.8855 6.6C12.3247 6.6 13.4572 8.8576 14.5996 9.8C13.5388 9.78 12.9896 9.03281 12.3824 9.03281C11.7752 9.03281 13.2356 11.0184 13.7996 11.4H16.9996H20.1996C20.7636 11.0184 22.224 9.03281 21.6168 9.03281C21.0096 9.03281 20.4604 9.78 19.3996 9.8C20.542 8.8576 21.6745 6.6 21.1137 6.6C20.5649 6.6 19.6069 8.00464 18.8949 8.27344C19.0437 7.73344 19.593 5 18.9762 5C18.5762 5 18.3572 6.048 16.9996 7.4C15.642 6.048 15.423 5 15.023 5ZM13.7996 13C13.7996 13 10.5996 15.4168 10.5996 21.7C10.5996 25.1792 13.4652 27.4 16.9996 27.4C20.534 27.4 23.3996 25.1792 23.3996 21.7C23.3996 15.3984 20.1996 13 20.1996 13H13.7996ZM18.5996 16.2C19.6788 16.2 20.1996 17 20.1996 17L18.6605 18.1781L16.9996 17C16.9996 17 17.5204 16.2 18.5996 16.2ZM21.7121 18.5891C22.1753 19.3835 22.0355 20.85 22.0355 20.85L20.1996 19.4C20.1996 19.4 20.8513 18.5891 21.7121 18.5891ZM15.3996 18.6C16.4788 18.6 16.9996 19.4 16.9996 19.4L15.4605 20.5781L13.7996 19.4C13.7996 19.4 14.3204 18.6 15.3996 18.6ZM18.5996 20.2C19.6788 20.2 20.1996 21 20.1996 21L18.6605 22.1781L16.9996 21C16.9996 21 17.5204 20.2 18.5996 20.2ZM15.3996 22.6C16.4788 22.6 16.9996 23.4 16.9996 23.4L15.4605 24.5781L13.7996 23.4C13.7996 23.4 14.3204 22.6 15.3996 22.6ZM21.7996 22.6C21.9284 23.1472 20.9949 24.225 20.9949 24.225L20.1996 23.4C20.1996 23.4 20.7204 22.6 21.7996 22.6ZM18.5996 24.2C19.6788 24.2 20.1996 25 20.1996 25L19.4949 25.7047C19.0005 26.1991 18.1995 26.1991 17.7059 25.7047L16.9996 25C16.9996 25 17.5204 24.2 18.5996 24.2Z" fill="#185D66"/>
</svg>
