<svg width="50" height="50" viewBox="0 0 50 50" fill="none" xmlns="http://www.w3.org/2000/svg">
<path d="M13.3333 6.66663C12.5433 6.66663 11.8641 7.22142 11.7025 7.99475C11.6325 8.32808 10 16.1916 10 20C10 27.7057 15.846 34.069 23.3333 34.9023V40.3255L16.3737 41.6894C16.342 41.695 16.3106 41.7015 16.2793 41.7089L16.2305 41.7187V41.722C15.8385 41.8259 15.4978 42.0692 15.2722 42.4062C15.0467 42.7433 14.9518 43.151 15.0053 43.553C15.0588 43.955 15.257 44.3237 15.5628 44.5901C15.8687 44.8565 16.2611 45.0022 16.6667 45H33.3333C33.7411 45.0054 34.1367 44.8611 34.4453 44.5944C34.7538 44.3277 34.9539 43.9572 35.0077 43.5529C35.0614 43.1487 34.9651 42.7387 34.7369 42.4007C34.5087 42.0627 34.1646 41.82 33.7695 41.7187L33.724 41.7089C33.6798 41.6985 33.6353 41.6898 33.5905 41.6829L26.6667 40.3255V34.9023C34.154 34.069 40 27.7057 40 20C40 16.1816 38.3675 8.32483 38.2975 7.9915C38.1359 7.21983 37.4567 6.66663 36.6667 6.66663H13.3333ZM14.7005 9.99996H35.2995C35.5328 11.21 35.882 13.0966 36.1686 15H17.1484C16.8768 16.8433 16.6667 18.6933 16.6667 20C16.6667 22.1533 17.1793 24.1864 18.0859 25.983C18.7676 27.3347 16.9333 28.543 15.9733 27.373C14.325 25.3647 13.3333 22.7983 13.3333 20C13.3333 17.405 14.2372 12.3883 14.7005 9.99996Z" fill="#D71920"/>
</svg>
