<svg width="20" height="20" viewBox="0 0 20 20" fill="none" xmlns="http://www.w3.org/2000/svg">
<path d="M6.00038 2.00007C5.91204 1.99882 5.82433 2.01514 5.74235 2.04808C5.66037 2.08102 5.58576 2.12993 5.52285 2.19196C5.45993 2.25399 5.40998 2.3279 5.37588 2.40941C5.34178 2.49091 5.32422 2.57838 5.32422 2.66673C5.32422 2.75508 5.34178 2.84255 5.37588 2.92406C5.40998 3.00556 5.45993 3.07948 5.52285 3.14151C5.58576 3.20354 5.66037 3.25244 5.74235 3.28539C5.82433 3.31833 5.91204 3.33465 6.00038 3.3334H7.17616C7.43054 3.3334 7.65862 3.4741 7.77252 3.70189L8.73736 5.63158C8.79274 5.74231 8.87787 5.83544 8.9832 5.90052C9.08853 5.96561 9.2099 6.00008 9.33371 6.00007H10.667C10.7909 6.00008 10.9122 5.96561 11.0176 5.90052C11.1229 5.83544 11.208 5.74231 11.2634 5.63158L12.2282 3.70189C12.3419 3.47457 12.5712 3.3334 12.8246 3.3334H14.0004C14.0887 3.33465 14.1764 3.31833 14.2584 3.28539C14.3404 3.25244 14.415 3.20354 14.4779 3.14151C14.5408 3.07948 14.5908 3.00556 14.6249 2.92406C14.659 2.84255 14.6765 2.75508 14.6765 2.66673C14.6765 2.57838 14.659 2.49091 14.6249 2.40941C14.5908 2.3279 14.5408 2.25399 14.4779 2.19196C14.415 2.12993 14.3404 2.08102 14.2584 2.04808C14.1764 2.01514 14.0887 1.99882 14.0004 2.00007H12.8246C12.2491 2.00007 11.7106 2.24953 11.3363 2.66673H8.66444C8.29025 2.24961 7.75191 2.00007 7.17616 2.00007H6.00038ZM9.33371 7.3334C9.17954 7.33345 9.03014 7.38694 8.91097 7.48475C8.79179 7.58256 8.71019 7.71865 8.68007 7.86986L7.34673 14.5365C7.32838 14.6283 7.32956 14.7229 7.3502 14.8143C7.37084 14.9056 7.41048 14.9915 7.46653 15.0665L9.46392 17.7331C9.52603 17.8159 9.60655 17.883 9.69909 17.9293C9.79163 17.9755 9.89367 17.9996 9.99713 17.9996C10.1006 17.9996 10.2026 17.9755 10.2952 17.9293C10.3877 17.883 10.4682 17.8159 10.5303 17.7331L12.5329 15.0665C12.5892 14.9916 12.6291 14.9057 12.6499 14.8144C12.6708 14.7231 12.6722 14.6284 12.654 14.5365L11.3207 7.86986C11.2906 7.71865 11.209 7.58256 11.0898 7.48475C10.9706 7.38694 10.8212 7.33345 10.667 7.3334H9.33371Z" fill="white"/>
</svg>
