<svg width="34" height="34" viewBox="0 0 34 34" fill="none" xmlns="http://www.w3.org/2000/svg">
<path d="M15.8 8.19961H18.2C18.6416 8.19961 19 7.84121 19 7.39961C19 6.95801 18.6416 6.59961 18.2 6.59961H15.8C15.3584 6.59961 15 6.95801 15 7.39961C15 7.84121 15.3584 8.19961 15.8 8.19961ZM18.6 12.9996V9.79961H15.4V12.9996C15.4 12.9996 13 13.4796 13 16.1996V24.9996C13 25.8836 13.716 26.5996 14.6 26.5996H19.4C20.284 26.5996 21 25.8836 21 24.9996V16.1996C21 13.4796 18.6 12.9996 18.6 12.9996ZM18.6 24.1996H15.4C14.9584 24.1996 14.6 23.8412 14.6 23.3996C14.6 22.958 14.9584 22.5996 15.4 22.5996H18.6C19.0416 22.5996 19.4 22.958 19.4 23.3996C19.4 23.8412 19.0416 24.1996 18.6 24.1996ZM19.4 20.1996C19.4 20.6412 19.0416 20.9996 18.6 20.9996H15.4C14.9584 20.9996 14.6 20.6412 14.6 20.1996V16.9996C14.6 16.558 14.9584 16.1996 15.4 16.1996H18.6C19.0416 16.1996 19.4 16.558 19.4 16.9996V20.1996Z" fill="#185D66"/>
</svg>
