<svg width="24" height="24" viewBox="0 0 24 24" fill="none" xmlns="http://www.w3.org/2000/svg">
<path d="M18.577 5.63827C17.7268 4.78807 15.928 4.57447 13.9054 5.04667C13.2154 5.20807 12.808 5.92747 13.0324 6.60007L13.1692 7.00987C13.2742 7.32427 13.1044 7.66387 12.79 7.76887C12.7264 7.79047 12.6622 7.80007 12.5998 7.80007C12.3484 7.80007 12.1144 7.64107 12.0304 7.38967L11.7886 6.66487C11.6506 6.25147 11.1694 6.07027 10.7908 6.28627C10.6912 6.34327 10.5916 6.40147 10.4926 6.46207C9.76543 6.90427 9.42583 7.78027 9.69463 8.58787L10.1686 10.0105C10.2736 10.3249 10.1038 10.6645 9.78943 10.7695C9.72643 10.7905 9.66223 10.8001 9.59983 10.8001C9.34843 10.8001 9.11443 10.6411 9.03043 10.3897C9.03043 10.3897 8.77843 9.63427 8.56723 9.00427C8.43823 8.61847 7.93543 8.51707 7.66843 8.82427C7.51303 9.00307 7.36423 9.18547 7.22203 9.37087C6.76843 9.96067 6.59803 10.7203 6.77863 11.4421L7.18183 13.0543C7.26223 13.3759 7.06663 13.7017 6.74503 13.7821C6.69643 13.7947 6.64783 13.8001 6.59923 13.8001C6.33043 13.8001 6.08623 13.6183 6.01783 13.3459L5.68183 12.0007C4.50703 14.7343 4.52683 17.4661 5.63863 18.5779C6.56023 19.4995 7.49263 19.3111 8.22583 18.5773L13.402 13.4023L18.577 8.22607C19.3102 7.49287 19.4992 6.56047 18.577 5.63827Z" fill="#185D66"/>
</svg>
