<svg width="20" height="20" viewBox="0 0 20 20" fill="none" xmlns="http://www.w3.org/2000/svg">
<path d="M9.99935 1.33398C8.74299 1.33398 7.66428 2.04696 7.09701 3.08138C6.66702 2.83924 6.19458 2.66732 5.66602 2.66732C4.01706 2.66732 2.66602 4.01836 2.66602 5.66732C2.66602 6.95919 3.51456 8.01767 4.66602 8.43555V11.334C4.66629 11.403 4.67727 11.4715 4.69857 11.5371C3.89122 12.3298 3.33268 13.5195 3.33268 15.334V16.5723C3.33268 17.4136 4.01412 18.0957 4.85612 18.0957H9.33268C9.33268 18.0957 6.66602 17.1126 6.66602 14.446C6.66602 11.8812 8.40106 12.2333 9.99805 12.0007H13.5033C13.7815 12.5508 13.9993 13.2393 13.9993 14.0957V14.8574C13.9993 17.1434 12.1895 17.2389 12.1895 17.2389H15.1426C15.9839 17.2389 16.6673 16.5562 16.6673 15.7142V13.778C16.6668 12.3412 16.1063 11.4745 15.3327 10.9499V8.99675C16.4961 8.47735 17.3327 7.35322 17.3327 6.00065C17.3327 4.16764 15.8324 2.66732 13.9993 2.66732C13.5379 2.66732 13.1507 2.87938 12.7493 3.05013C12.17 2.07295 11.2152 1.33398 9.99935 1.33398ZM9.99935 2.66732C10.8767 2.66732 11.6032 3.22929 11.877 4.01107C11.9107 4.10736 11.966 4.19463 12.0388 4.26615C12.1116 4.33768 12.1998 4.39155 12.2966 4.42363C12.3935 4.4557 12.4964 4.46512 12.5974 4.45116C12.6985 4.4372 12.795 4.40023 12.8796 4.3431C13.1997 4.12663 13.5815 4.00065 13.9993 4.00065C15.1117 4.00065 15.9993 4.88833 15.9993 6.00065C15.9993 6.93694 15.3609 7.70375 14.498 7.92773C14.3551 7.96495 14.2286 8.04857 14.1384 8.16546C14.0481 8.28234 13.9992 8.42589 13.9993 8.57357V10.6673H5.99935V8.66732H7.33268C7.42102 8.66857 7.50873 8.65225 7.59071 8.6193C7.67269 8.58636 7.7473 8.53745 7.81022 8.47542C7.87313 8.4134 7.92309 8.33948 7.95719 8.25798C7.99128 8.17647 8.00884 8.089 8.00884 8.00065C8.00884 7.9123 7.99128 7.82483 7.95719 7.74333C7.92309 7.66182 7.87313 7.58791 7.81022 7.52588C7.7473 7.46385 7.67269 7.41494 7.59071 7.382C7.50873 7.34906 7.42102 7.33274 7.33268 7.33398H5.53711C5.50145 7.32224 5.46486 7.31353 5.42773 7.30794C4.61738 7.19074 3.99935 6.51256 3.99935 5.66732C3.99935 4.73894 4.73764 4.00065 5.66602 4.00065C6.15806 4.00065 6.58855 4.21359 6.89779 4.55664C6.98007 4.64787 7.08596 4.7146 7.20378 4.74945C7.32159 4.78429 7.44674 4.78591 7.56541 4.75412C7.68409 4.72233 7.79167 4.65837 7.87629 4.56929C7.9609 4.48022 8.01926 4.3695 8.04492 4.24935C8.23723 3.34625 9.03181 2.66732 9.99935 2.66732Z" fill="white"/>
</svg>
