<svg width="50" height="50" viewBox="0 0 50 50" fill="none" xmlns="http://www.w3.org/2000/svg">
<path d="M24.9072 14.0117C26.9356 14.1207 28.8567 14.9863 30.2959 16.4463C31.5791 17.7482 32.3903 19.4351 32.627 21.2363C32.9933 21.282 33.3536 21.3772 33.6963 21.5225C34.3004 21.7787 34.8332 22.1795 35.249 22.6885C35.2886 22.737 35.3237 22.7897 35.3535 22.8447C35.8137 23.6942 36.0343 24.6542 35.9941 25.6201L35.9912 25.876C35.9849 26.124 35.9675 26.3716 35.9395 26.6182C35.9138 27.2091 35.7645 27.7887 35.4971 28.3164C35.2199 28.8633 34.8239 29.3413 34.3389 29.7148C34.2894 29.753 34.2364 29.7872 34.1807 29.8154C33.685 30.0661 33.1526 30.2302 32.6074 30.3057C32.5064 30.8349 32.2933 31.541 31.833 32.2285C31.3555 32.9415 30.6276 33.612 29.5518 34.0361C28.6787 34.3802 27.6131 34.5467 26.3193 34.4805C25.9174 35.3713 25.0316 35.9997 23.9854 36C22.5543 36 21.4189 34.8266 21.4189 33.4102C21.4192 31.9938 22.5544 30.8213 23.9854 30.8213C25.085 30.8216 26.0086 31.5149 26.3779 32.4785C27.466 32.5394 28.2525 32.3978 28.8184 32.1748C29.4885 31.9105 29.9029 31.5163 30.1709 31.1162C30.4466 30.7045 30.5835 30.2623 30.6484 29.9111C30.6804 29.738 30.6929 29.5935 30.6982 29.498C30.7009 29.4509 30.702 29.4162 30.7021 29.3965C30.7022 29.3923 30.7022 29.3885 30.7021 29.3857L30.7012 29.3477V22.3135L30.6924 22C30.611 20.4377 29.9637 18.9584 28.8721 17.8506C27.7087 16.6703 26.1349 16.0068 24.4961 16C22.8573 16.0068 21.2845 16.6704 20.1211 17.8506C18.9564 19.0322 18.2968 20.6363 18.291 22.3135V29.3477L18.2861 29.4463C18.2385 29.9319 17.8425 30.3183 17.3457 30.3457C16.4723 30.3933 15.6016 30.2098 14.8203 29.8145C14.7647 29.7863 14.7115 29.7529 14.6621 29.7148C14.177 29.3414 13.7811 28.8633 13.5039 28.3164C13.2365 27.7887 13.0872 27.2092 13.0615 26.6182C13.0238 26.2869 13.0053 25.9536 13.0068 25.6201H13.0078C12.9648 24.656 13.1799 23.6971 13.6367 22.8477L13.6875 22.7637C13.7056 22.7368 13.7255 22.7106 13.7461 22.6855C14.1641 22.1781 14.6981 21.779 15.3027 21.5234C15.6434 21.3795 16.0012 21.2844 16.3652 21.2383C16.6015 19.4362 17.4125 17.7487 18.6963 16.4463C20.2316 14.8888 22.3157 14.0077 24.4932 14H24.5L24.9072 14.0117ZM23.9854 32.8213C23.686 32.8213 23.4191 33.0712 23.4189 33.4102C23.4189 33.7493 23.6859 34 23.9854 34C24.2845 33.9996 24.5518 33.7491 24.5518 33.4102C24.5516 33.0714 24.2844 32.8216 23.9854 32.8213ZM32.7012 28.25C32.8665 28.2055 33.0279 28.1449 33.1846 28.0723C33.401 27.8906 33.5831 27.6682 33.7129 27.4121C33.8561 27.1296 33.9354 26.817 33.9443 26.498L33.9502 26.4102C33.9804 26.1512 33.9954 25.8897 33.9941 25.6289C33.9941 25.6102 33.9941 25.591 33.9951 25.5723C34.0256 24.9848 33.9004 24.4017 33.6367 23.8809C33.4356 23.6568 33.1889 23.4805 32.915 23.3643C32.8451 23.3346 32.7735 23.3085 32.7012 23.2871V28.25ZM16.0811 23.3652C15.8058 23.4816 15.5575 23.6579 15.3545 23.8818C15.0942 24.4019 14.9722 24.9842 15.0049 25.5693C15.006 25.5892 15.0069 25.609 15.0068 25.6289C15.0062 25.7594 15.0093 25.8903 15.0166 26.0205L15.0508 26.4102L15.0566 26.498C15.0655 26.8171 15.1448 27.1295 15.2881 27.4121C15.4178 27.668 15.5991 27.8906 15.8154 28.0723C15.9696 28.1439 16.1284 28.2038 16.291 28.248V23.29C16.2201 23.3112 16.1497 23.3362 16.0811 23.3652ZM24.4971 17.1113C25.3242 17.1119 26.1363 17.3328 26.8506 17.752C27.5649 18.1713 28.1566 18.7739 28.5664 19.4961C28.8386 19.9763 28.6703 20.5868 28.1904 20.8594C27.7101 21.1319 27.0997 20.9626 26.8271 20.4824C26.5895 20.0637 26.2477 19.7176 25.8389 19.4775C25.4303 19.2377 24.9671 19.1119 24.4971 19.1113C24.0268 19.1132 23.5641 19.2396 23.1553 19.4795C22.7457 19.7199 22.4032 20.0665 22.1641 20.4854C21.8903 20.9647 21.2793 21.1309 20.7998 20.8574C20.3205 20.5835 20.154 19.9727 20.4277 19.4932C20.8387 18.7734 21.4295 18.1735 22.1426 17.7549C22.856 17.3362 23.667 17.1139 24.4932 17.1113H24.4971Z" fill="#185D66"/>
</svg>
