<svg width="50" height="50" viewBox="0 0 50 50" fill="none" xmlns="http://www.w3.org/2000/svg">
<path d="M24.9999 3.33398C24.1237 3.33477 23.2831 3.68052 22.6599 4.29643C22.0366 4.91234 21.681 5.74886 21.6699 6.625C13.3246 8.00157 6.69171 14.455 5.06179 22.7122C4.80517 24.0111 5.36986 25.2426 6.3476 25.9772L9.48236 41.0228C9.96514 43.3296 12.0196 45.0007 14.3782 45.0007H18.0012C18.2225 45.0461 18.4506 45.0461 18.6718 45.0007H24.72C24.9 45.0304 25.0836 45.0304 25.2636 45.0007H31.3346C31.5505 45.0439 31.7729 45.0439 31.9889 45.0007H35.6217C37.9803 45.0007 40.0367 43.3288 40.5175 41.0195L43.6523 25.9772C44.63 25.2426 45.1947 24.0111 44.9381 22.7122C43.3082 14.455 36.6753 8.00157 28.33 6.625C28.3189 5.74886 27.9633 4.91234 27.34 4.29643C26.7168 3.68052 25.8762 3.33477 24.9999 3.33398ZM19.9999 11.6673C20.9199 11.6673 21.6666 12.414 21.6666 13.334C21.6666 14.254 20.9199 15.0007 19.9999 15.0007C19.0799 15.0007 18.3333 14.254 18.3333 13.334C18.3333 12.414 19.0799 11.6673 19.9999 11.6673ZM36.6666 15.0007C37.5866 15.0007 38.3333 15.7473 38.3333 16.6673C38.3333 17.5873 37.5866 18.334 36.6666 18.334C35.7466 18.334 34.9999 17.5873 34.9999 16.6673C34.9999 15.7473 35.7466 15.0007 36.6666 15.0007ZM11.6666 18.334C12.5866 18.334 13.3333 19.0807 13.3333 20.0007C13.3333 20.9207 12.5866 21.6673 11.6666 21.6673C10.7466 21.6673 9.99994 20.9207 9.99994 20.0007C9.99994 19.0807 10.7466 18.334 11.6666 18.334ZM26.6666 20.0007C27.5866 20.0007 28.3333 20.7473 28.3333 21.6673C28.3333 22.5873 27.5866 23.334 26.6666 23.334C25.7466 23.334 24.9999 22.5873 24.9999 21.6673C24.9999 20.7473 25.7466 20.0007 26.6666 20.0007ZM9.89578 26.6673H40.1041L37.2525 40.3392V40.3424C37.09 41.1231 36.4198 41.6673 35.6217 41.6673H33.6328L34.9772 33.6074C35.0221 33.3604 35.0106 33.1064 34.9436 32.8645C34.8766 32.6225 34.7558 32.3988 34.5902 32.2101C34.4246 32.0214 34.2186 31.8725 33.9874 31.7746C33.7562 31.6766 33.5059 31.6322 33.2552 31.6445C32.8708 31.6636 32.5049 31.815 32.2195 32.0731C31.9341 32.3312 31.7468 32.6801 31.6894 33.0605L30.2538 41.6673H26.6666V33.334C26.6697 33.111 26.6279 32.8897 26.5439 32.6831C26.4599 32.4765 26.3353 32.2889 26.1774 32.1314C26.0196 31.9739 25.8317 31.8496 25.625 31.766C25.4183 31.6823 25.1969 31.641 24.9739 31.6445C24.5324 31.6514 24.1118 31.8332 23.8042 32.1499C23.4966 32.4667 23.3272 32.8925 23.3333 33.334V41.6673H19.746L18.3105 33.0605C18.2514 32.6721 18.057 32.317 17.7616 32.0579C17.4662 31.7988 17.0888 31.6524 16.6959 31.6445C16.4492 31.6397 16.2045 31.6896 15.9794 31.7908C15.7543 31.892 15.5546 32.0419 15.3945 32.2297C15.2344 32.4175 15.118 32.6385 15.0537 32.8768C14.9894 33.115 14.9789 33.3646 15.0227 33.6074L16.3671 41.6673H14.3782C13.5801 41.6673 12.908 41.1223 12.7441 40.3392L9.89578 26.6673Z" fill="#D71920"/>
</svg>
