<svg width="64" height="64" viewBox="0 0 64 64" fill="none" xmlns="http://www.w3.org/2000/svg">
<path d="M39.9795 39.9795C40.1746 39.7843 40.4912 39.7846 40.6865 39.9795L42.9688 42.2617C44.1879 43.4809 46.2047 43.3381 47.2393 41.959L47.4336 41.7002C47.5993 41.4793 47.9129 41.4339 48.1338 41.5996C48.3546 41.7653 48.3989 42.0789 48.2334 42.2998L48.0391 42.5586C47.055 43.8706 45.4149 44.3548 43.9541 43.9541C44.3548 45.4149 43.8706 47.055 42.5586 48.0391L42.2998 48.2334C42.0789 48.3989 41.7653 48.3546 41.5996 48.1338C41.4339 47.9129 41.4793 47.5993 41.7002 47.4336L41.959 47.2393C43.3381 46.2047 43.4809 44.1879 42.2617 42.9688L39.9795 40.6865C39.7846 40.4912 39.7843 40.1746 39.9795 39.9795ZM25.1084 16.5C28.7211 16.5 31.8135 18.7252 33.0908 21.8779C33.4699 22.8136 33.8006 23.8611 34.1406 24.7666C34.4932 25.7055 34.8848 26.5831 35.4365 27.3555L40.1357 33.9346C41.1994 35.4237 41.0313 37.4638 39.7373 38.7578L38.7578 39.7373C37.4638 41.0313 35.4237 41.1994 33.9346 40.1357L27.3555 35.4365C26.5831 34.8848 25.7055 34.4932 24.7666 34.1406C23.8611 33.8006 22.8136 33.4699 21.8779 33.0908C18.7252 31.8135 16.5 28.7211 16.5 25.1084C16.5002 20.3542 20.3542 16.5002 25.1084 16.5ZM25.1084 17.5C20.9065 17.5002 17.5002 20.9065 17.5 25.1084C17.5 28.3001 19.4656 31.0345 22.2539 32.1641C23.1978 32.5464 24.1162 32.8279 25.1182 33.2041C26.0865 33.5677 27.0589 33.9962 27.9365 34.623L34.5156 39.3223C35.6069 40.1018 37.1015 39.9776 38.0498 39.0293L39.0293 38.0498C39.9776 37.1015 40.1018 35.6069 39.3223 34.5156L34.623 27.9365C33.9962 27.0589 33.5677 26.0865 33.2041 25.1182C32.8279 24.1162 32.5464 23.1978 32.1641 22.2539C31.0345 19.4656 28.3001 17.5 25.1084 17.5Z" fill="white"/>
</svg>
