<svg width="50" height="50" viewBox="0 0 50 50" fill="none" xmlns="http://www.w3.org/2000/svg">
<path d="M25.0001 0C25.0001 0 16.6668 9.16667 16.6668 17.5C16.6668 17.785 16.7248 18.055 16.7514 18.3333H21.4682C22.6349 14.8 25.0001 11.25 25.0001 11.25C25.0001 11.25 27.3654 14.8 28.532 18.3333H33.2488C33.2772 18.055 33.3335 17.785 33.3335 17.5C33.3335 12.55 30.3419 5.78776 30.3419 5.78776C30.3419 5.78776 29.3623 6.66667 27.6889 6.66667C25.2906 6.66667 25.0001 0 25.0001 0ZM8.33347 21.6667C8.11262 21.6635 7.89335 21.7043 7.6884 21.7867C7.48345 21.8691 7.29692 21.9913 7.13963 22.1464C6.98235 22.3015 6.85746 22.4863 6.77221 22.69C6.68696 22.8938 6.64307 23.1125 6.64307 23.3333C6.64307 23.5542 6.68696 23.7729 6.77221 23.9766C6.85746 24.1804 6.98235 24.3652 7.13963 24.5203C7.29692 24.6753 7.48345 24.7976 7.6884 24.88C7.89335 24.9623 8.11262 25.0031 8.33347 25H8.67201C9.49074 29.0306 11.7597 32.5327 14.9155 34.9349L10.3647 40.625C10.2279 40.796 10.126 40.9923 10.065 41.2026C10.004 41.413 9.98505 41.6333 10.0092 41.8509C10.0334 42.0686 10.1002 42.2794 10.2058 42.4713C10.3114 42.6631 10.4538 42.8323 10.6249 42.9691C10.7959 43.1059 10.9922 43.2077 11.2025 43.2687C11.4129 43.3296 11.6332 43.3485 11.8509 43.3243C12.0686 43.3001 12.2793 43.2332 12.4712 43.1275C12.663 43.0218 12.8321 42.8794 12.9689 42.7083L17.7899 36.6829C19.4981 37.5049 21.3622 38.0529 23.3335 38.2487V45C23.3303 45.2209 23.3711 45.4401 23.4535 45.6451C23.5359 45.85 23.6581 46.0366 23.8132 46.1938C23.9683 46.3511 24.1531 46.476 24.3568 46.5613C24.5606 46.6465 24.7793 46.6904 25.0001 46.6904C25.221 46.6904 25.4397 46.6465 25.6434 46.5613C25.8472 46.476 26.032 46.3511 26.1871 46.1938C26.3421 46.0366 26.4644 45.85 26.5468 45.6451C26.6291 45.4401 26.6699 45.2209 26.6668 45V38.2487C28.638 38.0529 30.5022 37.5049 32.2104 36.6829L37.0314 42.7083C37.1682 42.8794 37.3373 43.0218 37.5291 43.1275C37.7209 43.2332 37.9317 43.3001 38.1494 43.3243C38.3671 43.3485 38.5874 43.3296 38.7977 43.2687C39.0081 43.2077 39.2044 43.1059 39.3754 42.9691C39.5464 42.8323 39.6888 42.6631 39.7945 42.4713C39.9001 42.2794 39.9669 42.0686 39.9911 41.8509C40.0152 41.6333 39.9963 41.413 39.9353 41.2026C39.8743 40.9923 39.7724 40.796 39.6356 40.625L35.0848 34.9349C38.2405 32.5327 40.5095 29.0306 41.3283 25H41.6668C41.8877 25.0031 42.1069 24.9623 42.3119 24.88C42.5168 24.7976 42.7034 24.6753 42.8606 24.5203C43.0179 24.3652 43.1428 24.1804 43.2281 23.9766C43.3133 23.7729 43.3572 23.5542 43.3572 23.3333C43.3572 23.1125 43.3133 22.8938 43.2281 22.69C43.1428 22.4863 43.0179 22.3015 42.8606 22.1464C42.7034 21.9913 42.5168 21.8691 42.3119 21.7867C42.1069 21.7043 41.8877 21.6635 41.6668 21.6667H8.33347Z" fill="#D71920"/>
</svg>
