<svg width="64" height="64" viewBox="0 0 64 64" fill="none" xmlns="http://www.w3.org/2000/svg">
<g clip-path="url(#clip0_225_4461)">
<g filter="url(#filter0_d_225_4461)">
<path d="M24.24 49.3979C24.2052 49.3979 24.1705 49.3947 24.1389 49.3851C22.2067 48.8406 20.4229 47.621 19.1221 45.9459C17.6382 44.0385 16.89 41.7297 17.0131 39.4465C17.1362 37.1441 18.1339 35.1443 19.8136 33.8132C20.8839 32.9662 22.1878 32.4439 23.577 32.3006C23.7853 32.2783 23.9716 32.4312 23.9906 32.6413C24.0127 32.8515 23.8611 33.0394 23.6527 33.0585C22.4056 33.1859 21.2375 33.654 20.2808 34.4119C18.7717 35.6061 17.8813 37.4085 17.7677 39.4847C17.654 41.5833 18.3455 43.7073 19.7157 45.4683C20.9186 47.0159 22.5603 48.1432 24.341 48.6432C24.5431 48.7005 24.6599 48.9107 24.6031 49.1145C24.5557 49.2832 24.4041 49.3947 24.2368 49.3947L24.24 49.3979Z" fill="white"/>
<path d="M39.7663 49.4351C39.6022 49.4351 39.4475 49.3236 39.4001 49.1549C39.3433 48.9511 39.4632 48.7409 39.6622 48.6836C41.4397 48.1836 43.0814 47.0563 44.2875 45.5087C45.6577 43.7477 46.3491 41.6205 46.2355 39.5251C46.1218 37.4457 45.2315 35.6433 43.7223 34.4523C41.5344 32.72 38.3677 32.6053 35.6493 34.1593C35.4694 34.2644 35.2357 34.2007 35.1315 34.016C35.0273 33.8313 35.0937 33.5989 35.2736 33.4938C38.2603 31.7869 41.7585 31.927 44.1864 33.8504C45.8692 35.1815 46.8638 37.1814 46.9869 39.4837C47.11 41.767 46.3618 44.0725 44.8779 45.9832C43.5771 47.655 41.7933 48.8778 39.8611 49.4224C39.8263 49.4319 39.7916 49.4351 39.76 49.4351H39.7663Z" fill="white"/>
<path d="M34.5226 54.2254H29.3732C26.3455 54.2254 23.8828 51.7416 23.8828 48.6877V47.9362C23.8765 47.8502 23.7407 45.2358 26.3328 42.9939C28.7639 40.8922 28.8491 38.3319 28.8491 38.3064C28.8523 38.0962 29.0259 37.9147 29.2375 37.9338C29.4458 37.937 29.6132 38.1122 29.6069 38.3255C29.6069 38.4433 29.5121 41.2552 26.8285 43.5767C24.5364 45.5574 24.6342 47.8183 24.6406 47.9139V48.6877C24.6406 51.318 26.7654 53.4612 29.3732 53.4612H34.5226C37.1305 53.4612 39.2553 51.3212 39.2553 48.6877V47.9362C39.2616 47.8183 39.3595 45.5574 37.0674 43.5735C36.0823 42.7232 35.3372 41.7106 34.8478 40.561C34.7658 40.3667 34.8542 40.1438 35.0468 40.0579C35.2393 39.9751 35.4603 40.0642 35.5456 40.2585C35.9907 41.2998 36.6695 42.2201 37.563 42.9939C40.1551 45.2358 40.0225 47.8502 40.013 47.9585V48.6877C40.013 51.7416 37.5504 54.2254 34.5226 54.2254Z" fill="white"/>
<path d="M34.5707 56H29.4939C28.9035 56 28.4236 55.516 28.4236 54.9205C28.4236 54.7103 28.5941 54.5383 28.8025 54.5383C29.0109 54.5383 29.1814 54.7103 29.1814 54.9205C29.1814 55.0924 29.3203 55.2357 29.4939 55.2357H34.5707C34.7412 55.2357 34.8833 55.0956 34.8833 54.9205C34.8833 54.7103 35.0538 54.5383 35.2622 54.5383C35.4705 54.5383 35.641 54.7103 35.641 54.9205C35.641 55.516 35.1611 56 34.5707 56Z" fill="white"/>
<path d="M34.7094 38.6978H29.1905C28.6254 38.6978 28.1645 38.2329 28.1645 37.6629V36.9686C28.1645 36.3986 28.6254 35.9337 29.1905 35.9337H34.7094C35.2745 35.9337 35.7355 36.3986 35.7355 36.9686V37.6629C35.7355 38.2329 35.2745 38.6978 34.7094 38.6978ZM29.1905 36.698C29.0422 36.698 28.9222 36.819 28.9222 36.9686V37.6629C28.9222 37.8125 29.0422 37.9335 29.1905 37.9335H34.7094C34.8578 37.9335 34.9777 37.8125 34.9777 37.6629V36.9686C34.9777 36.819 34.8578 36.698 34.7094 36.698H29.1905Z" fill="white"/>
<path d="M34.4185 36.6947C34.2101 36.6947 34.0396 36.5227 34.0396 36.3126C34.0396 35.1502 33.1019 34.2045 31.9496 34.2045C30.7972 34.2045 29.8595 35.1502 29.8595 36.3126C29.8595 36.5227 29.689 36.6947 29.4806 36.6947C29.2722 36.6947 29.1017 36.5227 29.1017 36.3126C29.1017 34.7267 30.3804 33.4402 31.9496 33.4402C33.5187 33.4402 34.7974 34.7299 34.7974 36.3126C34.7974 36.5227 34.6269 36.6947 34.4185 36.6947Z" fill="white"/>
<path d="M33.0487 34.2049C32.8403 34.2049 32.6698 34.0329 32.6698 33.8228V19.738C32.6698 19.5278 32.8403 19.3559 33.0487 19.3559C33.2571 19.3559 33.4275 19.5278 33.4275 19.738V33.8228C33.4275 34.0329 33.2571 34.2049 33.0487 34.2049Z" fill="white"/>
<path d="M30.8508 34.2056C30.6424 34.2056 30.4719 34.0336 30.4719 33.8234V17.949C30.4719 17.7388 30.6424 17.5668 30.8508 17.5668C31.0591 17.5668 31.2296 17.7388 31.2296 17.949V33.8234C31.2296 34.0336 31.0591 34.2056 30.8508 34.2056Z" fill="white"/>
<path d="M33.4714 18.1399H30.4121C29.9574 18.1399 29.5849 17.7673 29.5849 17.3055V16.8279C29.5849 16.3693 29.9543 15.9935 30.4121 15.9935H33.4714C33.9261 15.9935 34.2986 16.3661 34.2986 16.8279V17.3055C34.2986 17.7641 33.9292 18.1399 33.4714 18.1399ZM30.4121 16.761C30.3742 16.761 30.3426 16.7928 30.3426 16.8311V17.3087C30.3426 17.3469 30.3742 17.3788 30.4121 17.3788H33.4714C33.5093 17.3788 33.5409 17.3469 33.5409 17.3087V16.8311C33.5409 16.7928 33.5093 16.761 33.4714 16.761H30.4121Z" fill="white"/>
<path d="M32.9607 16.6725C32.8408 16.6725 32.724 16.6151 32.6513 16.5101C32.5314 16.3381 32.5724 16.0993 32.746 15.9783C33.1312 15.7076 33.3522 15.2809 33.3522 14.8128C33.3522 14.4593 33.226 14.1154 33.0144 13.8924C32.8692 13.7396 32.8755 13.4976 33.0239 13.3511C33.1754 13.2046 33.4154 13.211 33.5606 13.3606C33.9111 13.7269 34.11 14.2555 34.11 14.8096C34.11 15.5197 33.7627 16.1916 33.1817 16.6024C33.1154 16.6502 33.0397 16.6725 32.9639 16.6725H32.9607Z" fill="white"/>
<path d="M30.9457 16.7063C30.8731 16.7063 30.8005 16.6871 30.7373 16.6426C30.1248 16.235 29.7586 15.5535 29.7586 14.8147C29.7586 14.2606 29.9575 13.732 30.308 13.3658C30.4532 13.2129 30.6932 13.2097 30.8447 13.3562C30.9962 13.5027 30.9994 13.7447 30.8542 13.8976C30.6426 14.1205 30.5163 14.4644 30.5163 14.8179C30.5163 15.2955 30.7531 15.7414 31.1541 16.0089C31.3277 16.1235 31.3751 16.3623 31.2614 16.5375C31.1888 16.6489 31.0688 16.7094 30.9457 16.7094V16.7063Z" fill="white"/>
<path d="M29.3487 14.0119C28.2089 14.0119 27.2807 13.0757 27.2807 11.9229V11.0186C27.2807 10.8084 27.4512 10.6364 27.6596 10.6364H36.2251C36.4335 10.6364 36.604 10.8084 36.604 11.0186V11.9229C36.604 13.0725 35.6757 14.0119 34.536 14.0119H29.3487ZM28.0353 11.4039V11.9261C28.0353 12.6554 28.6225 13.2477 29.3455 13.2477H34.5297C35.2527 13.2477 35.8399 12.6554 35.8399 11.9261V11.4039H28.0321H28.0353Z" fill="white"/>
<path d="M35.1768 9.76426H28.7076C28.4993 9.76426 28.3288 9.59231 28.3288 9.38214C28.3288 9.17196 28.4993 9 28.7076 9H35.1768C35.3852 9 35.5557 9.17196 35.5557 9.38214C35.5557 9.59231 35.3852 9.76426 35.1768 9.76426Z" fill="white"/>
<path d="M36.9856 47.1782C36.8815 47.1782 36.7804 47.1368 36.7047 47.054L35.7575 46.0063C35.6565 45.8948 35.5175 45.8312 35.366 45.8312H35.3597C35.2113 45.8312 35.0724 45.8917 34.9713 45.9999L34.6556 46.3375C34.4094 46.6018 34.0684 46.7483 33.7022 46.7451C33.3454 46.7419 32.9981 46.5859 32.7581 46.3216L32.474 46.0063C32.373 45.8948 32.234 45.8312 32.0825 45.8312H32.0762C31.9278 45.8312 31.7889 45.8917 31.6878 45.9999L31.369 46.3375C31.1227 46.5986 30.7659 46.7546 30.4186 46.7451C30.0587 46.7451 29.7146 46.5859 29.4746 46.3216L29.1905 46.0063C29.0894 45.8948 28.9505 45.8312 28.799 45.8312H28.7927C28.6443 45.8312 28.5054 45.8917 28.4012 45.9999L27.4067 47.0603C27.2646 47.2132 27.0246 47.2196 26.8699 47.0763C26.7184 46.9298 26.7121 46.691 26.8541 46.5349L27.8487 45.4745C28.0949 45.2134 28.4391 45.0669 28.8021 45.0669C29.1621 45.0701 29.5062 45.2261 29.7461 45.4904L30.0303 45.8057C30.1313 45.9171 30.2703 45.9808 30.4218 45.9808H30.4281C30.5765 45.9808 30.7154 45.9203 30.8164 45.8121L31.1353 45.4745C31.3784 45.2134 31.7226 45.0669 32.0762 45.0669H32.0888C32.4487 45.0669 32.7929 45.2261 33.0328 45.4904L33.317 45.8057C33.418 45.9171 33.5569 45.9808 33.7085 45.9808C33.8442 45.9808 33.9989 45.9235 34.1031 45.8121L34.4188 45.4745C34.6651 45.2102 35.0187 45.0764 35.3723 45.0669C35.7291 45.0701 36.0732 45.2261 36.3163 45.4904L37.2635 46.5381C37.4056 46.6941 37.3929 46.9362 37.2382 47.0795C37.1656 47.1463 37.074 47.1782 36.9825 47.1782H36.9856Z" fill="white"/>
<path d="M36.9856 50.5757C36.8815 50.5757 36.7804 50.5343 36.7047 50.4515L35.7575 49.4038C35.6565 49.2924 35.5175 49.2287 35.366 49.2287C35.2018 49.2287 35.0755 49.286 34.9713 49.3975L34.6556 49.735C34.4094 49.9961 34.0684 50.1426 33.7021 50.1426C33.3422 50.1395 32.9981 49.9834 32.7581 49.7191L32.474 49.407C32.373 49.2956 32.234 49.2319 32.0825 49.2319C31.9436 49.2319 31.792 49.2892 31.6878 49.4007L31.369 49.7382C31.1259 49.9993 30.7817 50.1458 30.4281 50.1458H30.4155C30.0556 50.1458 29.7114 49.9866 29.4715 49.7223L29.1873 49.4102C29.0863 49.2988 28.9474 49.2351 28.7958 49.2351C28.6285 49.2351 28.5054 49.2956 28.4012 49.4038L27.4067 50.4643C27.2614 50.6171 27.0215 50.6235 26.8699 50.4802C26.7184 50.3337 26.7121 50.0949 26.8541 49.9388L27.8487 48.8784C28.0949 48.6141 28.4391 48.4676 28.8021 48.4708C29.1621 48.474 29.5062 48.63 29.7461 48.8975L30.0303 49.2096C30.1313 49.321 30.2702 49.3847 30.4218 49.3847C30.586 49.3847 30.7123 49.3274 30.8164 49.216L31.1353 48.8784C31.3784 48.6173 31.7226 48.4708 32.0762 48.4708H32.0888C32.4487 48.474 32.7929 48.63 33.0328 48.8975L33.317 49.2096C33.418 49.321 33.5569 49.3847 33.7084 49.3847H33.7148C33.8632 49.3847 34.0021 49.3242 34.1063 49.216L34.422 48.8784C34.6682 48.6173 35.0219 48.474 35.3755 48.4708C35.7322 48.474 36.0764 48.63 36.3195 48.8975L37.2666 49.9452C37.4087 50.1012 37.3961 50.3433 37.2414 50.4866C37.1688 50.5534 37.0772 50.5853 36.9856 50.5853V50.5757Z" fill="white"/>
<path d="M34.6056 36.0724C34.5046 36.0724 34.4035 36.031 34.3309 35.9514C34.1889 35.7985 34.1952 35.5565 34.3467 35.41L35.1423 34.6553C35.1423 34.6553 35.1644 34.6362 35.1771 34.6267C35.3507 34.4961 35.3854 34.2477 35.256 34.0726C35.1297 33.9006 34.8929 33.8624 34.7224 33.9802L33.9457 34.719C33.791 34.8623 33.5543 34.8559 33.409 34.7031C33.267 34.5502 33.2733 34.3082 33.4248 34.1617L34.2204 33.407C34.2204 33.407 34.2425 33.3879 34.2552 33.3784C34.5014 33.1937 34.8045 33.1172 35.1076 33.1618C35.4107 33.2064 35.6791 33.3688 35.8622 33.6172C36.0453 33.8656 36.1211 34.1713 36.0769 34.477C36.0327 34.7763 35.8811 35.0406 35.6443 35.2253L34.8613 35.9673C34.7887 36.0374 34.694 36.0724 34.6024 36.0724H34.6056Z" fill="white"/>
<path d="M26.9078 34.6862C26.731 34.6862 26.5605 34.6448 26.3994 34.562C25.6859 34.1894 24.9692 33.9633 24.2083 33.8678C23.6053 33.7946 23.1728 33.2564 23.2233 32.645C23.277 32.0272 23.8263 31.5527 24.4451 31.6132C25.4775 31.7151 26.5226 32.0622 27.4634 32.6195C27.836 32.8392 28.0444 33.2596 28.0002 33.6927C27.9433 34.2595 27.4729 34.6862 26.9046 34.6862H26.9078ZM24.3378 32.3743C24.1515 32.3743 23.9937 32.524 23.9779 32.7118C23.9621 32.9093 24.101 33.0844 24.2999 33.1099C25.1523 33.215 25.9511 33.4666 26.7467 33.8805C26.9362 33.9793 27.2203 33.8869 27.2487 33.613C27.2614 33.4793 27.1982 33.3487 27.0814 33.2787C26.2353 32.7755 25.2976 32.4635 24.3725 32.3743C24.3599 32.3743 24.3472 32.3743 24.3378 32.3743Z" fill="white"/>
<path d="M28.2815 34.7437C28.2088 34.7437 28.1362 34.7214 28.0731 34.68C27.5932 34.3584 27.429 34.2947 27.4227 34.2947C27.2206 34.2406 27.1101 34.0336 27.1638 33.8298C27.2175 33.626 27.4353 33.5082 27.6374 33.5623C27.7069 33.5814 27.9279 33.6642 28.493 34.0463C28.6667 34.1642 28.714 34.3998 28.5972 34.575C28.5246 34.6864 28.4046 34.7437 28.2815 34.7437Z" fill="white"/>
</g>
</g>
<defs>
<filter id="filter0_d_225_4461" x="7.5" y="-0.5" width="49" height="66" filterUnits="userSpaceOnUse" color-interpolation-filters="sRGB">
<feFlood flood-opacity="0" result="BackgroundImageFix"/>
<feColorMatrix in="SourceAlpha" type="matrix" values="0 0 0 0 0 0 0 0 0 0 0 0 0 0 0 0 0 0 127 0" result="hardAlpha"/>
<feOffset/>
<feGaussianBlur stdDeviation="4.75"/>
<feComposite in2="hardAlpha" operator="out"/>
<feColorMatrix type="matrix" values="0 0 0 0 0 0 0 0 0 0.814378 0 0 0 0 0.773659 0 0 0 1 0"/>
<feBlend mode="normal" in2="BackgroundImageFix" result="effect1_dropShadow_225_4461"/>
<feBlend mode="normal" in="SourceGraphic" in2="effect1_dropShadow_225_4461" result="shape"/>
</filter>
<clipPath id="clip0_225_4461">
<rect width="64" height="64" fill="white"/>
</clipPath>
</defs>
</svg>
