<svg width="34" height="34" viewBox="0 0 34 34" fill="none" xmlns="http://www.w3.org/2000/svg">
<path d="M16.2008 6.59968C16.0948 6.59824 15.9896 6.61787 15.8913 6.65743C15.793 6.69699 15.7035 6.75569 15.628 6.83012C15.5526 6.90455 15.4927 6.99323 15.4518 7.091C15.4109 7.18878 15.3898 7.2937 15.3898 7.39968H12.2008C11.8104 7.39968 11.4023 7.65488 11.4023 8.19968C11.4023 8.98528 13.0008 9.69808 13.0008 11.3997C13.0008 13.7725 9.80078 15.3773 9.80078 17.7997V24.9997C9.80078 25.8837 10.5168 26.5997 11.4008 26.5997H22.6008C23.4848 26.5997 24.2008 25.8837 24.2008 24.9997V17.7997C24.2008 15.4157 21.0008 13.7909 21.0008 11.3997V8.99968H21.8008C23.1356 8.99968 24.2008 10.0649 24.2008 11.3997C24.2008 11.972 24.0047 12.4881 23.6742 12.8997C23.6084 12.9816 23.5593 13.0756 23.5297 13.1764C23.5002 13.2773 23.4908 13.383 23.5022 13.4874C23.5135 13.5919 23.5453 13.6931 23.5957 13.7853C23.6461 13.8775 23.7142 13.9588 23.7961 14.0247C23.878 14.0905 23.972 14.1396 24.0729 14.1692C24.1737 14.1987 24.2794 14.2081 24.3838 14.1967C24.4883 14.1854 24.5895 14.1536 24.6817 14.1032C24.7739 14.0528 24.8552 13.9847 24.9211 13.9028C25.4706 13.2184 25.8008 12.3426 25.8008 11.3997C25.8008 9.20007 24.0004 7.39968 21.8008 7.39968H20.2008H19.4008H18.6117C18.6117 7.2937 18.5907 7.18878 18.5498 7.091C18.5089 6.99323 18.449 6.90455 18.3735 6.83012C18.2981 6.75569 18.2086 6.69699 18.1103 6.65743C18.012 6.61787 17.9068 6.59824 17.8008 6.59968H16.2008ZM13.8523 8.99968H18.6008C19.0424 8.99968 19.4008 9.35808 19.4008 9.79968V11.3997C19.4008 12.4085 19.7883 13.3094 20.1195 13.8966C20.2979 14.211 20.06 14.5997 19.6992 14.5997H16.3477C15.8421 14.5997 15.3601 14.837 15.0633 15.2466C14.1193 16.5482 13.0289 17.6719 13.0289 18.8903V21.7856C13.0289 22.2352 12.6636 22.5981 12.2148 22.5981C11.7652 22.5989 11.4008 22.2344 11.4008 21.7856V17.7997C11.4008 17.1429 12.0137 16.3757 12.6633 15.5637C13.5713 14.4277 14.6008 13.1413 14.6008 11.3997C14.6008 10.3829 14.2459 9.59648 13.8523 8.99968Z" fill="#185D66"/>
</svg>
