<svg width="30" height="30" viewBox="0 0 30 30" fill="none" xmlns="http://www.w3.org/2000/svg">
<path d="M15.0005 5C11.6865 5 9.00047 7.686 9.00047 11V12C9.00047 15.314 11.6865 18 15.0005 18C18.3145 18 21.0005 15.314 21.0005 12V11C21.0005 7.686 18.3145 5 15.0005 5ZM11.0981 19.5527C8.16313 20.3197 5.39452 21.7638 4.37352 23.0918C3.45952 24.2798 4.3296 26 5.8286 26H24.1704C25.6694 26 26.5395 24.2788 25.6255 23.0898C24.6045 21.7618 21.8368 20.3197 18.9028 19.5527C17.8528 20.4537 16.4915 21 15.0005 21C13.5085 21 12.1481 20.4527 11.0981 19.5527Z" fill="#185D66"/>
</svg>
