<svg width="30" height="30" viewBox="0 0 30 30" fill="none" xmlns="http://www.w3.org/2000/svg">
<path d="M0 15C0 12.7909 1.79086 11 4 11C6.20914 11 8 12.7909 8 15C8 17.2091 6.20914 19 4 19C1.79086 19 0 17.2091 0 15Z" fill="#185D66"/>
<path d="M11 15C11 12.7909 12.7909 11 15 11C17.2091 11 19 12.7909 19 15C19 17.2091 17.2091 19 15 19C12.7909 19 11 17.2091 11 15Z" fill="#185D66"/>
<path d="M22 15C22 12.7909 23.7909 11 26 11C28.2091 11 30 12.7909 30 15C30 17.2091 28.2091 19 26 19C23.7909 19 22 17.2091 22 15Z" fill="#185D66"/>
</svg>
