<svg width="50" height="50" viewBox="0 0 50 50" fill="none" xmlns="http://www.w3.org/2000/svg">
<path d="M24.4697 22.6211C24.481 22.6215 24.4917 22.6217 24.501 22.6221C24.5104 22.6217 24.5208 22.6215 24.5322 22.6211C24.5843 22.6193 24.6574 22.6177 24.749 22.6172C24.9325 22.6161 25.1918 22.6203 25.5068 22.6396C26.1344 22.6783 26.9981 22.7785 27.9375 23.0293C29.8019 23.5271 32.1017 24.659 33.3037 27.2139H33.3027C33.7613 28.185 33.9999 29.2392 34 30.3076C34 31.3756 33.7609 32.4296 33.3027 33.4004L33.3037 33.4014C32.1019 35.9639 29.8023 37.0965 27.9365 37.5928C26.9967 37.8427 26.1326 37.9411 25.5049 37.9785C25.1898 37.9973 24.9306 38.0015 24.7471 38C24.6555 37.9993 24.5824 37.997 24.5303 37.9951C24.519 37.9947 24.5083 37.9936 24.499 37.9932C24.4896 37.9935 24.4792 37.9947 24.4678 37.9951C24.4156 37.9969 24.3419 37.9985 24.25 37.999C24.0664 38.0001 23.8071 37.9959 23.4922 37.9766C22.8645 37.9379 22.0008 37.8376 21.0615 37.5869C19.1967 37.0891 16.8964 35.9569 15.6963 33.4014L15.6973 33.4004C15.2391 32.4296 15 31.3756 15 30.3076C15.0001 29.2389 15.2384 28.1842 15.6973 27.2129C16.8975 24.6515 19.197 23.5195 21.0625 23.0234C22.0022 22.7736 22.8662 22.6741 23.4941 22.6367C23.8094 22.6179 24.0693 22.6147 24.2529 22.6162C24.3445 22.6169 24.4176 22.6192 24.4697 22.6211ZM24.2363 24.6162C24.0921 24.6151 23.8782 24.618 23.6133 24.6338C23.0805 24.6655 22.3544 24.7491 21.5762 24.9561C20.0053 25.3737 18.3558 26.2498 17.5068 28.0635L17.5059 28.0664C17.1719 28.7733 17.0001 29.5371 17 30.3076C17 30.9818 17.1312 31.6511 17.3877 32.2812L17.5059 32.5488L17.5068 32.5518C18.3555 34.3586 20.0049 35.2346 21.5771 35.6543C22.3559 35.8622 23.0822 35.9477 23.6152 35.9805C23.8805 35.9968 24.0949 35.9999 24.2393 35.999C24.3111 35.9986 24.3659 35.9973 24.4004 35.9961C24.4174 35.9955 24.4296 35.9954 24.4365 35.9951C24.4387 35.995 24.4403 35.9942 24.4414 35.9941C24.4811 35.9918 24.5209 35.9917 24.5605 35.9941C24.5616 35.9942 24.5637 35.995 24.5664 35.9951C24.5734 35.9955 24.5855 35.9955 24.6025 35.9961C24.637 35.9973 24.6917 35.9994 24.7637 36C24.9077 36.0011 25.1212 35.9982 25.3857 35.9824C25.9182 35.9507 26.6447 35.8662 27.4229 35.6592C28.993 35.2415 30.6424 34.366 31.4932 32.5518L31.4941 32.5488C31.828 31.842 32 31.0782 32 30.3076C31.9999 29.5371 31.8281 28.7733 31.4941 28.0664L31.4932 28.0654C30.6427 26.2579 28.9934 25.3816 27.4219 24.9619C26.6433 24.754 25.9165 24.6685 25.3838 24.6357C25.1189 24.6194 24.9049 24.6164 24.7607 24.6172C24.6892 24.6176 24.635 24.619 24.6006 24.6201C24.5834 24.6207 24.5704 24.6208 24.5635 24.6211H24.4336C24.4266 24.6208 24.4144 24.6207 24.3975 24.6201C24.363 24.6189 24.3083 24.6168 24.2363 24.6162ZM24.5264 12C27.3907 12 29.8027 14.2169 29.8027 17.0596C29.8027 19.9022 27.3907 22.1191 24.5264 22.1191C21.6622 22.119 19.25 19.9021 19.25 17.0596C19.25 14.217 21.6622 12.0001 24.5264 12ZM24.5264 14C22.6675 14.0001 21.25 15.4183 21.25 17.0596C21.25 18.7009 22.6675 20.119 24.5264 20.1191C26.3853 20.1191 27.8027 18.7009 27.8027 17.0596C27.8027 15.4182 26.3854 14 24.5264 14Z" fill="#185D66"/>
</svg>
