<svg width="50" height="50" viewBox="0 0 50 50" fill="none" xmlns="http://www.w3.org/2000/svg">
<path d="M8.61937 29.2005C9.09187 23.1861 16.801 23.5494 17.3596 29.4231L32.1415 29.8326C31.7887 23.0517 41.4487 23.2302 40.5415 30.0405C42.2215 30.6201 42.7402 28.7385 42.6604 27.4113C42.652 27.2832 41.7679 25.2987 41.6356 25.0614C41.4508 24.7338 40.8775 23.9211 40.5415 24.2655C41.4193 24.8409 42.0052 26.8569 40.342 25.725C39.7792 25.3428 38.5969 23.8413 39.6994 23.7384V23.5347C37.507 22.8375 35.2285 22.4133 32.9206 22.4385C31.3939 21.3654 29.9638 18.9042 28.1137 18.4254C27.2002 18.1881 24.928 18.1083 23.8549 18.0642C20.8141 17.9382 16.0723 17.7744 13.1365 18.0726C11.4502 18.2448 12.1306 18.6606 11.5699 19.446C10.8832 20.4078 9.19477 21.8988 8.72227 22.8984C8.24977 23.898 8.02507 24.9648 7.51897 26.103C7.19137 26.8401 7.42867 29.4399 8.61937 29.2026V29.2005ZM20.3794 18.9105L27.3808 19.1541L30.4594 22.8984L20.3794 22.4805V18.9105ZM13.7644 18.9105H19.1194V22.4805L11.9794 22.0584C11.8261 21.924 13.4851 18.9903 13.7644 18.9105ZM9.87727 22.2705C9.86887 23.2365 9.72397 24.3516 8.93437 24.9963C7.95367 24.5532 9.42997 21.7602 9.87727 22.2705ZM21.9208 23.3541C23.4853 23.8392 20.5432 25.179 19.7515 23.8413C19.5898 23.1462 21.5323 23.2323 21.9208 23.3541Z" fill="#185D66"/>
<path d="M36.814 25.8909C32.446 25.1916 31.7467 32.2854 36.6628 31.9431C40.1824 31.6974 40.2307 26.4369 36.814 25.8909ZM34.9366 30.3933C33.8866 29.4336 34.3549 27.2433 36.0244 27.0921C40.1026 26.7225 37.7128 32.9322 34.9366 30.3933Z" fill="#185D66"/>
<path d="M13.294 25.8909C8.92597 25.1916 8.22667 32.2854 13.1428 31.9431C16.6624 31.6974 16.7107 26.4369 13.294 25.8909ZM11.4166 30.3933C10.3666 29.4336 10.8349 27.2433 12.5044 27.0921C16.5826 26.7225 14.1928 32.9322 11.4166 30.3933Z" fill="#185D66"/>
<path d="M17.0215 29.8326L19.006 30.2589L32.3494 30.4584C32.3977 30.093 31.8727 30.261 31.6186 30.2505C26.7676 30.051 21.8914 29.9628 17.0215 29.8326Z" fill="#185D66"/>
</svg>
