<svg width="50" height="50" viewBox="0 0 50 50" fill="none" xmlns="http://www.w3.org/2000/svg">
<path d="M34 14H16C14.895 14 14 14.895 14 16V34C14 35.105 14.895 36 16 36H34C35.105 36 36 35.105 36 34V16C36 14.895 35.105 14 34 14ZM34 33C34 33.553 33.552 34 33 34H17C16.448 34 16 33.553 16 33V17C16 16.447 16.448 16 17 16H21.004C21.22 16 21.431 16.07 21.605 16.2L26.4 19.801L25.199 21.401L20.67 18H18V32H23V27H21V25H27V27H25V32H32V27H30V25H32V18H29V16H33C33.552 16 34 16.447 34 17V33Z" fill="#185D66"/>
</svg>
