<svg width="50" height="50" viewBox="0 0 50 50" fill="none" xmlns="http://www.w3.org/2000/svg">
<path d="M15 14C14.448 14 14 14.448 14 15V19C14 19.552 14.448 20 15 20H19C19.552 20 20 19.552 20 19V15C20 14.448 19.552 14 19 14H15ZM23 16C22.8675 15.9981 22.7359 16.0226 22.613 16.072C22.49 16.1214 22.3781 16.1948 22.2837 16.2878C22.1893 16.3809 22.1144 16.4918 22.0632 16.614C22.0121 16.7363 21.9858 16.8675 21.9858 17C21.9858 17.1325 22.0121 17.2637 22.0632 17.386C22.1144 17.5082 22.1893 17.6191 22.2837 17.7122C22.3781 17.8052 22.49 17.8786 22.613 17.928C22.7359 17.9774 22.8675 18.0019 23 18H35C35.1325 18.0019 35.2641 17.9774 35.387 17.928C35.51 17.8786 35.6219 17.8052 35.7163 17.7122C35.8107 17.6191 35.8856 17.5082 35.9368 17.386C35.9879 17.2637 36.0142 17.1325 36.0142 17C36.0142 16.8675 35.9879 16.7363 35.9368 16.614C35.8856 16.4918 35.8107 16.3809 35.7163 16.2878C35.6219 16.1948 35.51 16.1214 35.387 16.072C35.2641 16.0226 35.1325 15.9981 35 16H23ZM15 22C14.448 22 14 22.448 14 23V27C14 27.552 14.448 28 15 28H19C19.552 28 20 27.552 20 27V23C20 22.448 19.552 22 19 22H15ZM23 24C22.8675 23.9981 22.7359 24.0226 22.613 24.072C22.49 24.1214 22.3781 24.1948 22.2837 24.2878C22.1893 24.3809 22.1144 24.4918 22.0632 24.614C22.0121 24.7363 21.9858 24.8675 21.9858 25C21.9858 25.1325 22.0121 25.2637 22.0632 25.386C22.1144 25.5082 22.1893 25.6191 22.2837 25.7122C22.3781 25.8052 22.49 25.8786 22.613 25.928C22.7359 25.9774 22.8675 26.0019 23 26H35C35.1325 26.0019 35.2641 25.9774 35.387 25.928C35.51 25.8786 35.6219 25.8052 35.7163 25.7122C35.8107 25.6191 35.8856 25.5082 35.9368 25.386C35.9879 25.2637 36.0142 25.1325 36.0142 25C36.0142 24.8675 35.9879 24.7363 35.9368 24.614C35.8856 24.4918 35.8107 24.3809 35.7163 24.2878C35.6219 24.1948 35.51 24.1214 35.387 24.072C35.2641 24.0226 35.1325 23.9981 35 24H23ZM15 30C14.448 30 14 30.448 14 31V35C14 35.552 14.448 36 15 36H19C19.552 36 20 35.552 20 35V31C20 30.448 19.552 30 19 30H15ZM15.75 31.75H18.25V34.25H15.75V31.75ZM23 32C22.8675 31.9981 22.7359 32.0226 22.613 32.072C22.49 32.1214 22.3781 32.1948 22.2837 32.2878C22.1893 32.3809 22.1144 32.4918 22.0632 32.614C22.0121 32.7363 21.9858 32.8675 21.9858 33C21.9858 33.1325 22.0121 33.2637 22.0632 33.386C22.1144 33.5082 22.1893 33.6191 22.2837 33.7122C22.3781 33.8052 22.49 33.8786 22.613 33.928C22.7359 33.9774 22.8675 34.0019 23 34H35C35.1325 34.0019 35.2641 33.9774 35.387 33.928C35.51 33.8786 35.6219 33.8052 35.7163 33.7122C35.8107 33.6191 35.8856 33.5082 35.9368 33.386C35.9879 33.2637 36.0142 33.1325 36.0142 33C36.0142 32.8675 35.9879 32.7363 35.9368 32.614C35.8856 32.4918 35.8107 32.3809 35.7163 32.2878C35.6219 32.1948 35.51 32.1214 35.387 32.072C35.2641 32.0226 35.1325 31.9981 35 32H23Z" fill="#185D66"/>
</svg>
