<svg width="50" height="50" viewBox="0 0 50 50" fill="none" xmlns="http://www.w3.org/2000/svg">
<path d="M23.3333 3.33414C23.1126 3.33114 22.8934 3.37204 22.6886 3.45445C22.4837 3.53686 22.2973 3.65915 22.1401 3.81421C21.9829 3.96927 21.8581 4.15402 21.7729 4.35772C21.6877 4.56142 21.6439 4.78001 21.6439 5.0008H15C14.1867 5.0008 13.3366 5.53247 13.3366 6.66747C13.3366 8.30414 16.6667 9.78914 16.6667 13.3341C16.6667 18.2775 10 21.6208 10 26.6675V41.6675C10 43.5091 11.4917 45.0008 13.3333 45.0008H36.6667C38.5083 45.0008 40 43.5091 40 41.6675V26.6675C40 21.7008 33.3333 18.3158 33.3333 13.3341V8.33414H35C37.7808 8.33414 40 10.5533 40 13.3341C40 14.5265 39.5915 15.6017 38.903 16.4591C38.7658 16.6297 38.6635 16.8256 38.602 17.0357C38.5405 17.2458 38.521 17.466 38.5445 17.6836C38.5681 17.9012 38.6343 18.1121 38.7394 18.3041C38.8445 18.4962 38.9863 18.6657 39.1569 18.8029C39.3275 18.9401 39.5234 19.0424 39.7335 19.1039C39.9436 19.1654 40.1637 19.1849 40.3814 19.1613C40.599 19.1378 40.8099 19.0716 41.0019 18.9665C41.194 18.8614 41.3634 18.7195 41.5007 18.549C42.6455 17.1231 43.3333 15.2985 43.3333 13.3341C43.3333 8.75161 39.5825 5.0008 35 5.0008H31.6667H30H28.3561C28.3561 4.78001 28.3122 4.56142 28.2271 4.35772C28.1419 4.15402 28.0171 3.96927 27.8599 3.81421C27.7027 3.65915 27.5163 3.53686 27.3114 3.45445C27.1066 3.37204 26.8874 3.33114 26.6667 3.33414H23.3333ZM18.4408 8.33414H28.3333C29.2533 8.33414 30 9.0808 30 10.0008V13.3341C30 15.4358 30.8074 17.3126 31.4974 18.536C31.8691 19.191 31.3734 20.0008 30.6217 20.0008H23.6393C22.586 20.0008 21.5819 20.4951 20.9635 21.3485C18.9969 24.0601 16.7253 26.4013 16.7253 28.9396V34.9715C16.7253 35.9082 15.9643 36.6642 15.0293 36.6642C14.0926 36.6659 13.3333 35.9065 13.3333 34.9715V26.6675C13.3333 25.2991 14.6102 23.7009 15.9635 22.0093C17.8552 19.6426 20 16.9625 20 13.3341C20 11.2158 19.2608 9.57747 18.4408 8.33414Z" fill="#D71920"/>
</svg>
