<svg width="24" height="24" viewBox="0 0 24 24" fill="none" xmlns="http://www.w3.org/2000/svg">
<path d="M11.6625 2.3989C11.3617 2.3885 11.0721 2.5527 10.9281 2.8239C10.4313 3.7623 9.98161 4.67822 9.53281 5.59422C9.15761 6.35982 8.78289 7.12675 8.37969 7.90515C7.37889 7.95235 6.31562 8.13075 5.28282 8.30515C4.21402 8.48515 3.204 8.65359 2.4 8.65359C2.144 8.65359 1.90197 8.77764 1.75157 8.98484C1.60117 9.19284 1.55987 9.46039 1.63907 9.70359C1.93587 10.61 3.145 11.768 3.725 12.1864C4.3434 12.6328 5.23404 13.1547 5.94844 13.5739C6.20044 13.7227 6.49105 13.8919 6.70625 14.0239C6.47345 15.2575 5.65127 18.8573 5.06407 20.5333C4.95447 20.8445 5.04724 21.1908 5.29844 21.4052C5.44804 21.5332 5.63392 21.5989 5.82032 21.5989C5.94912 21.5989 6.07924 21.5684 6.19844 21.5052C8.18164 20.4452 11.08 18.9268 11.8016 18.6052C12.3576 18.758 14.09 19.5294 14.9844 20.0302L17.375 21.3723C17.6366 21.5187 17.9574 21.5075 18.2078 21.3427C18.4574 21.1779 18.5929 20.8871 18.5609 20.5895C18.3481 18.6063 18.1106 16.3773 17.2234 14.3677C18.6674 12.6333 19.975 11.4864 22.0406 10.1208C22.3022 9.94878 22.4394 9.63895 22.3906 9.33015C22.3418 9.02055 22.1172 8.76808 21.8156 8.68328C19.3516 7.99128 17.2591 7.84957 14.8359 7.68797C13.9247 6.13757 13.0944 4.5203 12.3656 2.8739C12.2424 2.5947 11.9689 2.4101 11.6625 2.3989Z" fill="#FDF6EC"/>
</svg>
