<svg width="50" height="50" viewBox="0 0 50 50" fill="none" xmlns="http://www.w3.org/2000/svg">
<path d="M25 13C20.398 13 15.6113 14.0371 15.6113 14.0371L15.6074 14.041C15.1545 14.1317 14.7469 14.3764 14.4539 14.7335C14.1609 15.0906 14.0005 15.5381 14 16V22C14 32.398 24.0215 36.7441 24.0215 36.7441C24.3203 36.9119 24.6573 37 25 37C25.3414 36.9993 25.6769 36.9112 25.9746 36.7441H25.9785C25.9785 36.7441 36 32.398 36 22V16C36.0002 15.5369 35.8397 15.088 35.5459 14.73C35.252 14.372 34.843 14.1271 34.3887 14.0371C34.3887 14.0371 29.602 13 25 13ZM23.7871 17H26.2129L26.0117 26H23.9883L23.7871 17ZM25.0039 28.8105C25.8259 28.8105 26.3184 29.2528 26.3184 30.0078C26.3184 30.7488 25.8259 31.1895 25.0039 31.1895C24.1759 31.1895 23.6797 30.7488 23.6797 30.0078C23.6797 29.2528 24.1749 28.8105 25.0039 28.8105Z" fill="#185D66"/>
</svg>
