<svg width="24" height="24" viewBox="0 0 24 24" fill="none" xmlns="http://www.w3.org/2000/svg">
<path d="M13.3637 4.80078C10.6329 4.80078 8.2183 5.91472 6.47656 7.34258C4.73482 8.77044 3.59961 10.4709 3.59961 12.0008V14.7969C3.59961 16.2793 4.8277 17.4008 6.26094 17.4008C6.93596 17.4008 7.46815 17.2178 7.8957 17.0656C8.32326 16.9135 8.64087 16.8008 9.00078 16.8008C9.52796 16.8008 10.2209 17.2854 11.1723 17.9035C12.1236 18.5216 13.3538 19.2008 15.0055 19.2008C17.9898 19.2008 20.3984 16.726 20.3984 13.6941V10.843C20.3993 10.8289 20.3997 10.8149 20.3996 10.8008C20.3996 10.4538 20.3098 10.013 20.0996 9.41914C19.8894 8.82531 19.5528 8.12168 19.032 7.4375C17.9905 6.06914 16.1687 4.80078 13.3637 4.80078ZM13.3637 6.00078C15.8188 6.00078 17.2154 7.03222 18.077 8.16406C18.5077 8.72998 18.7929 9.32632 18.9676 9.81992C19.1416 10.3117 19.198 10.742 19.1984 10.7973V10.8008V11.5004C19.1623 14.3648 17.608 15.6008 15.0055 15.6008C12.0241 15.6008 10.6406 13.2008 9.00078 13.2008C8.03238 13.2008 7.40034 13.8008 6.26094 13.8008C5.15634 13.8008 4.79961 12.6738 4.79961 12.2352V12.0008C4.79961 11.1474 5.6802 9.54704 7.23711 8.2707C8.79402 6.99437 10.9615 6.00078 13.3637 6.00078ZM13.1996 7.20078C12.3812 7.20078 11.5654 7.38205 10.7902 7.67305C10.5448 7.76485 10.5218 8.10546 10.7516 8.23086L11.5848 8.68555C11.6916 8.74375 11.7709 8.84159 11.8039 8.95859L12.1402 10.1551C12.1858 10.3171 12.303 10.4489 12.4578 10.5137L13.0566 10.7645C13.329 10.8785 13.6432 10.7573 13.768 10.4891L14.9621 7.92734C15.0533 7.73174 14.9547 7.49341 14.7477 7.43281C14.2185 7.27921 13.6862 7.20078 13.1996 7.20078ZM16.1703 8.09727C16.015 8.07117 15.8528 8.14421 15.7813 8.29766L14.6211 10.7879C14.4867 11.0759 14.6189 11.4178 14.9117 11.5402L17.1289 12.4684C17.4079 12.5854 17.7367 12.4441 17.8273 12.1555C17.9353 11.8123 17.9904 11.4449 17.9844 11.0633C17.9844 9.77208 17.2761 8.80203 16.3191 8.15703C16.2723 8.12538 16.2221 8.10597 16.1703 8.09727ZM9.22813 8.53906C9.0989 8.54206 8.97088 8.57839 8.85898 8.65039C7.16998 9.73879 5.98438 11.1437 5.98438 11.7629C5.98378 12.1871 6.32623 12.6008 6.74023 12.6008C7.76683 12.6008 8.35292 12.0008 8.99492 12.0008C9.98612 12.0008 10.7444 12.3505 11.4266 12.7801C11.648 12.9199 11.9239 12.7128 11.8531 12.4602L11.0551 9.6207C11.0125 9.4689 10.9095 9.3418 10.7715 9.2668L9.6043 8.63047C9.4873 8.56687 9.35735 8.53606 9.22813 8.53906ZM12.9547 11.7523C12.7806 11.785 12.6483 11.9622 12.7027 12.1566L13.2031 13.9367C13.6723 14.1839 14.1726 14.3551 14.7594 14.3551C15.4506 14.3551 16.0544 14.168 16.5488 13.85C16.808 13.6832 16.7817 13.2973 16.4973 13.1785L13.1375 11.7723C13.0754 11.7463 13.0127 11.7415 12.9547 11.7523Z" fill="#185D66"/>
</svg>
