<svg width="30" height="30" viewBox="0 0 30 30" fill="none" xmlns="http://www.w3.org/2000/svg">
<g clip-path="url(#clip0_2042_4499)">
<g clip-path="url(#clip1_2042_4499)">
<path d="M15 0.644531C15.6388 0.644531 16.2143 1.02498 16.4668 1.6123L19.8906 9.62598L28.5488 10.4121C29.1863 10.4696 29.7255 10.9013 29.9219 11.5088C30.1193 12.1173 29.9353 12.782 29.4541 13.2031L22.9092 18.9424L24.8389 27.4443C24.98 28.068 24.7376 28.7138 24.2188 29.0898C23.7014 29.4649 23.0131 29.4954 22.4668 29.167L15 24.7031L7.53125 29.167C7.27883 29.318 6.99741 29.3945 6.71387 29.3945L6.59082 29.3896C6.34514 29.3705 6.1042 29.2936 5.88672 29.1611L5.78027 29.0898C5.26166 28.715 5.01901 28.0694 5.16016 27.4443L7.08984 18.9424L0.544922 13.2021C0.0636655 12.7822 -0.119291 12.1162 0.078125 11.5088C0.275655 10.9013 0.813887 10.4709 1.4502 10.4121L10.1104 9.62598L13.5342 1.61328C13.7867 1.02475 14.3613 0.644592 15 0.644531ZM11.9492 10.4121L11.4795 11.5098L10.291 11.6182L2.56934 12.3184L8.4082 17.4385L9.30371 18.2236L9.04004 19.3857L7.31934 26.9629L13.9736 22.9863L15 22.373L16.0264 22.9863L22.6787 26.9629L20.959 19.3857L20.6953 18.2236L21.5908 17.4385L27.4297 12.3184L19.71 11.6182L18.5205 11.5098L18.0508 10.4121L15 3.27148L11.9492 10.4121ZM28.4062 11.998L28.4043 11.999L28.0186 12.123C28.0189 12.124 28.0192 12.125 28.0195 12.126L28.4062 12L29.9219 11.5088L28.4062 11.998Z" fill="#FF9F5F"/>
</g>
</g>
<defs>
<clipPath id="clip0_2042_4499">
<rect width="30" height="30" fill="white"/>
</clipPath>
<clipPath id="clip1_2042_4499">
<rect width="30" height="30" fill="white"/>
</clipPath>
</defs>
</svg>
