<svg width="34" height="34" viewBox="0 0 34 34" fill="none" xmlns="http://www.w3.org/2000/svg">
<path d="M17 4.25C24.0416 4.25 29.75 9.95837 29.75 17C29.75 24.0416 24.0416 29.75 17 29.75C9.95837 29.75 4.25 24.0416 4.25 17C4.25 9.95837 9.95837 4.25 17 4.25ZM17 9.0625C16.7239 9.0625 16.5 9.28636 16.5 9.5625V17C16.5 17.2761 16.7239 17.5 17 17.5H24.4375C24.7136 17.5 24.9375 17.2761 24.9375 17C24.9375 16.7239 24.7136 16.5 24.4375 16.5H17.5V9.5625C17.5 9.28636 17.2761 9.0625 17 9.0625Z" fill="white"/>
</svg>
