<svg width="12" height="12" viewBox="0 0 12 12" fill="none" xmlns="http://www.w3.org/2000/svg">
<path d="M3.1998 1.59961C3.09372 1.59961 2.99198 1.64175 2.91696 1.71677C2.84195 1.79178 2.7998 1.89352 2.7998 1.99961C2.79988 2.05406 2.81108 2.10793 2.83271 2.1579C2.85434 2.20787 2.88594 2.2529 2.92559 2.29023C2.938 2.30146 4.5733 3.78955 4.77871 8.91992C4.79246 9.26325 4.7998 9.62303 4.7998 9.99961C4.8038 10.1296 4.7998 10.2628 4.7998 10.3996H6.7998V9.99961C6.7998 3.58064 3.83017 1.87534 3.43496 1.67617C3.36663 1.62645 3.28431 1.59965 3.1998 1.59961ZM8.3998 2.79961C8.32862 2.79977 8.25877 2.81891 8.19746 2.85508C8.08075 2.9003 7.31602 3.21985 6.5209 4.18789C6.7941 4.79509 7.0384 5.50631 7.2248 6.33711C7.7784 4.23511 8.67637 3.48867 8.67637 3.48867C8.7154 3.45132 8.74645 3.40645 8.76767 3.35677C8.78888 3.30709 8.79982 3.25363 8.7998 3.19961C8.7998 3.09352 8.75766 2.99178 8.68265 2.91677C8.60763 2.84175 8.50589 2.79961 8.3998 2.79961ZM1.1998 4.39961C1.09372 4.39961 0.991977 4.44175 0.916962 4.51677C0.841947 4.59178 0.799805 4.69352 0.799805 4.79961C0.799895 4.85369 0.81095 4.90718 0.8323 4.95687C0.853651 5.00655 0.884854 5.05139 0.924023 5.08867C1.69354 6.17496 1.9998 6.89769 1.9998 9.99961C2.0038 10.1296 1.9998 10.2628 1.9998 10.3996H3.9998V9.99961C3.9998 6.07953 1.84663 4.70614 1.44199 4.48164C1.37241 4.42854 1.28733 4.39972 1.1998 4.39961ZM10.3998 4.39961C10.3125 4.39989 10.2278 4.4287 10.1584 4.48164C9.75517 4.7047 7.5998 6.07739 7.5998 9.99961V10.3996H9.5998C9.5998 10.2628 9.5958 10.1296 9.5998 9.99961C9.5998 6.89681 9.90675 6.17507 10.6771 5.08867L10.6764 5.08789C10.7153 5.05063 10.7463 5.00589 10.7675 4.95635C10.7887 4.90681 10.7997 4.8535 10.7998 4.79961C10.7998 4.69352 10.7577 4.59178 10.6826 4.51677C10.6076 4.44175 10.5059 4.39961 10.3998 4.39961Z" fill="white"/>
</svg>
