<svg width="83" height="83" viewBox="0 0 83 83" fill="none" xmlns="http://www.w3.org/2000/svg">
<path d="M40.4883 13.5C44.3576 13.5002 48.7138 15.382 51.3682 18.002C56.4776 23.0457 57.7309 31.1225 53.9795 37.3887C53.7049 37.8472 52.9279 38.9414 52.0654 39.9619C51.6327 40.4739 51.1681 40.9793 50.7256 41.3818C50.5729 41.5207 50.4139 41.6553 50.2529 41.7764C51.3881 42.1565 52.6259 42.7601 53.8027 43.4365C55.2973 44.2956 56.7307 45.2873 57.791 46.127C57.9448 46.2487 58.0405 46.3376 58.126 46.416C58.2067 46.49 58.2799 46.5569 58.4033 46.6523C59.0867 47.1811 59.5591 47.8637 59.6621 48.624C59.7673 49.4014 59.4737 50.1671 58.8105 50.8096C58.3211 51.2836 57.7975 51.5328 57.2441 51.5684C56.7031 51.6028 56.1962 51.429 55.7402 51.1836C55.2855 50.9387 54.8434 50.6012 54.4258 50.2637C53.995 49.9155 53.5983 49.5741 53.1846 49.2666C52.7064 48.9112 52.1655 48.5707 51.6084 48.2627C50.9486 47.8979 50.5622 47.6587 49.8926 47.3828C48.3458 46.7457 47.7647 46.4105 46.042 45.9824C40.3634 44.5716 34.735 45.2889 29.6807 47.9092L25.1973 51.0781C24.9256 51.3477 24.7519 51.5291 24.4648 51.8164C21.7623 54.5213 20.0412 57.2422 18.749 61.1816C18.2423 62.7267 17.7222 65.8474 17.71 67.6035C17.7001 69.0206 17.0259 69.9646 16.0693 70.333C15.148 70.6875 14.0591 70.4667 13.291 69.7783C12.7957 69.3343 12.6044 68.8062 12.5361 68.2695C12.4733 67.775 12.5127 67.1954 12.5127 66.709C12.5127 58.4849 17.5167 49.7614 24.1006 45.2139C24.8189 44.7177 26.1835 43.8398 27.582 43.0664C28.2813 42.6797 28.9973 42.3144 29.6494 42.0361C29.9104 41.9248 30.1704 41.8264 30.4189 41.7432C30.1421 41.5157 29.7964 41.2295 29.417 40.8779C28.5328 40.0584 27.4565 38.8817 26.5254 37.2012C25.3868 35.146 24.4697 32.5561 24.4697 29.4053V29.1982L24.4717 29.1953C24.5847 20.4707 31.7318 13.5002 40.4883 13.5ZM60.7236 50.8184C62.0186 50.8443 63.3769 51.7932 63.377 53.4678V58.0605H68.2188C68.8015 58.0607 69.3671 58.406 69.7607 58.7998C70.1544 59.1939 70.4999 59.7598 70.5 60.3428V60.9795C70.5 61.6356 70.1396 62.2096 69.6797 62.6025C69.2176 62.9971 68.5967 63.2616 67.9648 63.2617H63.377V67.7275C63.3769 68.6058 63.0551 69.305 62.54 69.7812C62.0326 70.2501 61.3662 70.4755 60.7139 70.4756C60.0615 70.4755 59.3952 70.2501 58.8877 69.7812C58.3725 69.305 58.0518 68.606 58.0518 67.7275V63.2617H53.4639C52.8319 63.2617 52.2102 62.9972 51.748 62.6025C51.288 62.2096 50.9277 61.6357 50.9277 60.9795V60.3428C50.9278 59.7597 51.2732 59.1939 51.667 58.7998C52.0607 58.4059 52.6261 58.0606 53.209 58.0605H58.0518V53.7227L58.0654 53.374C58.1317 52.5847 58.426 51.9602 58.8799 51.5205C59.3934 51.0232 60.0684 50.8054 60.7236 50.8184ZM49.0322 23.3936C45.4163 18.06 37.5574 17.221 32.9199 21.832C31.8013 22.9444 31.0263 24.079 30.5273 25.3652C30.0274 26.6542 29.795 28.1218 29.7949 29.9141C29.7949 31.0852 30.1764 32.5282 30.7803 33.8633C31.3857 35.2017 32.1826 36.3633 32.957 37.0049C35.076 38.7602 37.2319 39.9814 40.2344 39.9814C43.5452 39.9812 46.1144 38.5277 47.8008 36.8496C48.5788 36.0754 49.5457 34.7562 49.9668 33.6973C51.1514 30.7176 51.2602 28.0645 49.9883 25.1094C49.7374 24.5267 49.3852 23.9143 49.0322 23.3936Z" fill="#1A1F20"/>
</svg>
