<svg width="50" height="50" viewBox="0 0 50 50" fill="none" xmlns="http://www.w3.org/2000/svg">
<path d="M23.3073 4.97677C22.8659 4.98367 22.4452 5.16543 22.1376 5.48217C21.83 5.79891 21.6607 6.22475 21.6667 6.66622C21.6667 10.7185 22.6474 13.0678 23.5091 14.7912C24.3709 16.5146 25 17.4661 25 19.9996C24.9969 20.2204 25.0377 20.4397 25.1201 20.6446C25.2024 20.8496 25.3247 21.0361 25.4798 21.1934C25.6348 21.3507 25.8196 21.4756 26.0234 21.5608C26.2272 21.6461 26.4458 21.69 26.6667 21.69C26.8876 21.69 27.1062 21.6461 27.31 21.5608C27.5138 21.4756 27.6986 21.3507 27.8536 21.1934C28.0087 21.0361 28.131 20.8496 28.2133 20.6446C28.2957 20.4397 28.3365 20.2204 28.3334 19.9996C28.3334 16.818 27.2959 14.9103 26.4909 13.3003C25.686 11.6904 25 10.2323 25 6.66622C25.0031 6.44324 24.9614 6.22191 24.8773 6.01534C24.7933 5.80877 24.6687 5.62117 24.5109 5.46363C24.353 5.3061 24.1652 5.18184 23.9584 5.09821C23.7517 5.01458 23.5303 4.97328 23.3073 4.97677ZM15.2767 8.3101C15.0299 8.30846 14.7857 8.36167 14.562 8.46588C14.3382 8.5701 14.1403 8.72272 13.9827 8.91271C13.8251 9.10271 13.7117 9.32535 13.6506 9.56453C13.5895 9.80371 13.5824 10.0535 13.6296 10.2958C14.0726 12.7597 14.9699 14.3358 15.6022 15.6246C16.2346 16.9133 16.6667 17.9103 16.6667 19.9996C16.6636 20.2204 16.7044 20.4397 16.7867 20.6446C16.8691 20.8496 16.9914 21.0361 17.1464 21.1934C17.3015 21.3507 17.4863 21.4756 17.6901 21.5608C17.8938 21.6461 18.1125 21.69 18.3334 21.69C18.5542 21.69 18.7729 21.6461 18.9767 21.5608C19.1804 21.4756 19.3652 21.3507 19.5203 21.1934C19.6754 21.0361 19.7976 20.8496 19.88 20.6446C19.9624 20.4397 20.0032 20.2204 20 19.9996C20 17.3755 19.2976 15.584 18.597 14.1565C17.8965 12.7289 17.2628 11.6611 16.9108 9.70333C16.8464 9.31575 16.647 8.96341 16.348 8.7085C16.0491 8.45358 15.6696 8.31248 15.2767 8.3101ZM31.9434 8.3101C31.6965 8.30846 31.4524 8.36167 31.2286 8.46588C31.0048 8.5701 30.807 8.72271 30.6494 8.91271C30.4918 9.10271 30.3784 9.32535 30.3173 9.56453C30.2562 9.80371 30.249 10.0535 30.2963 10.2958C30.7393 12.7597 31.6365 14.3358 32.2689 15.6246C32.9013 16.9133 33.3334 17.9103 33.3334 19.9996C33.3302 20.2204 33.371 20.4397 33.4534 20.6446C33.5358 20.8496 33.658 21.0361 33.8131 21.1934C33.9682 21.3507 34.153 21.4756 34.3567 21.5608C34.5605 21.6461 34.7792 21.69 35 21.69C35.2209 21.69 35.4396 21.6461 35.6433 21.5608C35.8471 21.4756 36.0319 21.3507 36.187 21.1934C36.342 21.0361 36.4643 20.8496 36.5467 20.6446C36.629 20.4397 36.6698 20.2204 36.6667 19.9996C36.6667 17.3755 35.9642 15.584 35.2637 14.1565C34.5632 12.7289 33.9295 11.6611 33.5775 9.70333C33.513 9.31575 33.3137 8.96341 33.0147 8.7085C32.7157 8.45359 32.3363 8.31248 31.9434 8.3101ZM6.6667 24.9996C6.44594 24.9957 6.2266 25.0357 6.02144 25.1173C5.81628 25.1989 5.62938 25.3205 5.47159 25.475C5.3138 25.6294 5.18827 25.8137 5.10228 26.017C5.0163 26.2204 4.97158 26.4388 4.97072 26.6596C4.96985 26.8804 5.01287 27.0992 5.09726 27.3032C5.18165 27.5072 5.30574 27.6925 5.46232 27.8482C5.6189 28.0038 5.80484 28.1269 6.00936 28.2101C6.21388 28.2933 6.43289 28.335 6.65368 28.3329C6.65368 34.0193 10.2214 38.8609 15.2344 40.7775C15.0745 41.0313 14.986 41.3235 14.9783 41.6233C14.9706 41.9232 15.0439 42.2195 15.1906 42.4812C15.3372 42.7428 15.5518 42.96 15.8116 43.1099C16.0714 43.2598 16.3668 43.3369 16.6667 43.3329H33.3334C33.6337 43.3364 33.9295 43.2588 34.1893 43.108C34.4492 42.9573 34.6635 42.7392 34.8095 42.4768C34.9556 42.2143 35.028 41.9172 35.0192 41.617C35.0103 41.3167 34.9205 41.0244 34.7592 40.771C39.7624 38.8494 43.3203 34.0121 43.3203 28.3329H43.3334C43.5542 28.336 43.7735 28.2952 43.9784 28.2128C44.1834 28.1305 44.3699 28.0082 44.5272 27.8532C44.6845 27.6981 44.8094 27.5133 44.8946 27.3095C44.9799 27.1058 45.0238 26.8871 45.0238 26.6662C45.0238 26.4453 44.9799 26.2267 44.8946 26.0229C44.8094 25.8191 44.6845 25.6344 44.5272 25.4793C44.3699 25.3242 44.1834 25.2019 43.9784 25.1196C43.7735 25.0372 43.5542 24.9964 43.3334 24.9996H6.6667Z" fill="#D71920"/>
</svg>
