<svg width="24" height="24" viewBox="0 0 24 24" fill="none" xmlns="http://www.w3.org/2000/svg">
<path d="M10.3993 3.1993C10.2933 3.1978 10.188 3.21738 10.0897 3.25692C9.99128 3.29645 9.90174 3.35514 9.82624 3.42957C9.75075 3.50401 9.6908 3.5927 9.64988 3.69051C9.60896 3.78832 9.58789 3.89328 9.58789 3.9993C9.58789 4.10532 9.60896 4.21028 9.64988 4.30809C9.6908 4.40589 9.75075 4.49459 9.82624 4.56903C9.90174 4.64346 9.99128 4.70215 10.0897 4.74168C10.188 4.78121 10.2933 4.8008 10.3993 4.7993H13.5993C13.7053 4.8008 13.8105 4.78121 13.9089 4.74168C14.0073 4.70215 14.0968 4.64346 14.1723 4.56903C14.2478 4.49459 14.3078 4.40589 14.3487 4.30809C14.3896 4.21028 14.4107 4.10532 14.4107 3.9993C14.4107 3.89328 14.3896 3.78832 14.3487 3.69051C14.3078 3.5927 14.2478 3.50401 14.1723 3.42957C14.0968 3.35514 14.0073 3.29645 13.9089 3.25692C13.8105 3.21738 13.7053 3.1978 13.5993 3.1993H10.3993ZM11.9993 6.3993C6.99448 6.3993 2.88551 10.2285 2.43991 15.1165C2.39671 15.5885 2.76631 15.9993 3.23991 15.9993H20.7587C21.2323 15.9993 21.6019 15.5885 21.5587 15.1165C21.1131 10.2285 17.0041 6.3993 11.9993 6.3993ZM2.39928 17.5993C2.29328 17.5978 2.18802 17.6174 2.08965 17.6569C1.99128 17.6964 1.90174 17.7551 1.82624 17.8296C1.75075 17.904 1.6908 17.9927 1.64988 18.0905C1.60896 18.1883 1.58789 18.2933 1.58789 18.3993C1.58789 18.5053 1.60896 18.6103 1.64988 18.7081C1.6908 18.8059 1.75075 18.8946 1.82624 18.969C1.90174 19.0435 1.99128 19.1022 2.08965 19.1417C2.18802 19.1812 2.29328 19.2008 2.39928 19.1993H21.5993C21.7053 19.2008 21.8105 19.1812 21.9089 19.1417C22.0073 19.1022 22.0968 19.0435 22.1723 18.969C22.2478 18.8946 22.3078 18.8059 22.3487 18.7081C22.3896 18.6103 22.4107 18.5053 22.4107 18.3993C22.4107 18.2933 22.3896 18.1883 22.3487 18.0905C22.3078 17.9927 22.2478 17.904 22.1723 17.8296C22.0968 17.7551 22.0073 17.6964 21.9089 17.6569C21.8105 17.6174 21.7053 17.5978 21.5993 17.5993H2.39928Z" fill="white"/>
</svg>
