<svg width="54" height="54" viewBox="0 0 54 54" fill="none" xmlns="http://www.w3.org/2000/svg">
<path d="M36.4639 16.3809C36.971 15.8737 37.7927 15.8737 38.2998 16.3809C38.8069 16.888 38.8069 17.7097 38.2998 18.2168L29.1758 27.3398L38.3008 36.4648C38.8078 36.972 38.8079 37.7937 38.3008 38.3008C37.7937 38.8077 36.9719 38.8078 36.4648 38.3008L27.3398 29.1758L18.2168 38.3008C17.7097 38.8079 16.887 38.8079 16.3799 38.3008C15.8728 37.7937 15.873 36.972 16.3799 36.4648L25.5039 27.3398L16.3809 18.2168C15.8738 17.7097 15.8739 16.888 16.3809 16.3809C16.888 15.8738 17.7097 15.8738 18.2168 16.3809L27.3398 25.5039L36.4639 16.3809Z" fill="#0A2533"/>
</svg>
