<svg width="64" height="64" viewBox="0 0 64 64" fill="none" xmlns="http://www.w3.org/2000/svg">
<g filter="url(#filter0_d_437_5084)">
<path d="M31.6637 13.166V12.666C31.5311 12.666 31.4039 12.7187 31.3101 12.8125C31.2163 12.9062 31.1637 13.0334 31.1637 13.166H31.6637ZM37.0812 20.8466L36.6102 20.6787V20.6787L37.0812 20.8466ZM17.7476 34.2485C17.7476 34.5246 17.9714 34.7485 18.2476 34.7485C18.5237 34.7485 18.7476 34.5246 18.7476 34.2485H18.2476H17.7476ZM40.6421 26.7325L40.2213 26.4625V26.4625L40.6421 26.7325ZM38.1216 28.2937C37.8825 28.4319 37.8006 28.7377 37.9388 28.9768C38.0769 29.2159 38.3827 29.2978 38.6218 29.1596L38.3717 28.7267L38.1216 28.2937ZM38.833 37.9863C38.833 38.2625 39.0569 38.4863 39.333 38.4863C39.6091 38.4863 39.833 38.2625 39.833 37.9863H39.333H38.833ZM31.1667 37.9863C31.1667 38.2625 31.3905 38.4863 31.6667 38.4863C31.9428 38.4863 32.1667 38.2625 32.1667 37.9863H31.6667H31.1667ZM23.5003 37.9863C23.5003 38.2625 23.7242 38.4863 24.0003 38.4863C24.2765 38.4863 24.5003 38.2625 24.5003 37.9863H24.0003H23.5003ZM44.428 45.0974L43.9801 44.8751V44.8751L44.428 45.0974ZM18.9054 45.0974L19.3532 44.8751L18.9054 45.0974ZM40.7189 50.6357L40.4546 50.2112V50.2112L40.7189 50.6357ZM23.7761 26.9191L23.6387 26.4384C20.1517 27.4347 17.7476 30.6219 17.7476 34.2485H18.2476H18.7476C18.7476 31.0683 20.8557 28.2735 23.9135 27.3999L23.7761 26.9191ZM38.3717 28.7267L38.6218 29.1596C39.5363 28.6314 40.4763 27.917 41.063 27.0025L40.6421 26.7325L40.2213 26.4625C39.7587 27.1836 38.9751 27.8007 38.1216 28.2937L38.3717 28.7267ZM45.0798 34.2485H45.5798C45.5798 32.5909 45.4081 30.8414 44.72 29.3795C44.0181 27.8883 42.7884 26.72 40.7558 26.2456L40.6421 26.7325L40.5285 27.2194C42.2469 27.6205 43.2361 28.5751 43.8152 29.8054C44.4081 31.0651 44.5798 32.6357 44.5798 34.2485H45.0798ZM37.0812 20.8466L37.5522 21.0144C38.9624 17.0578 35.9364 12.666 31.6637 12.666V13.166V13.666C35.237 13.666 37.7911 17.3655 36.6102 20.6787L37.0812 20.8466ZM40.6421 26.7325L41.063 27.0025C42.9303 24.0916 40.5786 20.0445 37.0384 20.3484L37.0812 20.8466L37.124 21.3447C39.8219 21.1131 41.649 24.237 40.2213 26.4625L40.6421 26.7325ZM37.0812 20.8466L36.6102 20.6787C36.274 21.622 35.5748 22.3943 34.6085 23.0421C33.6398 23.6914 32.4286 24.1978 31.1188 24.6139C29.8113 25.0293 28.4293 25.3475 27.1264 25.6311C25.835 25.9122 24.603 26.1629 23.6387 26.4384L23.7761 26.9191L23.9135 27.3999C24.8375 27.1359 26.0212 26.8951 27.3391 26.6082C28.6455 26.3238 30.0664 25.9975 31.4216 25.567C32.7745 25.1372 34.0857 24.5964 35.1653 23.8727C36.2473 23.1474 37.1222 22.2207 37.5522 21.0144L37.0812 20.8466ZM23.7761 26.9191H24.2761C24.2761 25.0091 24.744 23.7301 25.4193 22.7569C26.1062 21.767 27.0275 21.0608 28.02 20.3161C28.9936 19.5856 30.0448 18.8123 30.8365 17.7165C31.6427 16.6008 32.1637 15.1787 32.1637 13.166H31.6637H31.1637C31.1637 14.9865 30.6987 16.1997 30.026 17.1309C29.3388 18.082 28.418 18.7673 27.4198 19.5163C26.4404 20.2511 25.3897 21.0455 24.5978 22.1868C23.7942 23.3448 23.2761 24.8275 23.2761 26.9191H23.7761ZM34.1425 51.5007V51.0007H29.1908V51.5007V52.0007H34.1425V51.5007ZM29.1908 51.5007V51.0007C27.4515 51.0007 26.1851 51.0001 25.1787 50.8953C24.1841 50.7917 23.4865 50.5896 22.8787 50.2112L22.6145 50.6357L22.3502 51.0602C23.1319 51.5468 23.9935 51.7772 25.0752 51.8899C26.1452 52.0013 27.4722 52.0007 29.1908 52.0007V51.5007ZM18.9054 45.0974L18.4575 45.3197C19.2262 46.8683 19.8189 48.0637 20.3961 48.9775C20.9794 49.9009 21.5687 50.5737 22.3502 51.0602L22.6145 50.6357L22.8787 50.2112C22.2707 49.8327 21.7788 49.2941 21.2415 48.4435C20.6981 47.5832 20.131 46.442 19.3532 44.8751L18.9054 45.0974ZM44.428 45.0974L43.9801 44.8751C43.2023 46.442 42.6352 47.5832 42.0918 48.4435C41.5545 49.2941 41.0626 49.8327 40.4546 50.2112L40.7189 50.6357L40.9831 51.0602C41.7646 50.5737 42.354 49.9009 42.9373 48.9775C43.5145 48.0637 44.1072 46.8683 44.8758 45.3197L44.428 45.0974ZM34.1425 51.5007V52.0007C35.8611 52.0007 37.1882 52.0013 38.2582 51.8899C39.3399 51.7772 40.2014 51.5468 40.9831 51.0602L40.7189 50.6357L40.4546 50.2112C39.8469 50.5896 39.1492 50.7917 38.1546 50.8953C37.1483 51.0001 35.8818 51.0007 34.1425 51.0007V51.5007ZM18.9054 45.0974L19.3532 44.8751C18.7725 43.7051 18.1541 42.6292 17.6577 41.4747C17.1696 40.3395 16.834 39.1982 16.834 37.9863H16.334H15.834C15.834 39.3857 16.2223 40.668 16.739 41.8697C17.2473 43.052 17.9147 44.226 18.4575 45.3197L18.9054 45.0974ZM46.9993 37.9863H46.4993C46.4993 39.1982 46.1638 40.3395 45.6757 41.4747C45.1792 42.6292 44.5609 43.7051 43.9801 44.8751L44.428 45.0974L44.8758 45.3197C45.4187 44.226 46.086 43.052 46.5943 41.8697C47.111 40.668 47.4993 39.3857 47.4993 37.9863H46.9993ZM24.0003 37.9863H24.5003C24.5003 36.6011 23.9617 35.5278 23.1298 34.8072C22.308 34.0955 21.2285 33.7515 20.1672 33.7515C19.1058 33.7515 18.0263 34.0955 17.2045 34.8072C16.3726 35.5278 15.834 36.6011 15.834 37.9863H16.334H16.834C16.834 36.8816 17.2537 36.0875 17.8592 35.5631C18.4748 35.0299 19.3119 34.7515 20.1672 34.7515C21.0224 34.7515 21.8595 35.0299 22.4751 35.5631C23.0806 36.0875 23.5003 36.8816 23.5003 37.9863H24.0003ZM31.6667 37.9863H32.1667C32.1667 36.6011 31.6281 35.5278 30.7961 34.8072C29.9744 34.0955 28.8949 33.7515 27.8335 33.7515C26.7721 33.7515 25.6926 34.0955 24.8708 34.8072C24.0389 35.5278 23.5003 36.6011 23.5003 37.9863H24.0003H24.5003C24.5003 36.8816 24.92 36.0875 25.5255 35.5631C26.1412 35.0299 26.9783 34.7515 27.8335 34.7515C28.6887 34.7515 29.5258 35.0299 30.1415 35.5631C30.747 36.0875 31.1667 36.8816 31.1667 37.9863H31.6667ZM39.333 37.9863H39.833C39.833 36.6011 39.2944 35.5278 38.4625 34.8072C37.6407 34.0955 36.5612 33.7515 35.4998 33.7515C34.4385 33.7515 33.359 34.0955 32.5372 34.8072C31.7052 35.5278 31.1667 36.6011 31.1667 37.9863H31.6667H32.1667C32.1667 36.8816 32.5864 36.0875 33.1919 35.5631C33.8075 35.0299 34.6446 34.7515 35.4998 34.7515C36.355 34.7515 37.1922 35.0299 37.8078 35.5631C38.4133 36.0875 38.833 36.8816 38.833 37.9863H39.333ZM46.9993 37.9863H47.4993C47.4993 36.6011 46.9608 35.5278 46.1288 34.8072C45.307 34.0955 44.2276 33.7515 43.1662 33.7515C42.1048 33.7515 41.0253 34.0955 40.2035 34.8072C39.3716 35.5278 38.833 36.6011 38.833 37.9863H39.333H39.833C39.833 36.8816 40.2527 36.0875 40.8582 35.5631C41.4739 35.0299 42.311 34.7515 43.1662 34.7515C44.0214 34.7515 44.8585 35.0299 45.4741 35.5631C46.0796 36.0875 46.4993 36.8816 46.4993 37.9863H46.9993Z" fill="white"/>
</g>
<defs>
<filter id="filter0_d_437_5084" x="6.33398" y="3.16602" width="50.666" height="58.334" filterUnits="userSpaceOnUse" color-interpolation-filters="sRGB">
<feFlood flood-opacity="0" result="BackgroundImageFix"/>
<feColorMatrix in="SourceAlpha" type="matrix" values="0 0 0 0 0 0 0 0 0 0 0 0 0 0 0 0 0 0 127 0" result="hardAlpha"/>
<feOffset/>
<feGaussianBlur stdDeviation="4.75"/>
<feComposite in2="hardAlpha" operator="out"/>
<feColorMatrix type="matrix" values="0 0 0 0 0 0 0 0 0 0.814378 0 0 0 0 0.773659 0 0 0 1 0"/>
<feBlend mode="normal" in2="BackgroundImageFix" result="effect1_dropShadow_437_5084"/>
<feBlend mode="normal" in="SourceGraphic" in2="effect1_dropShadow_437_5084" result="shape"/>
</filter>
</defs>
</svg>
