<svg width="24" height="24" viewBox="0 0 24 24" fill="none" xmlns="http://www.w3.org/2000/svg">
<path d="M15.8828 5.75C17.1323 5.75013 18.2569 6.31281 18.8135 7.28906H18.8145C19.498 8.42827 19.3195 9.896 18.4492 11.1084L18.4473 11.1113C17.7307 12.086 17.3071 13.1081 17.1943 14.1504V14.1533C16.9785 15.9421 15.9896 17.4885 14.4453 18.415L14.4434 18.416C13.549 18.9403 12.5305 19.2187 11.5107 19.2188C9.41106 19.2188 7.46521 18.0762 6.44629 16.2236V16.2227C4.99458 13.5956 5.88876 10.1705 8.42383 8.59375H8.4248C9.06821 8.19547 9.74842 7.91632 10.4941 7.79199H10.4961C11.364 7.65194 12.2437 7.2576 13.166 6.59473L13.1738 6.58984L13.4395 6.41211L13.459 6.40039C14.1978 6.00019 15.0366 5.75 15.8828 5.75ZM11.6152 10.1133C9.79889 10.1133 8.32617 11.586 8.32617 13.4023C8.32632 15.2186 9.79898 16.6904 11.6152 16.6904C13.4314 16.6903 14.9032 15.2185 14.9033 13.4023C14.9033 11.5861 13.4314 10.1134 11.6152 10.1133ZM12.0732 11.5254C13.1069 11.7913 13.757 12.8544 13.4619 13.8291C13.4324 13.9768 13.2842 14.0654 13.166 14.0654H13.1074C12.9597 14.0359 12.8708 13.8586 12.9004 13.7109C13.0774 13.0022 12.6343 12.2644 11.9258 12.0869C11.7782 12.0574 11.6894 11.88 11.7188 11.7324C11.7483 11.5847 11.9255 11.4958 12.0732 11.5254Z" fill="#185D66"/>
</svg>
