<svg width="64" height="64" viewBox="0 0 64 64" fill="none" xmlns="http://www.w3.org/2000/svg">
<g filter="url(#filter0_d_437_5036)">
<path d="M48.2 24.2491L47.7993 24.5481V24.5481L48.2 24.2491ZM24.8 33.3125V33.8127L24.8123 33.8123L24.8 33.3125ZM36.0241 37.2401L35.7239 37.64L35.7347 37.6481L35.746 37.6556L36.0241 37.2401ZM36.0241 44.4901L35.7239 44.89L35.7347 44.8981L35.746 44.9056L36.0241 44.4901ZM24.8 40.5625V41.0627L24.8123 41.0623L24.8 40.5625ZM50 29.6875H49.5C49.5 34.4197 45.6912 38.25 41 38.25V38.75V39.25C46.25 39.25 50.5 34.9655 50.5 29.6875H50ZM14 28.7812H14.5C14.5 25.7656 16.9919 22.9501 20.5539 20.8508C24.0875 18.7681 28.5008 17.5 32 17.5V17V16.5C28.2992 16.5 23.7125 17.8283 20.0461 19.9893C16.4081 22.1335 13.5 25.2087 13.5 28.7812H14ZM48.2 24.2491L47.7993 24.5481C48.8671 25.9793 49.5 27.7581 49.5 29.6875H50H50.5C50.5 27.5358 49.7934 25.5485 48.6007 23.9501L48.2 24.2491ZM32 17V17.5C39.0827 17.5 44.0897 19.5764 47.7993 24.5481L48.2 24.2491L48.6007 23.9501C44.6587 18.6668 39.3173 16.5 32 16.5V17ZM18.5 33.3125V33.8125H24.8V33.3125V32.8125H18.5V33.3125ZM41 38.75V38.25C39.2625 38.25 37.648 37.7254 36.3022 36.8246L36.0241 37.2401L35.746 37.6556C37.2508 38.6629 39.058 39.25 41 39.25V38.75ZM24.8 33.3125L24.8123 33.8123C27.0924 33.756 31.7973 34.6918 35.7239 37.64L36.0241 37.2401L36.3243 36.8403C32.2027 33.7457 27.2731 32.7513 24.7877 32.8127L24.8 33.3125ZM14 28.7812H13.5C13.5 31.5567 15.7353 33.8125 18.5 33.8125V33.3125V32.8125C16.2941 32.8125 14.5 31.0109 14.5 28.7812H14ZM50 36.9375H49.5C49.5 41.6697 45.6912 45.5 41 45.5V46V46.5C46.25 46.5 50.5 42.2155 50.5 36.9375H50ZM14 28.7812H13.5V29.6875H14H14.5V28.7812H14ZM41 46V45.5C39.2625 45.5 37.648 44.9754 36.3022 44.0746L36.0241 44.4901L35.746 44.9056C37.2508 45.9129 39.058 46.5 41 46.5V46ZM24.8 40.5625L24.8123 41.0623C27.0924 41.006 31.7973 41.9418 35.7239 44.89L36.0241 44.4901L36.3243 44.0903C32.2027 40.9957 27.2731 40.0013 24.7877 40.0627L24.8 40.5625ZM50 36.9375H50.5V29.6875H50H49.5V36.9375H50ZM14 29.6875H13.5C13.5 32.2367 13.499 34.1986 13.7021 35.7201C13.9071 37.2556 14.3283 38.4174 15.2268 39.3222L15.5816 38.9699L15.9364 38.6176C15.2534 37.9298 14.8837 37.0136 14.6933 35.5877C14.501 34.1478 14.5 32.2648 14.5 29.6875H14ZM24.8 40.5625V40.0625C22.2402 40.0625 20.371 40.0614 18.9418 39.8679C17.5274 39.6765 16.619 39.3049 15.9364 38.6176L15.5816 38.9699L15.2268 39.3222C16.1259 40.2275 17.2811 40.6522 18.8077 40.8589C20.3195 41.0636 22.2686 41.0625 24.8 41.0625V40.5625ZM43.7 29.6875H43.2C43.2 30.9162 42.2118 31.9063 41 31.9063V32.4063V32.9063C42.7706 32.9063 44.2 31.4619 44.2 29.6875H43.7ZM41 32.4063V31.9063C39.7882 31.9063 38.8 30.9162 38.8 29.6875H38.3H37.8C37.8 31.4619 39.2294 32.9063 41 32.9063V32.4063ZM38.3 29.6875H38.8C38.8 28.4589 39.7882 27.4688 41 27.4688V26.9688V26.4688C39.2294 26.4688 37.8 27.9131 37.8 29.6875H38.3ZM41 26.9688V27.4688C42.2118 27.4688 43.2 28.4589 43.2 29.6875H43.7H44.2C44.2 27.9131 42.7706 26.4688 41 26.4688V26.9688Z" fill="white"/>
</g>
<defs>
<filter id="filter0_d_437_5036" x="4" y="7" width="56" height="49" filterUnits="userSpaceOnUse" color-interpolation-filters="sRGB">
<feFlood flood-opacity="0" result="BackgroundImageFix"/>
<feColorMatrix in="SourceAlpha" type="matrix" values="0 0 0 0 0 0 0 0 0 0 0 0 0 0 0 0 0 0 127 0" result="hardAlpha"/>
<feOffset/>
<feGaussianBlur stdDeviation="4.75"/>
<feComposite in2="hardAlpha" operator="out"/>
<feColorMatrix type="matrix" values="0 0 0 0 0 0 0 0 0 0.814378 0 0 0 0 0.773659 0 0 0 1 0"/>
<feBlend mode="normal" in2="BackgroundImageFix" result="effect1_dropShadow_437_5036"/>
<feBlend mode="normal" in="SourceGraphic" in2="effect1_dropShadow_437_5036" result="shape"/>
</filter>
</defs>
</svg>
