<svg width="24" height="24" viewBox="0 0 24 24" fill="none" xmlns="http://www.w3.org/2000/svg">
<path d="M12.0004 1.59961C11.7913 1.59962 11.5905 1.68151 11.441 1.82773L2.71445 8.96523C2.70437 8.97281 2.69448 8.98063 2.68477 8.98867L2.65508 9.01367V9.01523C2.57484 9.08998 2.51083 9.18043 2.46701 9.28096C2.4232 9.38149 2.40052 9.48995 2.40039 9.59961C2.40039 9.81178 2.48468 10.0153 2.63471 10.1653C2.78473 10.3153 2.98822 10.3996 3.20039 10.3996H4.00039V19.1996C4.00039 20.0836 4.71639 20.7996 5.60039 20.7996H18.4004C19.2844 20.7996 20.0004 20.0836 20.0004 19.1996V10.3996H20.8004C21.0126 10.3996 21.216 10.3153 21.3661 10.1653C21.5161 10.0153 21.6004 9.81178 21.6004 9.59961C21.6005 9.48969 21.5779 9.38092 21.5341 9.28011C21.4903 9.1793 21.4261 9.0886 21.3457 9.01367L21.3332 9.0043C21.3157 8.98839 21.2974 8.97327 21.2785 8.95898L18.4004 6.6043V3.19961C18.4004 2.75801 18.042 2.39961 17.6004 2.39961H16.8004C16.3588 2.39961 16.0004 2.75801 16.0004 3.19961V4.6418L12.5426 1.81367C12.3952 1.67667 12.2016 1.60024 12.0004 1.59961ZM9.60039 12.7996H14.4004V19.1996H9.60039V12.7996Z" fill="#185D66"/>
</svg>
