<svg width="12" height="12" viewBox="0 0 12 12" fill="none" xmlns="http://www.w3.org/2000/svg">
<path d="M9.59242 0.797049C9.4885 0.800145 9.38987 0.843577 9.31742 0.918143C9.31742 0.918143 9.16627 1.07435 9.04242 1.32205C8.95534 1.49621 8.87312 1.73124 8.8307 2.0158C7.74824 2.09118 7.20024 2.86124 7.20024 4.00096C7.05504 6.27576 6.44111 8.64579 3.49711 9.88299C3.31991 9.95739 3.20024 10.1265 3.20024 10.3181C3.20024 10.5825 3.41827 10.802 3.68227 10.7892C7.48467 10.604 10.7995 8.4009 10.7995 3.9033C10.7995 3.01437 10.4092 2.32324 9.62914 2.08846C9.65941 1.91616 9.70875 1.77846 9.75805 1.67986C9.8342 1.52756 9.88305 1.48377 9.88305 1.48377C9.94085 1.42758 9.98033 1.35525 9.99631 1.27624C10.0123 1.19723 10.004 1.11524 9.97262 1.041C9.9412 0.966768 9.8881 0.903757 9.82025 0.860225C9.75241 0.816693 9.673 0.794673 9.59242 0.797049ZM6.80024 1.20096C6.41519 1.20096 6.08499 1.35671 5.8768 1.57361C5.66861 1.79051 5.56513 2.03755 5.4768 2.24392C5.38847 2.4503 5.31246 2.61963 5.24711 2.70174C5.18176 2.78385 5.17276 2.80096 5.03617 2.80096C4.7416 2.80096 4.32265 2.63576 3.99867 2.45252C3.67469 2.26927 3.45102 2.08924 3.45102 2.08924C3.39223 2.04195 3.32127 2.01225 3.24632 2.00356C3.17138 1.99488 3.0955 2.00756 3.02746 2.04016C2.95942 2.07275 2.90198 2.12392 2.86177 2.18776C2.82157 2.2516 2.80023 2.32551 2.80024 2.40096C2.80024 3.64178 3.13913 4.3979 3.46117 4.91424C3.62219 5.17241 3.77023 5.37139 3.86352 5.53846C3.9568 5.70552 4.00024 5.82871 4.00024 6.00096C4.00024 6.22284 3.94055 6.4466 3.8432 6.58377C3.74586 6.72094 3.63982 6.80096 3.3768 6.80096C3.10561 6.80096 3.00267 6.69589 2.91117 6.56814C2.81967 6.44039 2.79164 6.31814 2.79164 6.31814C2.77635 6.24589 2.74135 6.17928 2.69052 6.12569C2.63969 6.07211 2.57502 6.03364 2.50368 6.01455C2.43233 5.99546 2.35709 5.99649 2.2863 6.01753C2.2155 6.03858 2.15191 6.07881 2.10258 6.13377C2.10258 6.13377 1.8531 6.41774 1.63305 6.92517C1.413 7.43261 1.20024 8.18992 1.20024 9.20096C1.19949 9.25396 1.20928 9.30659 1.22904 9.35577C1.24881 9.40496 1.27815 9.44973 1.31537 9.48748C1.35259 9.52522 1.39694 9.5552 1.44584 9.57566C1.49474 9.59612 1.54723 9.60665 1.60024 9.60665C1.65325 9.60665 1.70573 9.59612 1.75463 9.57566C1.80353 9.5552 1.84788 9.52522 1.8851 9.48748C1.92232 9.44973 1.95166 9.40496 1.97143 9.35577C1.99119 9.30659 2.00098 9.25396 2.00024 9.20096C2.00024 8.30159 2.18747 7.65889 2.36742 7.24392C2.39104 7.18947 2.38807 7.21404 2.41039 7.16814C2.62518 7.39152 2.93447 7.60096 3.3768 7.60096C3.86337 7.60096 4.2685 7.36698 4.49555 7.04705C4.7226 6.72712 4.80024 6.35067 4.80024 6.00096C4.80024 5.6698 4.69367 5.3845 4.56195 5.14861C4.43024 4.91272 4.27828 4.71363 4.1393 4.4908C3.94671 4.18201 3.79706 3.75047 3.7018 3.19471C4.07226 3.39664 4.5289 3.60096 5.03617 3.60096C5.39018 3.60096 5.69949 3.41806 5.87289 3.20017C6.0463 2.98228 6.12908 2.75162 6.21195 2.55799C6.29483 2.36436 6.37438 2.2114 6.45414 2.1283C6.5339 2.0452 6.59628 2.00096 6.80024 2.00096C6.85324 2.0017 6.90587 1.99191 6.95505 1.97215C7.00424 1.95238 7.04901 1.92304 7.08676 1.88582C7.1245 1.8486 7.15448 1.80425 7.17494 1.75535C7.1954 1.70645 7.20593 1.65397 7.20593 1.60096C7.20593 1.54795 7.1954 1.49546 7.17494 1.44656C7.15448 1.39766 7.1245 1.35331 7.08676 1.31609C7.04901 1.27887 7.00424 1.24953 6.95505 1.22976C6.90587 1.21 6.85324 1.20021 6.80024 1.20096Z" fill="white"/>
</svg>
