<svg width="50" height="50" viewBox="0 0 50 50" fill="none" xmlns="http://www.w3.org/2000/svg">
<path d="M25 12C32.1797 12 38 17.8203 38 25C38 32.1797 32.1797 38 25 38C17.8203 38 12 32.1797 12 25C12 17.8203 17.8203 12 25 12ZM25 14C18.9249 14 14 18.9249 14 25C14 31.0751 18.9249 36 25 36C31.0751 36 36 31.0751 36 25C36 18.9249 31.0751 14 25 14Z" fill="#185D66"/>
<path d="M36.3164 20C36.8687 20 37.3164 20.4477 37.3164 21C37.3164 21.5523 36.8687 22 36.3164 22H13.6836C13.1313 22 12.6836 21.5523 12.6836 21C12.6836 20.4477 13.1313 20 13.6836 20H36.3164Z" fill="#185D66"/>
<path d="M36.3164 28C36.8687 28 37.3164 28.4477 37.3164 29C37.3164 29.5523 36.8687 30 36.3164 30H13.6836C13.1313 30 12.6836 29.5523 12.6836 29C12.6836 28.4477 13.1313 28 13.6836 28H36.3164Z" fill="#185D66"/>
<path d="M25 12.3223C26.0289 12.3223 26.9256 12.8133 27.6494 13.5283C28.3689 14.2391 28.971 15.2181 29.4551 16.3486C30.4248 18.6136 31 21.6732 31 25C31 28.3268 30.4248 31.3864 29.4551 33.6514C28.971 34.7819 28.3689 35.7609 27.6494 36.4717C26.9256 37.1867 26.0289 37.6777 25 37.6777C23.9711 37.6777 23.0744 37.1867 22.3506 36.4717C21.6311 35.7609 21.029 34.7819 20.5449 33.6514C19.5752 31.3864 19 28.3268 19 25C19 21.6732 19.5752 18.6136 20.5449 16.3486C21.029 15.2181 21.6311 14.2391 22.3506 13.5283C23.0744 12.8133 23.9711 12.3223 25 12.3223ZM25 14.3223C24.6482 14.3223 24.2293 14.4846 23.7568 14.9512C23.28 15.4222 22.8045 16.1541 22.3838 17.1367C21.544 19.0983 21 21.8776 21 25C21 28.1227 21.5439 30.9027 22.3838 32.8643C22.8045 33.8467 23.2801 34.5778 23.7568 35.0488C24.2293 35.5155 24.6482 35.6777 25 35.6777C25.3518 35.6777 25.7707 35.5155 26.2432 35.0488C26.7199 34.5778 27.1955 33.8467 27.6162 32.8643C28.4561 30.9027 29 28.1227 29 25C29 21.8776 28.456 19.0983 27.6162 17.1367C27.1955 16.1541 26.72 15.4222 26.2432 14.9512C25.7707 14.4846 25.3518 14.3223 25 14.3223Z" fill="#185D66"/>
</svg>
