<svg width="24" height="24" viewBox="0 0 24 24" fill="none" xmlns="http://www.w3.org/2000/svg">
<path d="M10.9248 4.17773C11.434 3.38599 12.5443 3.26692 13.21 3.93262C14.0359 4.75861 14.5 5.8788 14.5 7.04688V8.42969C14.5001 9.25802 15.1716 9.92969 16 9.92969H19.7578C20.7153 9.92982 21.4272 10.8146 21.2227 11.75L19.832 18.1064C19.581 19.254 18.5653 20.0721 17.3906 20.0723H9.5C8.11931 20.0723 7.00004 18.9529 7 17.5723V11.0166C7.00007 10.5374 7.13832 10.0682 7.39746 9.66504L10.9248 4.17773ZM4 10.9297C4.27614 10.9297 4.5 11.1535 4.5 11.4297V18.4297C4.49989 18.7057 4.27608 18.9297 4 18.9297C3.72392 18.9297 3.50011 18.7057 3.5 18.4297V11.4297C3.5 11.1535 3.72386 10.9297 4 10.9297Z" fill="#FDF6EC"/>
</svg>
