<svg width="64" height="64" viewBox="0 0 64 64" fill="none" xmlns="http://www.w3.org/2000/svg">
<g filter="url(#filter0_d_225_4464)">
<path d="M26.275 39.2616C25.3883 41.5235 24.7119 43.8726 24.2556 46.2753C23.9358 48.0692 23.6834 51.0292 25.1475 52.3208C25.4409 52.6209 25.804 52.8322 26.1995 52.9331C26.595 53.0339 27.0086 53.0206 27.3976 52.8945C27.7867 52.7685 28.1372 52.5341 28.4131 52.2157C28.6891 51.8973 28.8805 51.5066 28.9676 51.0832C29.1864 49.5405 28.7656 42.6697 28.7151 40.8938C28.7151 39.7278 28.7151 38.5439 28.7151 37.3061C28.7151 30.6689 28.4964 19.6192 28.4795 12.9819C28.4658 12.7809 28.3986 12.5878 28.2856 12.4262C28.1727 12.2645 28.0187 12.1408 27.842 12.0692C27.6652 11.9976 27.4729 11.981 27.2877 12.0219C27.1025 12.0629 26.9322 12.1594 26.7967 12.3C22.4213 17.9507 20.5533 25.3056 23.2627 32.2658C23.7203 33.5268 24.464 34.6471 25.4272 35.5267C26.3905 36.4064 27.5432 37.0176 28.7824 37.3061M35.8673 29.4852C35.6654 33.3599 34.8912 37.1627 34.3864 41.0015C33.9323 43.459 33.7124 45.9591 33.7301 48.4637C33.8647 50.3832 34.521 52.9663 36.7424 52.9843C37.3512 53.0039 37.947 52.7946 38.4252 52.3926C38.9607 51.8163 39.3288 51.0872 39.4854 50.2935C39.7529 49.1203 39.8494 47.9103 39.7715 46.7058C39.7715 44.7864 39.3508 42.921 39.0984 41.0374C38.5935 37.1986 37.8194 33.3958 37.6175 29.5211M35.2278 12.6946V21.6638M38.3242 21.6099V12.6407M32.4848 12.6946V24.9826C32.4892 26.1848 32.9392 27.3365 33.7367 28.1866C34.5342 29.0367 35.6146 29.5164 36.7424 29.5211C37.8702 29.5164 38.9506 29.0367 39.7481 28.1866C40.5456 27.3365 40.9956 26.1848 41 24.9826V12.6946" stroke="white" stroke-linecap="round" stroke-linejoin="round" shape-rendering="crispEdges"/>
</g>
<defs>
<filter id="filter0_d_225_4464" x="12" y="2" width="39" height="61" filterUnits="userSpaceOnUse" color-interpolation-filters="sRGB">
<feFlood flood-opacity="0" result="BackgroundImageFix"/>
<feColorMatrix in="SourceAlpha" type="matrix" values="0 0 0 0 0 0 0 0 0 0 0 0 0 0 0 0 0 0 127 0" result="hardAlpha"/>
<feOffset/>
<feGaussianBlur stdDeviation="4.75"/>
<feComposite in2="hardAlpha" operator="out"/>
<feColorMatrix type="matrix" values="0 0 0 0 0 0 0 0 0 0.814378 0 0 0 0 0.773659 0 0 0 1 0"/>
<feBlend mode="normal" in2="BackgroundImageFix" result="effect1_dropShadow_225_4464"/>
<feBlend mode="normal" in="SourceGraphic" in2="effect1_dropShadow_225_4464" result="shape"/>
</filter>
</defs>
</svg>
