<svg width="50" height="50" viewBox="0 0 50 50" fill="none" xmlns="http://www.w3.org/2000/svg">
<path d="M36.8135 25.8896C32.4459 25.191 31.7472 32.2847 36.6631 31.9424C40.1824 31.6964 40.2301 26.4356 36.8135 25.8896ZM13.2939 25.8896C8.92605 25.1904 8.22672 32.2845 13.1426 31.9424C16.6622 31.6967 16.7106 26.4356 13.2939 25.8896ZM36.0244 27.0908C40.1025 26.7213 37.7127 32.9312 34.9365 30.3926C33.8865 29.4329 34.3549 27.242 36.0244 27.0908ZM12.5039 27.0908C16.5819 26.7212 14.193 32.9306 11.417 30.3926C10.3671 29.433 10.8348 27.2424 12.5039 27.0908ZM19.0059 30.2578L32.3496 30.457C32.3975 30.0921 31.8722 30.2595 31.6182 30.249C26.7673 30.0495 21.8912 29.9622 17.0215 29.832L19.0059 30.2578ZM18.2822 18.9092H19.1191V22.4795L18.9951 22.4717L19 22.499L9.31738 22.0146C9.06111 22.3311 8.84845 22.6314 8.72266 22.8975C8.25019 23.897 8.02459 24.9634 7.51855 26.1016C7.19097 26.8386 7.42856 29.4382 8.61914 29.2012V29.1992C9.09184 23.1852 16.8006 23.5485 17.3594 29.4219L32.1416 29.832C31.7888 23.0513 41.4478 23.2291 40.541 30.0391C42.221 30.6187 42.74 28.7374 42.6602 27.4102C42.6511 27.2806 41.7684 25.2986 41.6357 25.0605C41.4509 24.7329 40.877 23.9202 40.541 24.2646C41.4188 24.84 42.005 26.8555 40.3418 25.7236C39.7789 25.3411 38.5971 23.8403 39.6992 23.7373V23.5342C37.5069 22.837 35.2287 22.4123 32.9209 22.4375C31.3942 21.3644 29.9634 18.9036 28.1133 18.4248C27.1996 18.1876 24.9275 18.1076 23.8545 18.0635C22.2359 17.9964 20.1355 17.9194 18.082 17.9062L18.2822 18.9092ZM8.93457 24.9951C7.95396 24.5521 9.42951 21.7599 9.87695 22.2695C9.86855 23.2354 9.72397 24.3504 8.93457 24.9951ZM19.751 23.8398C19.5904 23.1453 21.5325 23.2317 21.9209 23.3535C23.4849 23.8387 20.5426 25.1775 19.751 23.8398ZM27.3809 19.1533L30.459 22.8975L20.3789 22.4795V18.9092L27.3809 19.1533Z" fill="#185D66"/>
</svg>
