<svg width="50" height="50" viewBox="0 0 50 50" fill="none" xmlns="http://www.w3.org/2000/svg">
<path d="M25.5 14C26.292 14.0001 27.0126 14.44 27.376 15.1338L27.4443 15.2764L27.4453 15.2783L29.6055 20.3047L35.0742 20.7988H35.0732C35.9157 20.8743 36.6343 21.4425 36.8965 22.248H36.8955C37.1423 23.0045 36.9417 23.8265 36.3896 24.3838L36.2744 24.4912L32.1445 28.0898L33.3623 33.4209C33.5505 34.2472 33.2262 35.1037 32.5381 35.5996C31.8529 36.0933 30.9386 36.134 30.2129 35.7002V35.6992L25.499 32.8984L20.7832 35.7012C20.452 35.8981 20.0777 36 19.6992 36C19.2614 35.9999 18.8291 35.8635 18.4629 35.6006C17.7732 35.1051 17.4489 34.2484 17.6367 33.4219V33.4209L18.8545 28.0898L14.7246 24.4902L14.7256 24.4893C14.0854 23.9331 13.8415 23.0511 14.1045 22.2471C14.3676 21.443 15.0836 20.876 15.9238 20.7988H15.9248L21.3936 20.3047L23.5547 15.2793L23.5557 15.2773C23.891 14.5008 24.6548 14 25.5 14ZM25.5 16C25.4517 16 25.4101 16.027 25.3916 16.0684L22.9961 21.6436L22.7607 22.1904L22.167 22.2441L16.1055 22.79C16.0553 22.7949 16.0192 22.8283 16.0059 22.8691C15.9928 22.9095 16.0038 22.9523 16.0361 22.9805L16.0381 22.9824L20.6201 26.9756L21.0713 27.3682L20.9375 27.9521L19.5869 33.8662C19.5777 33.9088 19.593 33.9507 19.6289 33.9766C19.6527 33.9936 19.6769 33.9999 19.6992 34C19.7177 34 19.7386 33.9956 19.7607 33.9824L24.9893 30.877L25.5 30.5732L26.0107 30.877L31.2373 33.9824L31.2393 33.9834C31.2784 34.0067 31.3299 34.0058 31.3691 33.9775C31.4068 33.9503 31.4212 33.9073 31.4121 33.8662L30.0615 27.9521L29.9277 27.3682L30.3799 26.9756L34.9609 22.9834L34.9619 22.9824C34.997 22.9518 35.007 22.9077 34.9941 22.8682L35.9453 22.5576L34.9941 22.8672C34.9813 22.8278 34.9451 22.7956 34.8955 22.791H34.8945L28.833 22.2441L28.2402 22.1904L28.0049 21.6426L25.6084 16.0703L25.5908 16.042C25.5693 16.0164 25.537 16 25.5 16Z" fill="#185D66"/>
</svg>
