<svg width="50" height="50" viewBox="0 0 50 50" fill="none" xmlns="http://www.w3.org/2000/svg">
<path d="M24.5 15C28.8654 15 32.3984 17.2516 34.7979 19.4229C37.065 21.4744 38.4167 23.5421 38.627 23.873C38.8678 24.1993 38.9999 24.5934 39 25V25.001C38.9997 25.3523 38.9006 25.6955 38.7168 25.9941L38.7178 25.9951C38.7105 26.0076 38.7028 26.02 38.6953 26.0322C38.4793 26.4344 37.3283 28.481 35.1963 30.5156C32.8671 32.7384 29.3103 35 24.5 35C19.6688 35 16.0998 32.7161 13.7695 30.4814C11.714 28.5102 10.5761 26.5313 10.3115 26.042L10.3076 26.0361C10.1071 25.7282 10.0003 25.3685 10 25.001V24.999L10.0068 24.8389C10.0363 24.4936 10.1615 24.1637 10.3662 23.8828C10.5538 23.5862 11.9107 21.4964 14.2021 19.4229C16.6016 17.2516 20.1346 15 24.5 15ZM24.5 17C20.839 17 17.7668 18.8938 15.5439 20.9053C13.3322 22.9066 12.0701 24.9282 12.0449 24.9688L12.0215 25.0039L12.0488 25.0596C12.0237 25.0075 13.053 27.0229 15.1543 29.0381C17.2497 31.0475 20.3483 33 24.5 33C28.6345 33 31.7224 31.0667 33.8154 29.0693C34.8613 28.0713 35.6464 27.0675 36.1719 26.3086C36.6945 25.5538 36.9541 25.0498 36.9541 25.0498L36.9717 25.0166L36.9775 25.0049L36.9551 24.9688C36.9299 24.9283 35.6678 22.9067 33.4561 20.9053C31.2332 18.8938 28.161 17 24.5 17ZM24.5 17.7002C28.5317 17.7002 31.7998 20.9683 31.7998 25C31.7998 29.0317 28.5317 32.2998 24.5 32.2998C20.4683 32.2998 17.2002 29.0317 17.2002 25C17.2002 20.9683 20.4683 17.7002 24.5 17.7002ZM24.5 19.7002C21.5729 19.7002 19.2002 22.0729 19.2002 25C19.2002 27.9271 21.5729 30.2998 24.5 30.2998C27.4271 30.2998 29.7998 27.9271 29.7998 25C29.7998 22.0729 27.4271 19.7002 24.5 19.7002ZM24.5 21.2998C25.4813 21.2998 26.4223 21.6899 27.1162 22.3838C27.8101 23.0777 28.2002 24.0187 28.2002 25C28.2002 25.9813 27.8101 26.9223 27.1162 27.6162C26.4223 28.3101 25.4813 28.7002 24.5 28.7002C23.5187 28.7002 22.5777 28.3101 21.8838 27.6162C21.1899 26.9223 20.7998 25.9813 20.7998 25C20.7998 24.0187 21.1899 23.0777 21.8838 22.3838C22.5777 21.6899 23.5187 21.2998 24.5 21.2998ZM24.5 23.2998C24.0491 23.2998 23.6167 23.479 23.2979 23.7979C22.979 24.1167 22.7998 24.5491 22.7998 25C22.7998 25.4509 22.979 25.8833 23.2979 26.2021C23.6167 26.521 24.0491 26.7002 24.5 26.7002C24.9509 26.7002 25.3833 26.521 25.7021 26.2021C26.021 25.8833 26.2002 25.4509 26.2002 25C26.2002 24.5491 26.021 24.1167 25.7021 23.7979C25.3833 23.479 24.9509 23.2998 24.5 23.2998ZM11.0986 25.5195L11.1016 25.5186L11.1455 25.4902L11.0986 25.5195Z" fill="#185D66"/>
</svg>
