<svg width="50" height="50" viewBox="0 0 50 50" fill="none" xmlns="http://www.w3.org/2000/svg">
<path d="M22.7285 15.9824C23.4663 14.8349 25.0754 14.6623 26.04 15.627C27.0815 16.6687 27.667 18.0816 27.667 19.5547V21.168C27.6672 21.9041 28.2638 22.501 29 22.501H33.3838C34.767 22.501 35.7956 23.7796 35.5 25.1309L33.8779 32.5469C33.543 34.0769 32.1883 35.1679 30.6221 35.168H21.417C19.5763 35.168 18.0834 33.6756 18.083 31.835V24.1865C18.083 23.5475 18.2668 22.9214 18.6123 22.3838L22.7285 15.9824ZM15 23.668C15.5523 23.668 16 24.1157 16 24.668V32.835C15.9996 33.3869 15.552 33.835 15 33.835C14.448 33.835 14.0004 33.3869 14 32.835V24.668C14 24.1157 14.4477 23.668 15 23.668ZM24.625 17.041C24.5624 16.9785 24.4581 16.9891 24.4102 17.0635L20.2949 23.4658C20.1569 23.6808 20.083 23.9311 20.083 24.1865V31.835C20.0834 32.571 20.6809 33.168 21.417 33.168H30.6221C31.2485 33.1679 31.7908 32.731 31.9248 32.1191L33.5469 24.7031C33.5694 24.5993 33.4901 24.501 33.3838 24.501H29C27.1592 24.501 25.6672 23.0087 25.667 21.168V19.5547C25.667 18.6118 25.2916 17.7077 24.625 17.041Z" fill="#185D66"/>
</svg>
