<svg width="50" height="50" viewBox="0 0 50 50" fill="none" xmlns="http://www.w3.org/2000/svg">
<path d="M14 14C12.895 14 12 14.895 12 16V19V34C12 35.105 12.895 36 14 36H16V35.5C16 34.672 16.672 34 17.5 34C18.328 34 19 34.672 19 35.5V36H31V35.5C31 34.672 31.672 34 32.5 34C33.328 34 34 34.672 34 35.5V36H36C37.105 36 38 35.105 38 34V18C38 16.895 37.105 16 36 16H21.1992L20.582 14.9707C20.221 14.3687 19.5702 14 18.8672 14H14ZM20 20C20.954 20 21.25 20.6777 21.25 20.6777C22.103 20.6777 22.5 21.611 22.5 22.707C22.5 23.254 22.2793 23.707 22.2793 23.707C22.3673 23.762 22.5145 23.937 22.4785 24.248C22.4105 24.827 22.1782 24.9743 22.0312 24.9863C21.9752 25.5263 21.44 26.2184 21.252 26.3184V27.2227C21.626 28.4397 23.452 27.843 24.002 30H16C16.55 27.843 18.376 28.4397 18.75 27.2227V26.3184C18.562 26.2184 18.0267 25.5263 17.9707 24.9863C17.8237 24.9743 17.5914 24.827 17.5234 24.248C17.4864 23.937 17.6317 23.762 17.7207 23.707C17.7207 23.707 17.502 23.206 17.502 22.707C17.501 21.227 18.233 20 20 20ZM27 23H33C33.552 23 34 23.448 34 24C34 24.552 33.552 25 33 25H27C26.448 25 26 24.552 26 24C26 23.448 26.448 23 27 23ZM27 27H33C33.552 27 34 27.448 34 28C34 28.552 33.552 29 33 29H27C26.448 29 26 28.552 26 28C26 27.448 26.448 27 27 27Z" fill="#185D66"/>
</svg>
