<svg width="50" height="50" viewBox="0 0 50 50" fill="none" xmlns="http://www.w3.org/2000/svg">
<path d="M33.3213 16C33.9321 16 34.5378 16.1174 35.1035 16.3457C35.669 16.574 36.1847 16.9089 36.6201 17.333C37.0557 17.7574 37.4034 18.2633 37.6406 18.8213C37.8778 19.3792 38 19.9785 38 20.584V29.4209C37.9987 30.6441 37.499 31.8115 36.6191 32.668C35.7949 33.4701 34.7003 33.9387 33.5518 33.9941L33.3213 34H16.6787C15.447 34 14.2601 33.5236 13.3809 32.668C12.501 31.8115 12.0013 30.6441 12 29.4209V29.0312C12 29.0237 12.0018 29.0163 12.002 29.0088C12.0018 29.0016 12 28.9945 12 28.9873V20.584C12 19.9785 12.1222 19.3792 12.3594 18.8213C12.5966 18.2633 12.9443 17.7574 13.3799 17.333C13.8153 16.9089 14.331 16.574 14.8965 16.3457C15.4622 16.1174 16.0679 16 16.6787 16H33.3213ZM14 28.9873C14 28.9945 13.9982 29.0016 13.998 29.0088C13.9982 29.0163 14 29.0237 14 29.0312V29.4189L14.0127 29.6709C14.0728 30.2558 14.3393 30.81 14.7764 31.2354C15.2767 31.7221 15.9605 32 16.6787 32H33.3213C34.0395 32 34.7233 31.7222 35.2236 31.2354C35.7228 30.7495 35.999 30.0958 36 29.4199V21.8604H14V28.9873ZM21.1865 27.5479C21.7385 27.5481 22.1863 27.9959 22.1865 28.5479C22.1865 29.1 21.7386 29.5476 21.1865 29.5479H16.374C15.8217 29.5479 15.374 29.1001 15.374 28.5479C15.3742 27.9957 15.8219 27.5479 16.374 27.5479H21.1865ZM29.4277 27.5479C29.9798 27.5479 30.4275 27.9958 30.4277 28.5479C30.4277 29.1001 29.98 29.5478 29.4277 29.5479H27.4551C26.9028 29.5479 26.4551 29.1001 26.4551 28.5479C26.4553 27.9957 26.9029 27.5479 27.4551 27.5479H29.4277ZM33.876 27.5479C34.4281 27.5479 34.8758 27.9957 34.876 28.5479C34.876 29.1001 34.4283 29.5479 33.876 29.5479H31.9033C31.351 29.5479 30.9033 29.1001 30.9033 28.5479C30.9035 27.9957 31.3512 27.5479 31.9033 27.5479H33.876ZM18.3643 24.1943C18.9163 24.1946 19.3643 24.6422 19.3643 25.1943C19.3642 25.7464 18.9163 26.1941 18.3643 26.1943H16.374C15.8218 26.1943 15.3741 25.7466 15.374 25.1943C15.374 24.6421 15.8217 24.1943 16.374 24.1943H18.3643ZM16.6787 18C16.3235 18 15.9723 18.0684 15.6455 18.2002C15.3187 18.3321 15.023 18.5245 14.7754 18.7656C14.5278 19.0068 14.3327 19.2919 14.2002 19.6035C14.1645 19.6876 14.1347 19.7736 14.1084 19.8604H35.8916C35.8653 19.7736 35.8355 19.6876 35.7998 19.6035C35.6673 19.2919 35.4722 19.0068 35.2246 18.7656C34.977 18.5245 34.6813 18.3321 34.3545 18.2002C34.0276 18.0683 33.6765 18 33.3213 18H16.6787Z" fill="#185D66"/>
</svg>
