<svg width="50" height="50" viewBox="0 0 50 50" fill="none" xmlns="http://www.w3.org/2000/svg">
<path d="M25.0001 12C23.3431 12 22.0001 13.343 22.0001 15V27C22.0001 28.657 23.3431 30 25.0001 30C26.6571 30 28.0001 28.657 28.0001 27V15C28.0001 13.343 26.6571 12 25.0001 12ZM18.9845 21.9863C18.7196 21.9905 18.4672 22.0995 18.2826 22.2896C18.0981 22.4796 17.9965 22.7351 18.0001 23V27C18.0001 30.514 20.6175 33.4308 24.0001 33.9199V36H21.0001C20.8676 35.9981 20.736 36.0226 20.6131 36.072C20.4901 36.1214 20.3782 36.1948 20.2838 36.2878C20.1894 36.3809 20.1145 36.4918 20.0633 36.614C20.0122 36.7363 19.9859 36.8675 19.9859 37C19.9859 37.1325 20.0122 37.2637 20.0633 37.386C20.1145 37.5082 20.1894 37.6191 20.2838 37.7122C20.3782 37.8052 20.4901 37.8786 20.6131 37.928C20.736 37.9774 20.8676 38.0019 21.0001 38H24.8321C24.9401 38.0178 25.0503 38.0178 25.1583 38H29.0001C29.1326 38.0019 29.2642 37.9774 29.3871 37.928C29.5101 37.8786 29.622 37.8052 29.7164 37.7122C29.8108 37.6191 29.8857 37.5082 29.9368 37.386C29.988 37.2637 30.0143 37.1325 30.0143 37C30.0143 36.8675 29.988 36.7363 29.9368 36.614C29.8857 36.4918 29.8108 36.3809 29.7164 36.2878C29.622 36.1948 29.5101 36.1214 29.3871 36.072C29.2642 36.0226 29.1326 35.9981 29.0001 36H26.0001V33.9199C29.3827 33.4308 32.0001 30.514 32.0001 27V23C32.002 22.8675 31.9775 22.7359 31.9281 22.613C31.8787 22.49 31.8053 22.3781 31.7123 22.2837C31.6192 22.1893 31.5083 22.1144 31.3861 22.0632C31.2638 22.0121 31.1326 21.9858 31.0001 21.9858C30.8676 21.9858 30.7364 22.0121 30.6141 22.0632C30.4918 22.1144 30.381 22.1893 30.2879 22.2837C30.1949 22.3781 30.1215 22.49 30.0721 22.613C30.0227 22.7359 29.9982 22.8675 30.0001 23V27C30.0001 29.7354 27.8336 31.9339 25.1134 31.9941C25.0706 31.9888 25.0276 31.9862 24.9845 31.9863C24.9479 31.9869 24.9114 31.9895 24.8751 31.9941C22.1604 31.9278 20.0001 29.7315 20.0001 27V23C20.0019 22.8662 19.9769 22.7334 19.9265 22.6095C19.8761 22.4855 19.8013 22.373 19.7066 22.2784C19.6119 22.1839 19.4992 22.1094 19.3751 22.0592C19.2511 22.009 19.1183 21.9842 18.9845 21.9863Z" fill="#185D66"/>
</svg>
