<svg width="24" height="24" viewBox="0 0 24 24" fill="none" xmlns="http://www.w3.org/2000/svg">
<path d="M4.79922 3.19922C3.91522 3.19922 3.19922 3.91522 3.19922 4.79922V7.99922C3.19922 8.88322 3.91522 9.59922 4.79922 9.59922H7.99922C8.88322 9.59922 9.59922 8.88322 9.59922 7.99922V4.79922C9.59922 3.91522 8.88322 3.19922 7.99922 3.19922H4.79922ZM15.9992 3.19922C15.1152 3.19922 14.3992 3.91522 14.3992 4.79922V7.99922C14.3992 8.88322 15.1152 9.59922 15.9992 9.59922H19.1992C20.0832 9.59922 20.7992 8.88322 20.7992 7.99922V4.79922C20.7992 3.91522 20.0832 3.19922 19.1992 3.19922H15.9992ZM4.79922 4.79922H7.99922V7.99922H4.79922V4.79922ZM11.1992 4.79922V6.39922H12.7992V4.79922H11.1992ZM15.9992 4.79922H19.1992V7.99922H15.9992V4.79922ZM5.59922 5.59922V7.19922H7.19922V5.59922H5.59922ZM16.7992 5.59922V7.19922H18.3992V5.59922H16.7992ZM11.1992 7.99922V9.59922H12.7992V7.99922H11.1992ZM4.79922 11.1992V12.7992H6.39922V11.1992H4.79922ZM7.99922 11.1992V12.7992H9.59922V11.1992H7.99922ZM11.1992 11.1992V12.7992H12.7992V11.1992H11.1992ZM12.7992 12.7992V14.3992H14.3992V12.7992H12.7992ZM14.3992 12.7992H15.9992V11.1992H14.3992V12.7992ZM15.9992 12.7992V14.3992H17.5992V12.7992H15.9992ZM17.5992 12.7992H19.1992V11.1992H17.5992V12.7992ZM19.1992 12.7992V14.3992H20.7992V12.7992H19.1992ZM19.1992 14.3992H17.5992V15.9992H19.1992V14.3992ZM19.1992 15.9992V17.5992H20.7992V15.9992H19.1992ZM19.1992 17.5992H17.5992V19.1992H19.1992V17.5992ZM17.5992 19.1992H15.9992V20.7992H17.5992V19.1992ZM15.9992 19.1992V17.5992H14.3992V19.1992H15.9992ZM14.3992 19.1992H12.7992V20.7992H14.3992V19.1992ZM12.7992 19.1992V17.5992H11.1992V19.1992H12.7992ZM12.7992 17.5992H14.3992V15.9992H12.7992V17.5992ZM12.7992 15.9992V14.3992H11.1992V15.9992H12.7992ZM14.3992 15.9992H15.9992V14.3992H14.3992V15.9992ZM15.9992 15.9992V17.5992H17.5992V15.9992H15.9992ZM4.79922 14.3992C3.91522 14.3992 3.19922 15.1152 3.19922 15.9992V19.1992C3.19922 20.0832 3.91522 20.7992 4.79922 20.7992H7.99922C8.88322 20.7992 9.59922 20.0832 9.59922 19.1992V15.9992C9.59922 15.1152 8.88322 14.3992 7.99922 14.3992H4.79922ZM4.79922 15.9992H7.99922V19.1992H4.79922V15.9992ZM5.59922 16.7992V18.3992H7.19922V16.7992H5.59922Z" fill="#FDF6EC"/>
</svg>
