<svg width="24" height="24" viewBox="0 0 24 24" fill="none" xmlns="http://www.w3.org/2000/svg">
<path d="M12.0008 1.59961C11.5764 1.59961 11.1695 1.76818 10.8694 2.06824C10.5694 2.3683 10.4008 2.77526 10.4008 3.19961C10.4009 3.48944 10.4798 3.77379 10.6289 4.0223C10.7781 4.2708 10.9919 4.47412 11.2477 4.61055L8.08359 10.5434L3.77891 8.01055C3.92383 7.76485 4.00043 7.48487 4.00078 7.19961C4.00078 6.77526 3.83221 6.3683 3.53215 6.06824C3.23209 5.76818 2.82513 5.59961 2.40078 5.59961C1.97643 5.59961 1.56947 5.76818 1.26941 6.06824C0.969352 6.3683 0.800781 6.77526 0.800781 7.19961C0.800781 7.62396 0.969352 8.03092 1.26941 8.33098C1.56947 8.63104 1.97643 8.79961 2.40078 8.79961C2.45403 8.79914 2.50722 8.79601 2.56016 8.79023L3.20078 15.1996H5.60078H16.0008H18.4008H20.8008L21.4414 8.7918C21.4944 8.79705 21.5476 8.79966 21.6008 8.79961C22.0251 8.79961 22.4321 8.63104 22.7322 8.33098C23.0322 8.03092 23.2008 7.62396 23.2008 7.19961C23.2008 6.77526 23.0322 6.3683 22.7322 6.06824C22.4321 5.76818 22.0251 5.59961 21.6008 5.59961C21.1764 5.59961 20.7695 5.76818 20.4694 6.06824C20.1694 6.3683 20.0008 6.77526 20.0008 7.19961C20.0011 7.48487 20.0777 7.76485 20.2227 8.01055L15.918 10.5434L12.7539 4.61055C13.0096 4.47412 13.2235 4.2708 13.3726 4.0223C13.5218 3.77379 13.6006 3.48944 13.6008 3.19961C13.6008 2.77526 13.4322 2.3683 13.1322 2.06824C12.8321 1.76818 12.4251 1.59961 12.0008 1.59961ZM3.20078 16.7996V18.3996C3.20078 19.2836 3.91678 19.9996 4.80078 19.9996H19.2008C20.0848 19.9996 20.8008 19.2836 20.8008 18.3996V16.7996H3.20078Z" fill="white"/>
</svg>
