<svg width="30" height="30" viewBox="0 0 30 30" fill="none" xmlns="http://www.w3.org/2000/svg">
<path d="M11.5579 26H18.4421C20.0042 26 20.841 25.0722 20.841 23.5787V18.5097H25.371C26.2859 18.5097 27 17.944 27 17.0841C27 16.5523 26.7322 16.1562 26.3305 15.7489L16.378 5.69019C15.9428 5.24892 15.4965 5 14.9944 5C14.5035 5 14.046 5.24892 13.622 5.69019L3.66946 15.7489C3.23431 16.1789 3 16.5523 3 17.0841C3 17.944 3.71409 18.5097 4.61785 18.5097H9.159V23.5787C9.159 25.0722 9.99582 26 11.5579 26Z" fill="#185D66"/>
</svg>
