<svg width="50" height="50" viewBox="0 0 50 50" fill="none" xmlns="http://www.w3.org/2000/svg">
<path d="M25.0005 14C21.6865 14 19.0005 16.686 19.0005 20V21C19.0005 24.314 21.6865 27 25.0005 27C28.3145 27 31.0005 24.314 31.0005 21V20C31.0005 16.686 28.3145 14 25.0005 14ZM21.0981 28.5527C18.1631 29.3197 15.3945 30.7638 14.3735 32.0918C13.4595 33.2798 14.3296 35 15.8286 35H34.1704C35.6694 35 36.5395 33.2788 35.6255 32.0898C34.6045 30.7618 31.8368 29.3197 28.9028 28.5527C27.8528 29.4537 26.4915 30 25.0005 30C23.5085 30 22.1481 29.4527 21.0981 28.5527Z" fill="#185D66"/>
</svg>
