<svg width="20" height="20" viewBox="0 0 20 20" fill="none" xmlns="http://www.w3.org/2000/svg">
<path d="M7.33333 2C5.6 2 4.24303 3.27975 4.04036 4.92708C2.8417 5.43175 2 6.61733 2 8C2 9.84067 3.49267 11.3333 5.33333 11.3333C5.52833 11.3333 5.71801 11.3139 5.90234 11.2786C6.42091 12.3977 7.19461 14.4096 7.31641 16.7201C7.35292 17.4129 7.93329 18 8.64844 18H11.3477C12.0665 18 12.6513 17.4082 12.6797 16.707C12.7629 14.6984 13.2344 13.2905 13.6719 12.3893C14.0185 11.6754 14.2643 11.38 14.3737 11.2578C14.5764 11.3023 14.7842 11.3333 15 11.3333C16.6567 11.3333 18 9.99 18 8.33333C18 6.96067 17.0731 5.81564 15.8138 5.45964C15.3018 3.84097 13.788 2.66667 12 2.66667H11.9922C11.6335 2.66733 11.4117 3.05233 11.5677 3.375C11.6104 3.46233 11.6496 3.5519 11.6849 3.64323C11.8009 3.94123 11.6984 4.29291 11.4271 4.46224C11.3131 4.53291 11.1897 4.56641 11.069 4.56641C10.801 4.56641 10.5486 4.40335 10.4466 4.13802C10.3213 3.81135 9.46667 2 7.33333 2ZM10.6667 11.4753C11.1446 11.7993 11.7124 12 12.3333 12C12.3538 12 12.3728 11.9952 12.3932 11.9948C11.9079 13.0488 11.4337 14.5752 11.3477 16.6523V16.6536C11.3467 16.6778 11.3541 16.6667 11.3477 16.6667H8.64844C8.64135 16.6667 8.6499 16.6777 8.64844 16.6497C8.54836 14.7513 8.05307 13.0529 7.57161 11.8008C7.91479 11.9235 8.28051 12 8.66667 12C8.89612 12 9.11717 11.969 9.33333 11.9245V14.6003C9.33208 14.6886 9.3484 14.7763 9.38135 14.8583C9.41429 14.9403 9.4632 15.0149 9.52523 15.0778C9.58726 15.1407 9.66117 15.1907 9.74268 15.2248C9.82418 15.2589 9.91165 15.2764 10 15.2764C10.0884 15.2764 10.1758 15.2589 10.2573 15.2248C10.3388 15.1907 10.4127 15.1407 10.4748 15.0778C10.5368 15.0149 10.5857 14.9403 10.6187 14.8583C10.6516 14.7763 10.6679 14.6886 10.6667 14.6003V11.4753Z" fill="white"/>
</svg>
