<svg width="64" height="64" viewBox="0 0 64 64" fill="none" xmlns="http://www.w3.org/2000/svg">
<g filter="url(#filter0_d_225_4476)">
<path d="M23.0938 33.9001C24.2993 34.2799 25.541 34.54 26.8001 34.6767C29.4583 34.9593 32.136 35.026 34.8055 34.8755C38.2866 34.9632 41.7226 34.0928 44.7196 32.3646C45.0822 32.6085 45.3816 32.9312 45.5939 33.3074C45.8062 33.6837 45.9256 34.103 45.9427 34.532C46.1914 37.4241 45.6277 40.3278 44.3119 42.9313M35.4171 48.8377C34.8797 48.8377 34.3237 48.9639 33.7678 49C32.7856 49 31.8035 49 30.8213 49C26.5407 48.8736 21.945 47.6453 19.8139 43.5813C17.9608 40.2036 17.3122 35.5257 19.3321 32.1119M30.4693 32.8886C30.7184 32.6335 30.8928 32.318 30.9743 31.9749C31.0558 31.6318 31.0414 31.2735 30.9325 30.9377C30.8173 30.6074 30.6225 30.3087 30.3646 30.0668C30.1067 29.8248 29.7931 29.6465 29.4501 29.5469C28.211 29.3956 26.9569 29.6775 25.9106 30.3419C24.3726 30.9741 22.5565 32.3647 20.8516 32.4008C17.1454 32.4008 15.2924 24.8145 19.0912 23.6766C19.4978 23.5454 19.9367 23.5448 20.3437 23.6748C20.7506 23.8049 21.104 24.059 21.352 24.3993C22.0932 25.5373 21.8708 26.8556 23.0568 27.7949C23.6102 28.2204 24.238 28.5448 24.9099 28.7522C26.0589 29.1387 27.2553 29.3758 28.4679 29.4569M41.6435 28.6256C40.4783 28.6806 39.3112 28.5712 38.1782 28.3006C37.4888 28.1521 36.8307 27.8895 36.2324 27.524C34.9353 26.6751 35.0094 25.3022 34.1384 24.2185C33.8433 23.8967 33.4511 23.6748 33.0183 23.5839C32.5855 23.493 32.1342 23.5379 31.7294 23.7127C28.0231 25.266 30.6361 32.8704 34.4905 32.4369C36.2139 32.2382 37.9187 30.6308 39.4197 29.818C40.4251 29.0401 41.6757 28.625 42.9592 28.6437C43.3207 28.709 43.6608 28.858 43.951 29.078C44.2412 29.298 44.4731 29.5829 44.627 29.9084C44.7764 30.2409 44.8294 30.6069 44.7804 30.9667C44.7314 31.3265 44.5822 31.6662 44.349 31.9492C43.8759 32.5614 43.2583 33.0536 42.5487 33.3837C41.839 33.7138 41.0581 33.8724 40.2722 33.8458C38.8105 33.6387 37.485 32.8955 36.566 31.7684M42.848 43.2924C41.6474 43.6625 40.4003 43.8693 39.1417 43.9067C38.4512 43.9348 37.761 43.8428 37.1033 43.6355C35.6579 43.1478 35.3985 41.8294 34.3052 41.0347C33.9574 40.7893 33.5391 40.6572 33.1099 40.6572C32.6806 40.6572 32.2623 40.7893 31.9146 41.0347C28.8014 43.4008 33.1748 49.9574 36.6957 48.6208C38.2708 48.0247 39.4568 46.092 40.6798 45.0083C41.5508 44.2135 42.4403 43.2019 43.7189 43.0574C44.0707 43.048 44.4201 43.1164 44.741 43.2572C45.0619 43.3979 45.3459 43.6077 45.572 43.8706C45.7907 44.1505 45.9283 44.4825 45.9707 44.8319C46.0131 45.1813 45.9586 45.5352 45.8129 45.8572C45.5163 46.549 45.0533 47.1613 44.4631 47.6422C43.873 48.1232 43.1729 48.4587 42.4218 48.6208C41.7054 48.7124 40.9774 48.664 40.2805 48.4779C39.5837 48.2918 38.9319 47.972 38.3635 47.5373M29.4871 17.8424C29.1051 18.8084 28.5807 19.715 27.9305 20.5337C27.5491 21.0319 27.0857 21.4656 26.5592 21.8165C25.3732 22.539 24.2984 21.961 23.0754 22.268C22.6814 22.384 22.3383 22.6241 22.1 22.9511C21.8618 23.2781 21.742 23.6735 21.7596 24.0743C21.6484 27.6867 28.8385 28.409 29.9133 25.1397C30.1061 23.4804 30.0121 21.8015 29.6353 20.1725C29.3716 19.0616 29.5023 17.8962 30.0059 16.867C30.1915 16.6019 30.4401 16.3847 30.7305 16.2337C31.0209 16.0827 31.3446 16.0025 31.6737 16C32 16.0171 32.3159 16.1183 32.5893 16.2928C32.8626 16.4673 33.0838 16.7089 33.2303 16.9935C33.5499 17.6159 33.7164 18.3026 33.7164 18.9986C33.7164 19.6947 33.5499 20.3809 33.2303 21.0033C32.5402 22.128 31.4206 22.94 30.1171 23.2611" stroke="white" stroke-linecap="round" stroke-linejoin="round"/>
</g>
<defs>
<filter id="filter0_d_225_4476" x="7" y="6" width="49" height="53" filterUnits="userSpaceOnUse" color-interpolation-filters="sRGB">
<feFlood flood-opacity="0" result="BackgroundImageFix"/>
<feColorMatrix in="SourceAlpha" type="matrix" values="0 0 0 0 0 0 0 0 0 0 0 0 0 0 0 0 0 0 127 0" result="hardAlpha"/>
<feOffset/>
<feGaussianBlur stdDeviation="4.75"/>
<feComposite in2="hardAlpha" operator="out"/>
<feColorMatrix type="matrix" values="0 0 0 0 0 0 0 0 0 0.814378 0 0 0 0 0.773659 0 0 0 1 0"/>
<feBlend mode="normal" in2="BackgroundImageFix" result="effect1_dropShadow_225_4476"/>
<feBlend mode="normal" in="SourceGraphic" in2="effect1_dropShadow_225_4476" result="shape"/>
</filter>
</defs>
</svg>
