<svg width="50" height="50" viewBox="0 0 50 50" fill="none" xmlns="http://www.w3.org/2000/svg">
<path d="M28.8118 5.00984C28.3541 5.0039 28.02 5.36231 27.8287 5.93106C26.6823 9.34369 26.5188 12.0181 26.8261 14.1212C26.3503 13.7416 25.8675 13.4317 25.4133 13.1804C22.6483 11.6521 18.9574 11.2423 16.0091 12.129C15.6174 12.2473 15.3001 12.5037 15.1301 12.8354C14.9601 13.167 14.9572 13.5452 15.1139 13.8835C17.2891 18.487 21.803 21.5634 26.2337 21.6505C24.3201 23.374 23.0245 24.8932 22.207 25.9506C20.4644 25.0274 18.3939 24.7693 16.302 25.2279C13.3237 25.8879 10.57 27.9066 8.74668 30.7716C5.39002 36.0466 6.21119 42.6088 10.5729 45.4005C11.8795 46.2355 13.4048 46.6667 15.0064 46.6667C15.6714 46.6667 16.3512 46.5921 17.0312 46.4421C20.0095 45.7821 22.7664 43.7603 24.5898 40.8953C27.3479 36.5609 27.282 31.3623 24.7525 28.0958C26.791 25.4023 33.5466 17.703 45.1497 16.6602C45.5804 16.6222 45.9796 16.4182 46.2628 16.0914C46.546 15.7646 46.691 15.3405 46.6674 14.9087C46.6437 14.4769 46.4532 14.0712 46.136 13.7772C45.8188 13.4833 45.3997 13.3242 44.9674 13.3334C44.9283 13.3342 44.8892 13.3364 44.8502 13.3399C40.9388 13.6914 37.5115 14.7367 34.567 16.1036C34.8165 15.3153 34.9934 14.4145 34.9934 13.3139C34.9934 9.37721 32.2098 6.55997 29.3098 5.1433C29.1298 5.05539 28.9644 5.01182 28.8118 5.00984ZM36.9791 23.3367C36.3717 23.3214 35.757 23.3781 35.1464 23.5124C32.7114 24.0491 30.7007 25.7039 29.4824 28.1739C28.3274 30.5172 28.0308 33.3431 28.6458 36.1231C29.7991 41.3398 33.8927 45.0001 38.2161 45.0001C38.7611 45.0001 39.31 44.941 39.8567 44.821C42.2917 44.2844 44.3008 42.6296 45.5175 40.1596C46.6725 37.8129 46.9724 34.9936 46.3574 32.2136C45.2199 27.0744 41.2313 23.4436 36.9791 23.3367ZM16.4355 28.3334C17.3505 28.2017 18.192 28.8443 18.317 29.7559C18.4437 30.6659 17.8094 31.5075 16.8977 31.6342C15.7177 31.7992 13.8176 33.0662 13.291 35.3712C13.1143 36.1462 12.4299 36.6667 11.6699 36.6667C11.5465 36.6667 11.4205 36.6528 11.2955 36.6244C10.3972 36.4194 9.83726 35.5256 10.0423 34.629C10.8806 30.9623 13.8922 28.6867 16.4355 28.3334ZM35.205 28.3464C35.6283 28.3996 36.0325 28.6138 36.315 28.9779C36.88 29.7063 36.7487 30.7502 36.0221 31.3152C35.4237 31.7785 35.1339 32.2868 35.1106 32.9135C35.0673 34.0568 35.9031 35.2364 36.1197 35.433C36.8014 36.0514 36.852 37.1049 36.2337 37.7865C35.9037 38.1499 35.4533 38.3334 34.9999 38.3334C34.5999 38.3334 34.2001 38.1888 33.8801 37.9005C33.0218 37.1221 31.6923 35.0465 31.7773 32.7898C31.8389 31.1731 32.6011 29.755 33.9778 28.685C34.3403 28.4033 34.7817 28.2933 35.205 28.3464Z" fill="#D71920"/>
</svg>
