<svg width="50" height="50" viewBox="0 0 50 50" fill="none" xmlns="http://www.w3.org/2000/svg">
<path d="M24.9998 3.33337C21.5451 3.33337 18.596 5.45398 16.5721 8.28129C14.5482 11.1086 13.3331 14.7257 13.3331 18.3334H16.6665C16.6665 15.4977 17.6884 12.4499 19.2837 10.2214C20.8789 7.99288 22.9312 6.66671 24.9998 6.66671C27.0685 6.66671 29.1207 7.99288 30.716 10.2214C32.3112 12.4499 33.3331 15.4977 33.3331 18.3334H36.6665C36.6665 14.7257 35.4514 11.1086 33.4275 8.28129C31.4036 5.45398 28.4545 3.33337 24.9998 3.33337ZM11.6665 21.6667C11.4456 21.6636 11.2264 21.7044 11.0214 21.7867C10.8165 21.8691 10.6299 21.9914 10.4726 22.1464C10.3154 22.3015 10.1905 22.4863 10.1052 22.6901C10.02 22.8938 9.97607 23.1125 9.97607 23.3334C9.97607 23.5542 10.02 23.7729 10.1052 23.9767C10.1905 24.1804 10.3154 24.3652 10.4726 24.5203C10.6299 24.6754 10.8165 24.7976 11.0214 24.88C11.2264 24.9624 11.4456 25.0032 11.6665 25H12.1027C13.3099 29.6797 16.9868 33.3566 21.6665 34.5638V39.0267C20.3135 39.5951 19.0766 40.5012 17.9979 41.6667H16.6665C16.4456 41.6636 16.2264 41.7044 16.0214 41.7867C15.8165 41.8691 15.6299 41.9914 15.4726 42.1464C15.3154 42.3015 15.1905 42.4863 15.1052 42.6901C15.02 42.8938 14.9761 43.1125 14.9761 43.3334C14.9761 43.5542 15.02 43.7729 15.1052 43.9767C15.1905 44.1804 15.3154 44.3652 15.4726 44.5203C15.6299 44.6754 15.8165 44.7976 16.0214 44.88C16.2264 44.9624 16.4456 45.0032 16.6665 45H33.3331C33.554 45.0032 33.7733 44.9624 33.9782 44.88C34.1832 44.7976 34.3697 44.6754 34.527 44.5203C34.6843 44.3652 34.8092 44.1804 34.8944 43.9767C34.9797 43.7729 35.0235 43.5542 35.0235 43.3334C35.0235 43.1125 34.9797 42.8938 34.8944 42.6901C34.8092 42.4863 34.6843 42.3015 34.527 42.1464C34.3697 41.9914 34.1832 41.8691 33.9782 41.7867C33.7733 41.7044 33.554 41.6636 33.3331 41.6667H32.0018C30.9231 40.5012 29.6861 39.5951 28.3331 39.0267V34.5638C33.0128 33.3566 36.6897 29.6797 37.8969 25H38.3331C38.554 25.0032 38.7733 24.9624 38.9782 24.88C39.1832 24.7976 39.3697 24.6754 39.527 24.5203C39.6843 24.3652 39.8092 24.1804 39.8944 23.9767C39.9797 23.7729 40.0235 23.5542 40.0235 23.3334C40.0235 23.1125 39.9797 22.8938 39.8944 22.6901C39.8092 22.4863 39.6843 22.3015 39.527 22.1464C39.3697 21.9914 39.1832 21.8691 38.9782 21.7867C38.7733 21.7044 38.554 21.6636 38.3331 21.6667H11.6665Z" fill="#D71920"/>
</svg>
