<svg width="239" height="178" viewBox="0 0 239 178" fill="none" xmlns="http://www.w3.org/2000/svg">
<g clip-path="url(#clip0_142_15876)">
<path d="M111.422 37.4722H78.8711V56.8033H111.422V37.4722Z" fill="black"/>
<path d="M149.005 29.5914C165.577 28.8479 187.031 25.7252 189.25 3.27141C183.036 13.383 171.051 22.8999 155.367 21.5616C164.245 20.9668 175.933 8.32724 168.832 0C166.168 15.3162 145.306 19.6285 128.735 19.3311C124.296 19.1824 110.388 17.6954 107.133 17.8441C93.0765 18.4389 83.9031 24.2382 78.5766 33.309C75.9133 37.77 75.9133 42.9745 73.8418 48.3277C71.7704 53.3836 67.6276 58.588 66 64.2387C67.3316 64.3874 77.3929 63.7926 77.8367 64.3874C78.2806 64.9822 76.949 70.7815 76.8011 72.1198C76.0612 77.9191 72.6582 86.2464 77.3929 87.7334C79.4643 88.3282 85.6786 87.1386 87.4541 88.3282C89.3776 89.6665 89.9694 91.897 89.5255 94.1275C88.9337 97.3989 88.3419 100.521 88.1939 102.603C90.5613 103.496 124.148 102.603 124.148 102.603C123.112 94.871 122.52 86.9899 123.112 78.8113C123.556 73.6068 125.628 70.1867 127.847 66.6179C133.026 68.2536 138.648 70.9302 143.235 69.2945C137.612 67.6588 132.73 62.0082 131.842 59.7777C131.99 59.629 156.699 67.064 162.913 57.9933C161.285 58.4393 143.531 58.8855 136.725 49.0712C151.077 55.6141 176.822 55.7628 183.628 42.231C174.602 46.5433 153.296 47.8816 141.607 37.0265C159.51 41.9336 181.556 45.3537 192.505 24.833C189.694 27.0635 188.215 27.807 185.699 29.1454C178.301 33.4576 160.842 32.8628 149.005 29.5914ZM91.449 52.1939C87.75 52.3426 81.3877 48.6252 81.3877 48.6252C81.3877 48.6252 84.051 46.8407 86.8623 45.6511C86.8623 45.9485 86.7143 46.3946 86.7143 46.692C86.8623 49.3686 88.9337 48.3277 91.449 48.3277C93.9643 48.179 95.8878 49.0712 95.8878 46.3946C95.8878 46.0972 95.8878 45.6511 95.7398 45.3537C98.5511 46.3946 101.214 47.8816 101.214 47.8816C101.214 47.8816 95.0001 52.0452 91.449 52.1939Z" fill="#D71920"/>
<path d="M91.4491 50.8556C94.3091 50.8556 96.6277 48.5254 96.6277 45.6511C96.6277 42.7767 94.3091 40.4465 91.4491 40.4465C88.589 40.4465 86.2705 42.7767 86.2705 45.6511C86.2705 48.5254 88.589 50.8556 91.4491 50.8556Z" fill="black"/>
<path d="M81.8311 42.6771L84.0504 38.9595L88.4892 36.729L99.5862 40.4465L97.3667 44.1641L95.7078 43.9974L89.9688 43.4206L87.8179 44.1411L85.53 44.9076L81.8311 42.6771Z" fill="#D71920"/>
<path d="M80.3545 48.6247C90.7116 41.9334 92.1912 41.9334 101.809 47.8812" stroke="#D71920"/>
</g>
<path d="M0 177.088H7.95123V129.013H15.7964V121H0V177.088Z" fill="black"/>
<path d="M47.6015 121.001H23.7471V129.013H47.6015V121.001Z" fill="black"/>
<path d="M47.6015 169.075H23.7471V177.088H47.6015V169.075Z" fill="black"/>
<path d="M35.7287 137.025C32.4422 137.025 29.6855 138.201 27.3531 140.551C25.0207 142.901 23.8545 145.679 23.8545 148.991C23.8545 152.303 25.0207 155.08 27.3531 157.431C29.6855 159.781 32.4422 160.956 35.7287 160.956C39.0151 160.956 41.7718 159.781 44.1042 157.431C46.4366 155.08 47.6028 152.303 47.6028 148.991C47.6028 145.679 46.4366 142.901 44.1042 140.551C41.7718 138.201 39.0151 137.025 35.7287 137.025ZM38.4854 151.875C37.7428 152.623 36.7888 153.05 35.7287 153.05C34.6685 153.05 33.7145 152.623 32.9719 151.875C32.2301 151.127 31.8057 150.166 31.8057 149.098C31.8057 148.029 32.2301 147.068 32.9719 146.32C33.7145 145.572 34.6685 145.145 35.7287 145.145C36.7888 145.145 37.7428 145.572 38.4854 146.32C39.2273 147.068 39.6516 148.029 39.6516 149.098C39.6516 150.166 39.3333 151.127 38.4854 151.875Z" fill="black"/>
<path d="M67.4279 121C64.1407 121 61.3847 122.176 59.0523 124.526C56.7199 126.876 55.5537 129.654 55.5537 132.966V176.981H63.5049V144.397C64.7772 144.824 66.0495 145.038 67.4279 145.038C70.7143 145.038 73.4704 143.863 75.8027 141.512C78.1351 139.162 79.302 136.384 79.302 133.073C79.302 129.761 78.1351 126.983 75.8027 124.633C73.5764 122.176 70.7143 121 67.4279 121ZM70.29 135.85C69.5481 136.598 68.5941 137.025 67.5339 137.025C66.4738 137.025 65.5191 136.598 64.7772 135.85C64.0353 135.102 63.611 134.141 63.611 133.073C63.611 132.004 64.0353 131.043 64.7772 130.295C65.5191 129.547 66.4738 129.12 67.5339 129.12C68.5941 129.12 69.5481 129.547 70.29 130.295C71.0325 131.043 71.4562 132.004 71.4562 133.073C71.4562 134.141 71.0325 135.102 70.29 135.85Z" fill="black"/>
<path d="M125.95 169.075H86.1934V177.088H125.95V169.075Z" fill="black"/>
<path d="M125.949 121H117.997V161.063H125.949V121Z" fill="black"/>
<path d="M98.1713 161.063C101.458 161.063 104.214 159.887 106.547 157.537C108.879 155.187 110.045 152.409 110.045 149.097C110.045 145.785 108.879 143.008 106.547 140.657C104.214 138.307 101.458 137.132 98.1713 137.132C96.793 137.132 95.4153 137.346 94.2491 137.773V121H86.2979V148.99C86.2979 152.302 87.4634 155.08 89.7958 157.43C92.0228 159.887 94.8849 161.063 98.1713 161.063ZM95.3092 146.213C96.0511 145.465 97.0051 145.038 98.0652 145.038C99.1254 145.038 100.08 145.465 100.822 146.213C101.564 146.96 101.988 147.922 101.988 148.99C101.988 150.059 101.564 151.02 100.822 151.768C100.08 152.516 99.1254 152.943 98.0652 152.943C97.0051 152.943 96.0511 152.516 95.3092 151.768C94.5666 151.02 94.143 150.059 94.143 148.99C94.143 147.922 94.5666 147.067 95.3092 146.213Z" fill="black"/>
<path d="M149.804 133.5L141.853 125.487V121H133.901V177.088H141.853V137.025L149.804 145.038V177.088H157.755V121H149.804V133.5Z" fill="black"/>
<path d="M205.356 121H197.404V161.063H205.356V121Z" fill="black"/>
<path d="M177.579 161.063C180.866 161.063 183.622 159.887 185.955 157.537C188.287 155.187 189.453 152.409 189.453 149.097C189.453 145.785 188.287 143.008 185.955 140.657C183.622 138.307 180.866 137.132 177.579 137.132C176.201 137.132 174.823 137.346 173.657 137.773V121H165.705V148.99C165.705 152.302 166.871 155.08 169.204 157.43C171.536 159.887 174.293 161.063 177.579 161.063ZM174.823 146.213C175.565 145.465 176.519 145.038 177.579 145.038C178.639 145.038 179.593 145.465 180.336 146.213C181.078 146.96 181.502 147.922 181.502 148.99C181.502 150.059 181.078 151.02 180.336 151.768C179.593 152.516 178.639 152.943 177.579 152.943C176.519 152.943 175.565 152.516 174.823 151.768C174.081 151.02 173.657 150.059 173.657 148.99C173.657 147.922 173.975 147.067 174.823 146.213Z" fill="black"/>
<path d="M205.462 169.075H165.705V177.088H205.462V169.075Z" fill="black"/>
<path d="M230.273 121V140.123H221.261V121H213.31V148.136H230.273V177.088H238.224V121H230.273Z" fill="black"/>
<defs>
<clipPath id="clip0_142_15876">
<rect width="127" height="103" fill="white" transform="translate(66)"/>
</clipPath>
</defs>
</svg>
