<svg width="317" height="68" viewBox="0 0 317 68" fill="none" xmlns="http://www.w3.org/2000/svg">
<g clip-path="url(#clip0_142_15790)">
<path d="M94.8926 64.5969H102.306V20.4197H109.62V13.0569H94.8926V64.5969Z" fill="black"/>
<path d="M139.274 13.0571H117.033V20.42H139.274V13.0571Z" fill="black"/>
<path d="M139.274 57.2339H117.033V64.5968H139.274V57.2339Z" fill="black"/>
<path d="M30.3448 24.7389H8.59863V37.5012H30.3448V24.7389Z" fill="black"/>
<path d="M128.204 27.7825C125.14 27.7825 122.569 28.8623 120.395 31.0222C118.22 33.1819 117.133 35.7344 117.133 38.7777C117.133 41.821 118.22 44.3735 120.395 46.5332C122.569 48.693 125.14 49.7729 128.204 49.7729C131.268 49.7729 133.838 48.693 136.013 46.5332C138.187 44.3735 139.275 41.821 139.275 38.7777C139.275 35.7344 138.187 33.1819 136.013 31.0222C133.838 28.8623 131.268 27.7825 128.204 27.7825ZM130.774 41.4283C130.082 42.1155 129.192 42.5082 128.204 42.5082C127.215 42.5082 126.326 42.1155 125.633 41.4283C124.942 40.7411 124.546 39.8576 124.546 38.8759C124.546 37.8941 124.942 37.0106 125.633 36.3234C126.326 35.6362 127.215 35.2435 128.204 35.2435C129.192 35.2435 130.082 35.6362 130.774 36.3234C131.466 37.0106 131.861 37.8941 131.861 38.8759C131.861 39.8576 131.565 40.7411 130.774 41.4283Z" fill="black"/>
<path d="M157.758 13.0568C154.694 13.0568 152.124 14.1366 149.949 16.2964C147.775 18.4562 146.688 21.0086 146.688 24.0519V64.4986H154.101V34.5563C155.287 34.949 156.473 35.1453 157.758 35.1453C160.823 35.1453 163.392 34.0654 165.567 31.9057C167.741 29.7458 168.829 27.1934 168.829 24.1501C168.829 21.1068 167.741 18.5544 165.567 16.3946C163.491 14.1366 160.823 13.0568 157.758 13.0568ZM160.427 26.7025C159.735 27.3898 158.846 27.7825 157.857 27.7825C156.869 27.7825 155.979 27.3898 155.287 26.7025C154.595 26.0154 154.2 25.1318 154.2 24.1501C154.2 23.1684 154.595 22.2849 155.287 21.5977C155.979 20.9104 156.869 20.5177 157.857 20.5177C158.846 20.5177 159.735 20.9104 160.427 21.5977C161.119 22.2849 161.514 23.1684 161.514 24.1501C161.514 25.1318 161.119 26.0154 160.427 26.7025Z" fill="black"/>
<path d="M212.322 57.2339H175.255V64.5968H212.322V57.2339Z" fill="black"/>
<path d="M212.321 13.0565H204.907V49.8708H212.321V13.0565Z" fill="black"/>
<path d="M186.423 49.8708C189.487 49.8708 192.057 48.7909 194.232 46.6311C196.406 44.4713 197.494 41.9189 197.494 38.8755C197.494 35.8322 196.406 33.2798 194.232 31.12C192.057 28.9603 189.487 27.8804 186.423 27.8804C185.138 27.8804 183.853 28.0767 182.766 28.4694V13.0565H175.353V38.7774C175.353 41.8207 176.439 44.3732 178.614 46.5329C180.69 48.7908 183.359 49.8708 186.423 49.8708ZM183.754 36.2249C184.446 35.5378 185.335 35.1451 186.324 35.1451C187.312 35.1451 188.202 35.5378 188.894 36.2249C189.586 36.9121 189.981 37.7957 189.981 38.7774C189.981 39.7591 189.586 40.6427 188.894 41.3298C188.202 42.017 187.312 42.4097 186.324 42.4097C185.335 42.4097 184.446 42.017 183.754 41.3298C183.062 40.6427 182.667 39.7591 182.667 38.7774C182.667 37.7957 183.062 37.0103 183.754 36.2249Z" fill="black"/>
<path d="M234.562 24.5428L227.149 17.18V13.0568H219.735V64.5969H227.149V27.7825L234.562 35.1453V64.5969H241.975V13.0568H234.562V24.5428Z" fill="black"/>
<path d="M286.357 13.0565H278.943V49.8708H286.357V13.0565Z" fill="black"/>
<path d="M260.46 49.8708C263.524 49.8708 266.094 48.7909 268.269 46.6311C270.443 44.4713 271.53 41.9189 271.53 38.8755C271.53 35.8322 270.443 33.2798 268.269 31.12C266.094 28.9603 263.524 27.8804 260.46 27.8804C259.174 27.8804 257.89 28.0767 256.803 28.4694V13.0565H249.389V38.7774C249.389 41.8207 250.476 44.3732 252.651 46.5329C254.825 48.7908 257.395 49.8708 260.46 49.8708ZM257.89 36.2249C258.582 35.5378 259.471 35.1451 260.46 35.1451C261.448 35.1451 262.337 35.5378 263.03 36.2249C263.722 36.9121 264.117 37.7957 264.117 38.7774C264.117 39.7591 263.722 40.6427 263.03 41.3298C262.337 42.017 261.448 42.4097 260.46 42.4097C259.471 42.4097 258.582 42.017 257.89 41.3298C257.198 40.6427 256.803 39.7591 256.803 38.7774C256.803 37.7957 257.099 37.0103 257.89 36.2249Z" fill="black"/>
<path d="M286.456 57.2339H249.389V64.5968H286.456V57.2339Z" fill="black"/>
<path d="M309.588 13.0565V30.6292H301.186V13.0565H293.772V37.992H309.588V64.5966H317.002V13.0565H309.588Z" fill="black"/>
<path d="M55.4527 19.5361C66.5237 19.0452 80.8566 16.9836 82.3388 2.15977C78.1874 8.8354 70.1806 15.1184 59.7031 14.2349C65.6342 13.8422 73.4426 5.49759 68.6983 0C66.9187 10.1117 52.9816 12.9586 41.9108 12.7623C38.9454 12.6641 29.6539 11.6824 27.4793 11.7806C18.0888 12.1733 11.9604 16.0019 8.40196 21.9904C6.6227 24.9355 6.6227 28.3715 5.23886 31.9057C3.85501 35.2435 1.08731 38.6795 0 42.41C0.889616 42.5082 7.61117 42.1155 7.90769 42.5082C8.20421 42.9009 7.31465 46.7295 7.21581 47.6131C6.72154 51.4417 4.44808 56.9394 7.61117 57.9211C8.995 58.3138 13.1466 57.5284 14.3327 58.3138C15.6177 59.1973 16.0131 60.6698 15.7165 62.1424C15.3212 64.3022 14.9258 66.3636 14.8269 67.7381C16.4085 68.3274 38.8466 67.7381 38.8466 67.7381C38.1547 62.6333 37.7593 57.4302 38.1547 52.0308C38.4512 48.5948 39.835 46.3368 41.3178 43.9808C44.7774 45.0606 48.5335 46.8277 51.5978 45.7478C47.8416 44.6679 44.5797 40.9374 43.9866 39.4649C44.0854 39.3667 60.5928 44.2752 64.7441 38.2868C63.6568 38.5813 51.7955 38.8759 47.2485 32.3965C56.8366 36.7161 74.036 36.8143 78.583 27.8806C72.5531 30.7276 58.3193 31.6112 50.5105 24.4447C62.4709 27.6843 77.199 29.9422 84.5135 16.3946C82.6356 17.8672 81.6472 18.358 79.9664 19.2416C75.0244 22.0885 63.3604 21.6958 55.4527 19.5361ZM17.0015 34.4581C14.5304 34.5563 10.28 32.102 10.28 32.102C10.28 32.102 12.0593 30.9239 13.9373 30.1386C13.9373 30.3349 13.8385 30.6295 13.8385 30.8258C13.9373 32.5928 15.3212 31.9057 17.0015 31.9057C18.682 31.8075 19.9669 32.3965 19.9669 30.6295C19.9669 30.4331 19.9669 30.1386 19.8681 29.9422C21.7462 30.6295 23.5254 31.6112 23.5254 31.6112C23.5254 31.6112 19.3739 34.36 17.0015 34.4581Z" fill="#D71920"/>
<path d="M17.0016 33.5745C18.9123 33.5745 20.4612 32.0362 20.4612 30.1385C20.4612 28.2409 18.9123 26.7025 17.0016 26.7025C15.0909 26.7025 13.542 28.2409 13.542 30.1385C13.542 32.0362 15.0909 33.5745 17.0016 33.5745Z" fill="black"/>
<path d="M10.5762 28.1752L12.0588 25.7209L15.0243 24.2483L22.4377 26.7026L20.955 29.1569L19.8467 29.0468L16.0127 28.666L14.5758 29.1417L13.0473 29.6477L10.5762 28.1752Z" fill="#D71920"/>
<path d="M9.58887 32.1018C16.5081 27.6842 17.4966 27.6842 23.9216 31.6109" stroke="#D71920"/>
</g>
<defs>
<clipPath id="clip0_142_15790">
<rect width="317" height="68" fill="white"/>
</clipPath>
</defs>
</svg>
