<svg width="60" height="60" viewBox="0 0 60 60" fill="none" xmlns="http://www.w3.org/2000/svg">
<g clip-path="url(#clip0_2058_4486)">
<g filter="url(#filter0_d_2058_4486)">
<path d="M24.275 37.2616C23.3883 39.5235 22.7119 41.8726 22.2556 44.2753C21.9358 46.0692 21.6834 49.0292 23.1475 50.3208C23.4409 50.6209 23.804 50.8322 24.1995 50.9331C24.595 51.0339 25.0086 51.0206 25.3976 50.8945C25.7867 50.7685 26.1372 50.5341 26.4131 50.2157C26.6891 49.8973 26.8805 49.5066 26.9676 49.0832C27.1864 47.5405 26.7656 40.6697 26.7151 38.8938C26.7151 37.7278 26.7151 36.5439 26.7151 35.3061C26.7151 28.6689 26.4964 17.6192 26.4795 10.9819C26.4658 10.7809 26.3986 10.5878 26.2856 10.4262C26.1727 10.2645 26.0187 10.1408 25.842 10.0692C25.6652 9.99764 25.4729 9.98102 25.2877 10.0219C25.1025 10.0629 24.9322 10.1594 24.7967 10.3C20.4213 15.9507 18.5533 23.3056 21.2627 30.2658C21.7203 31.5268 22.464 32.6471 23.4272 33.5267C24.3905 34.4064 25.5432 35.0176 26.7824 35.3061M33.8673 27.4852C33.6654 31.3599 32.8912 35.1627 32.3864 39.0015C31.9323 41.459 31.7124 43.9591 31.7301 46.4637C31.8647 48.3832 32.521 50.9663 34.7424 50.9843C35.3512 51.0039 35.947 50.7946 36.4252 50.3926C36.9607 49.8163 37.3288 49.0872 37.4854 48.2935C37.7529 47.1203 37.8494 45.9103 37.7715 44.7058C37.7715 42.7864 37.3508 40.921 37.0984 39.0374C36.5935 35.1986 35.8194 31.3958 35.6175 27.5211M33.2278 10.6946V19.6638M36.3242 19.6099V10.6407M30.4848 10.6946V22.9826C30.4892 24.1848 30.9392 25.3365 31.7367 26.1866C32.5342 27.0367 33.6146 27.5164 34.7424 27.5211C35.8702 27.5164 36.9506 27.0367 37.7481 26.1866C38.5456 25.3365 38.9956 24.1848 39 22.9826V10.6946" stroke="white" stroke-width="1.5" stroke-linecap="round" stroke-linejoin="round" shape-rendering="crispEdges"/>
</g>
</g>
<defs>
<filter id="filter0_d_2058_4486" x="9.75" y="-0.25" width="39.5" height="61.5" filterUnits="userSpaceOnUse" color-interpolation-filters="sRGB">
<feFlood flood-opacity="0" result="BackgroundImageFix"/>
<feColorMatrix in="SourceAlpha" type="matrix" values="0 0 0 0 0 0 0 0 0 0 0 0 0 0 0 0 0 0 127 0" result="hardAlpha"/>
<feOffset/>
<feGaussianBlur stdDeviation="4.75"/>
<feComposite in2="hardAlpha" operator="out"/>
<feColorMatrix type="matrix" values="0 0 0 0 0 0 0 0 0 0.814378 0 0 0 0 0.773659 0 0 0 1 0"/>
<feBlend mode="normal" in2="BackgroundImageFix" result="effect1_dropShadow_2058_4486"/>
<feBlend mode="normal" in="SourceGraphic" in2="effect1_dropShadow_2058_4486" result="shape"/>
</filter>
<clipPath id="clip0_2058_4486">
<rect width="60" height="60" fill="white"/>
</clipPath>
</defs>
</svg>
