<svg width="60" height="60" viewBox="0 0 60 60" fill="none" xmlns="http://www.w3.org/2000/svg">
<g clip-path="url(#clip0_2058_4485)">
<g filter="url(#filter0_d_2058_4485)">
<path d="M22.24 47.3979C22.2052 47.3979 22.1705 47.3947 22.1389 47.3851C20.2067 46.8406 18.4229 45.621 17.1221 43.9459C15.6382 42.0385 14.89 39.7297 15.0131 37.4465C15.1362 35.1441 16.1339 33.1443 17.8136 31.8132C18.8839 30.9662 20.1878 30.4439 21.577 30.3006C21.7853 30.2783 21.9716 30.4312 21.9906 30.6413C22.0127 30.8515 21.8611 31.0394 21.6527 31.0585C20.4056 31.1859 19.2375 31.654 18.2808 32.4119C16.7717 33.6061 15.8813 35.4085 15.7677 37.4847C15.654 39.5833 16.3455 41.7073 17.7157 43.4683C18.9186 45.0159 20.5603 46.1432 22.341 46.6432C22.5431 46.7005 22.6599 46.9107 22.6031 47.1145C22.5557 47.2832 22.4041 47.3947 22.2368 47.3947L22.24 47.3979Z" fill="white"/>
<path d="M37.7663 47.4351C37.6022 47.4351 37.4475 47.3236 37.4001 47.1549C37.3433 46.9511 37.4632 46.7409 37.6622 46.6836C39.4397 46.1836 41.0814 45.0563 42.2875 43.5087C43.6577 41.7477 44.3491 39.6205 44.2355 37.5251C44.1218 35.4457 43.2315 33.6433 41.7223 32.4523C39.5344 30.72 36.3677 30.6053 33.6493 32.1593C33.4694 32.2644 33.2357 32.2007 33.1315 32.016C33.0273 31.8313 33.0937 31.5989 33.2736 31.4938C36.2603 29.7869 39.7585 29.927 42.1864 31.8504C43.8692 33.1815 44.8638 35.1814 44.9869 37.4837C45.11 39.767 44.3618 42.0725 42.8779 43.9832C41.5771 45.655 39.7933 46.8778 37.8611 47.4224C37.8263 47.4319 37.7916 47.4351 37.76 47.4351H37.7663Z" fill="white"/>
<path d="M32.5226 52.2254H27.3732C24.3455 52.2254 21.8828 49.7416 21.8828 46.6877V45.9362C21.8765 45.8502 21.7407 43.2358 24.3328 40.9939C26.7639 38.8922 26.8491 36.3319 26.8491 36.3064C26.8523 36.0962 27.0259 35.9147 27.2375 35.9338C27.4458 35.937 27.6132 36.1122 27.6069 36.3255C27.6069 36.4433 27.5121 39.2552 24.8285 41.5767C22.5364 43.5574 22.6342 45.8183 22.6406 45.9139V46.6877C22.6406 49.318 24.7654 51.4612 27.3732 51.4612H32.5226C35.1305 51.4612 37.2553 49.3212 37.2553 46.6877V45.9362C37.2616 45.8183 37.3595 43.5574 35.0674 41.5735C34.0823 40.7232 33.3372 39.7106 32.8478 38.561C32.7658 38.3667 32.8542 38.1438 33.0468 38.0579C33.2393 37.9751 33.4603 38.0642 33.5456 38.2585C33.9907 39.2998 34.6696 40.2201 35.563 40.9939C38.1551 43.2358 38.0225 45.8502 38.013 45.9585V46.6877C38.013 49.7416 35.5504 52.2254 32.5226 52.2254Z" fill="white"/>
<path d="M32.5707 54H27.4939C26.9035 54 26.4236 53.516 26.4236 52.9205C26.4236 52.7103 26.5941 52.5383 26.8025 52.5383C27.0109 52.5383 27.1814 52.7103 27.1814 52.9205C27.1814 53.0924 27.3203 53.2357 27.4939 53.2357H32.5707C32.7412 53.2357 32.8833 53.0956 32.8833 52.9205C32.8833 52.7103 33.0538 52.5383 33.2622 52.5383C33.4705 52.5383 33.641 52.7103 33.641 52.9205C33.641 53.516 33.1611 54 32.5707 54Z" fill="white"/>
<path d="M32.7094 36.6978H27.1905C26.6254 36.6978 26.1645 36.2329 26.1645 35.6629V34.9686C26.1645 34.3986 26.6254 33.9337 27.1905 33.9337H32.7094C33.2745 33.9337 33.7355 34.3986 33.7355 34.9686V35.6629C33.7355 36.2329 33.2745 36.6978 32.7094 36.6978ZM27.1905 34.698C27.0422 34.698 26.9222 34.819 26.9222 34.9686V35.6629C26.9222 35.8125 27.0422 35.9335 27.1905 35.9335H32.7094C32.8578 35.9335 32.9777 35.8125 32.9777 35.6629V34.9686C32.9777 34.819 32.8578 34.698 32.7094 34.698H27.1905Z" fill="white"/>
<path d="M32.4185 34.6947C32.2101 34.6947 32.0396 34.5227 32.0396 34.3126C32.0396 33.1502 31.1019 32.2045 29.9496 32.2045C28.7972 32.2045 27.8595 33.1502 27.8595 34.3126C27.8595 34.5227 27.689 34.6947 27.4806 34.6947C27.2722 34.6947 27.1017 34.5227 27.1017 34.3126C27.1017 32.7267 28.3804 31.4402 29.9496 31.4402C31.5187 31.4402 32.7974 32.7299 32.7974 34.3126C32.7974 34.5227 32.6269 34.6947 32.4185 34.6947Z" fill="white"/>
<path d="M31.0487 32.2049C30.8403 32.2049 30.6698 32.0329 30.6698 31.8228V17.738C30.6698 17.5278 30.8403 17.3559 31.0487 17.3559C31.2571 17.3559 31.4275 17.5278 31.4275 17.738V31.8228C31.4275 32.0329 31.2571 32.2049 31.0487 32.2049Z" fill="white"/>
<path d="M28.8508 32.2056C28.6424 32.2056 28.4719 32.0336 28.4719 31.8234V15.949C28.4719 15.7388 28.6424 15.5668 28.8508 15.5668C29.0591 15.5668 29.2296 15.7388 29.2296 15.949V31.8234C29.2296 32.0336 29.0591 32.2056 28.8508 32.2056Z" fill="white"/>
<path d="M31.4714 16.1399H28.4121C27.9574 16.1399 27.5849 15.7673 27.5849 15.3055V14.8279C27.5849 14.3693 27.9543 13.9935 28.4121 13.9935H31.4714C31.9261 13.9935 32.2986 14.3661 32.2986 14.8279V15.3055C32.2986 15.7641 31.9292 16.1399 31.4714 16.1399ZM28.4121 14.761C28.3742 14.761 28.3426 14.7928 28.3426 14.8311V15.3087C28.3426 15.3469 28.3742 15.3788 28.4121 15.3788H31.4714C31.5093 15.3788 31.5409 15.3469 31.5409 15.3087V14.8311C31.5409 14.7928 31.5093 14.761 31.4714 14.761H28.4121Z" fill="white"/>
<path d="M30.9607 14.6725C30.8408 14.6725 30.724 14.6151 30.6513 14.5101C30.5314 14.3381 30.5724 14.0993 30.746 13.9783C31.1312 13.7076 31.3522 13.2809 31.3522 12.8128C31.3522 12.4593 31.226 12.1154 31.0144 11.8924C30.8692 11.7396 30.8755 11.4976 31.0239 11.3511C31.1754 11.2046 31.4154 11.211 31.5606 11.3606C31.9111 11.7269 32.11 12.2555 32.11 12.8096C32.11 13.5197 31.7627 14.1916 31.1817 14.6024C31.1154 14.6502 31.0397 14.6725 30.9639 14.6725H30.9607Z" fill="white"/>
<path d="M28.9457 14.7063C28.8731 14.7063 28.8005 14.6871 28.7373 14.6426C28.1248 14.235 27.7586 13.5535 27.7586 12.8147C27.7586 12.2606 27.9575 11.732 28.308 11.3658C28.4532 11.2129 28.6932 11.2097 28.8447 11.3562C28.9962 11.5027 28.9994 11.7447 28.8542 11.8976C28.6426 12.1205 28.5163 12.4644 28.5163 12.8179C28.5163 13.2955 28.7531 13.7414 29.1541 14.0089C29.3277 14.1235 29.3751 14.3623 29.2614 14.5375C29.1888 14.6489 29.0688 14.7094 28.9457 14.7094V14.7063Z" fill="white"/>
<path d="M27.3487 12.0119C26.2089 12.0119 25.2807 11.0757 25.2807 9.92294V9.01856C25.2807 8.80838 25.4512 8.63642 25.6596 8.63642H34.2251C34.4335 8.63642 34.604 8.80838 34.604 9.01856V9.92294C34.604 11.0725 33.6757 12.0119 32.536 12.0119H27.3487ZM26.0353 9.40387V9.92612C26.0353 10.6554 26.6225 11.2477 27.3455 11.2477H32.5297C33.2527 11.2477 33.8399 10.6554 33.8399 9.92612V9.40387H26.0321H26.0353Z" fill="white"/>
<path d="M33.1768 7.76426H26.7076C26.4993 7.76426 26.3288 7.59231 26.3288 7.38214C26.3288 7.17196 26.4993 7 26.7076 7H33.1768C33.3852 7 33.5556 7.17196 33.5556 7.38214C33.5556 7.59231 33.3852 7.76426 33.1768 7.76426Z" fill="white"/>
<path d="M34.9856 45.1782C34.8815 45.1782 34.7804 45.1368 34.7047 45.054L33.7575 44.0063C33.6565 43.8948 33.5175 43.8312 33.366 43.8312H33.3597C33.2113 43.8312 33.0724 43.8917 32.9713 43.9999L32.6556 44.3375C32.4094 44.6018 32.0684 44.7483 31.7022 44.7451C31.3454 44.7419 30.9981 44.5859 30.7581 44.3216L30.474 44.0063C30.373 43.8948 30.234 43.8312 30.0825 43.8312H30.0762C29.9278 43.8312 29.7889 43.8917 29.6878 43.9999L29.369 44.3375C29.1227 44.5986 28.7659 44.7546 28.4186 44.7451C28.0587 44.7451 27.7146 44.5859 27.4746 44.3216L27.1905 44.0063C27.0894 43.8948 26.9505 43.8312 26.799 43.8312H26.7927C26.6443 43.8312 26.5054 43.8917 26.4012 43.9999L25.4067 45.0603C25.2646 45.2132 25.0246 45.2196 24.8699 45.0763C24.7184 44.9298 24.7121 44.691 24.8541 44.5349L25.8487 43.4745C26.0949 43.2134 26.4391 43.0669 26.8021 43.0669C27.1621 43.0701 27.5062 43.2261 27.7461 43.4904L28.0303 43.8057C28.1313 43.9171 28.2703 43.9808 28.4218 43.9808H28.4281C28.5765 43.9808 28.7154 43.9203 28.8164 43.8121L29.1353 43.4745C29.3784 43.2134 29.7226 43.0669 30.0762 43.0669H30.0888C30.4487 43.0669 30.7929 43.2261 31.0328 43.4904L31.317 43.8057C31.418 43.9171 31.5569 43.9808 31.7085 43.9808C31.8442 43.9808 31.9989 43.9235 32.1031 43.8121L32.4188 43.4745C32.6651 43.2102 33.0187 43.0764 33.3723 43.0669C33.7291 43.0701 34.0732 43.2261 34.3163 43.4904L35.2635 44.5381C35.4056 44.6941 35.3929 44.9362 35.2382 45.0795C35.1656 45.1463 35.074 45.1782 34.9825 45.1782H34.9856Z" fill="white"/>
<path d="M34.9856 48.5757C34.8815 48.5757 34.7804 48.5343 34.7047 48.4515L33.7575 47.4038C33.6565 47.2924 33.5175 47.2287 33.366 47.2287C33.2018 47.2287 33.0755 47.286 32.9713 47.3975L32.6556 47.735C32.4094 47.9961 32.0684 48.1426 31.7021 48.1426C31.3422 48.1395 30.9981 47.9834 30.7581 47.7191L30.474 47.407C30.373 47.2956 30.234 47.2319 30.0825 47.2319C29.9436 47.2319 29.792 47.2892 29.6878 47.4007L29.369 47.7382C29.1259 47.9993 28.7817 48.1458 28.4281 48.1458H28.4155C28.0556 48.1458 27.7114 47.9866 27.4715 47.7223L27.1873 47.4102C27.0863 47.2988 26.9474 47.2351 26.7958 47.2351C26.6285 47.2351 26.5054 47.2956 26.4012 47.4038L25.4067 48.4643C25.2614 48.6171 25.0215 48.6235 24.8699 48.4802C24.7184 48.3337 24.7121 48.0949 24.8541 47.9388L25.8487 46.8784C26.0949 46.6141 26.4391 46.4676 26.8021 46.4708C27.1621 46.474 27.5062 46.63 27.7461 46.8975L28.0303 47.2096C28.1313 47.321 28.2702 47.3847 28.4218 47.3847C28.586 47.3847 28.7123 47.3274 28.8164 47.216L29.1353 46.8784C29.3784 46.6173 29.7226 46.4708 30.0762 46.4708H30.0888C30.4487 46.474 30.7929 46.63 31.0328 46.8975L31.317 47.2096C31.418 47.321 31.5569 47.3847 31.7084 47.3847H31.7148C31.8632 47.3847 32.0021 47.3242 32.1063 47.216L32.422 46.8784C32.6682 46.6173 33.0219 46.474 33.3755 46.4708C33.7322 46.474 34.0764 46.63 34.3195 46.8975L35.2666 47.9452C35.4087 48.1012 35.3961 48.3433 35.2414 48.4866C35.1688 48.5534 35.0772 48.5853 34.9856 48.5853V48.5757Z" fill="white"/>
<path d="M32.6056 34.0724C32.5046 34.0724 32.4035 34.031 32.3309 33.9514C32.1889 33.7985 32.1952 33.5565 32.3467 33.41L33.1423 32.6553C33.1423 32.6553 33.1644 32.6362 33.1771 32.6267C33.3507 32.4961 33.3854 32.2477 33.256 32.0726C33.1297 31.9006 32.8929 31.8624 32.7224 31.9802L31.9457 32.719C31.791 32.8623 31.5543 32.8559 31.409 32.7031C31.267 32.5502 31.2733 32.3082 31.4248 32.1617L32.2204 31.407C32.2204 31.407 32.2425 31.3879 32.2552 31.3784C32.5014 31.1937 32.8045 31.1172 33.1076 31.1618C33.4107 31.2064 33.6791 31.3688 33.8622 31.6172C34.0453 31.8656 34.1211 32.1713 34.0769 32.477C34.0327 32.7763 33.8811 33.0406 33.6443 33.2253L32.8613 33.9673C32.7887 34.0374 32.694 34.0724 32.6024 34.0724H32.6056Z" fill="white"/>
<path d="M24.9078 32.6862C24.731 32.6862 24.5605 32.6448 24.3994 32.562C23.6859 32.1894 22.9692 31.9633 22.2083 31.8678C21.6053 31.7946 21.1728 31.2564 21.2233 30.645C21.277 30.0272 21.8263 29.5527 22.4451 29.6132C23.4775 29.7151 24.5226 30.0622 25.4634 30.6195C25.836 30.8392 26.0444 31.2596 26.0002 31.6927C25.9433 32.2595 25.4729 32.6862 24.9046 32.6862H24.9078ZM22.3378 30.3743C22.1515 30.3743 21.9937 30.524 21.9779 30.7118C21.9621 30.9093 22.101 31.0844 22.2999 31.1099C23.1523 31.215 23.9511 31.4666 24.7467 31.8805C24.9362 31.9793 25.2203 31.8869 25.2487 31.613C25.2614 31.4793 25.1982 31.3487 25.0814 31.2787C24.2353 30.7755 23.2976 30.4635 22.3725 30.3743C22.3599 30.3743 22.3472 30.3743 22.3378 30.3743Z" fill="white"/>
<path d="M26.2815 32.7437C26.2088 32.7437 26.1362 32.7214 26.0731 32.68C25.5932 32.3584 25.429 32.2947 25.4227 32.2947C25.2206 32.2406 25.1101 32.0336 25.1638 31.8298C25.2175 31.626 25.4353 31.5082 25.6374 31.5623C25.7069 31.5814 25.9279 31.6642 26.493 32.0463C26.6667 32.1642 26.714 32.3998 26.5972 32.575C26.5246 32.6864 26.4046 32.7437 26.2815 32.7437Z" fill="white"/>
</g>
</g>
<defs>
<filter id="filter0_d_2058_4485" x="5.5" y="-2.5" width="49" height="66" filterUnits="userSpaceOnUse" color-interpolation-filters="sRGB">
<feFlood flood-opacity="0" result="BackgroundImageFix"/>
<feColorMatrix in="SourceAlpha" type="matrix" values="0 0 0 0 0 0 0 0 0 0 0 0 0 0 0 0 0 0 127 0" result="hardAlpha"/>
<feOffset/>
<feGaussianBlur stdDeviation="4.75"/>
<feComposite in2="hardAlpha" operator="out"/>
<feColorMatrix type="matrix" values="0 0 0 0 0 0 0 0 0 0.814378 0 0 0 0 0.773659 0 0 0 1 0"/>
<feBlend mode="normal" in2="BackgroundImageFix" result="effect1_dropShadow_2058_4485"/>
<feBlend mode="normal" in="SourceGraphic" in2="effect1_dropShadow_2058_4485" result="shape"/>
</filter>
<clipPath id="clip0_2058_4485">
<rect width="60" height="60" fill="white"/>
</clipPath>
</defs>
</svg>
