<svg width="60" height="60" viewBox="0 0 60 60" fill="none" xmlns="http://www.w3.org/2000/svg">
<g clip-path="url(#clip0_2058_4487)">
<g filter="url(#filter0_d_2058_4487)">
<path d="M46.5128 33.8269C45.5208 29.9817 43.253 26.5707 40.0675 24.1328C36.882 21.6949 32.9606 20.3689 28.9224 20.3644M28.9224 20.3644C24.8831 20.3644 20.9594 21.6887 17.773 24.1274C14.5866 26.566 12.3199 29.9795 11.332 33.8269L10.5181 37.3086M28.9224 20.3644C29.7371 20.3644 30.5184 20.0465 31.0945 19.4806C31.6705 18.9147 31.9942 18.1472 31.9942 17.3469C31.9942 15.6706 30.629 15 28.9224 15C27.2159 15 25.8506 15.6706 25.8506 17.3469C25.8506 18.1472 26.1743 18.9147 26.7503 19.4806C27.3264 20.0465 28.1078 20.3644 28.9224 20.3644ZM46.9329 42.0541C47.1482 42.258 47.3195 42.5023 47.4368 42.7726C47.5541 43.0428 47.6149 43.3335 47.6156 43.6272C47.5626 44.2749 47.2629 44.8791 46.7761 45.3189C46.2894 45.7588 45.6515 46.0021 44.9901 46H14.0099C13.3485 46.0021 12.7107 45.7588 12.224 45.3189C11.7372 44.8791 11.4373 44.2749 11.3844 43.6272C11.3902 43.0396 11.6251 42.4766 12.0408 42.0541H9.62544C8.96404 42.0561 8.32619 41.8129 7.83944 41.373C7.35269 40.9331 7.05291 40.329 7 39.6813C7.00641 39.3539 7.08031 39.0311 7.21721 38.7325C7.35411 38.4339 7.55113 38.1656 7.79649 37.9439C8.04186 37.7221 8.33041 37.5515 8.64475 37.4423C8.95908 37.3331 9.29272 37.2877 9.62544 37.3087H49.1908C49.538 37.261 49.8915 37.2866 50.2278 37.3836C50.5641 37.4806 50.8755 37.6469 51.1413 37.8714C51.407 38.0959 51.6211 38.3734 51.7692 38.6855C51.9172 38.9975 51.9959 39.337 52 39.6813C51.9471 40.329 51.6473 40.9331 51.1606 41.373C50.6738 41.8129 50.036 42.0561 49.3746 42.0541H46.9329ZM46.9329 42.0541L43.5199 42.054M12.224 42.054H23.6453M30.8915 24.6197C30.8915 24.6197 37.8226 24.8003 41.7345 33.8269" stroke="#F8F8F8" stroke-width="1.5" stroke-linecap="round" stroke-linejoin="round" shape-rendering="crispEdges"/>
</g>
</g>
<defs>
<filter id="filter0_d_2058_4487" x="-3.25" y="4.75" width="65.5" height="51.5" filterUnits="userSpaceOnUse" color-interpolation-filters="sRGB">
<feFlood flood-opacity="0" result="BackgroundImageFix"/>
<feColorMatrix in="SourceAlpha" type="matrix" values="0 0 0 0 0 0 0 0 0 0 0 0 0 0 0 0 0 0 127 0" result="hardAlpha"/>
<feOffset/>
<feGaussianBlur stdDeviation="4.75"/>
<feComposite in2="hardAlpha" operator="out"/>
<feColorMatrix type="matrix" values="0 0 0 0 0 0 0 0 0 0.814378 0 0 0 0 0.773659 0 0 0 1 0"/>
<feBlend mode="normal" in2="BackgroundImageFix" result="effect1_dropShadow_2058_4487"/>
<feBlend mode="normal" in="SourceGraphic" in2="effect1_dropShadow_2058_4487" result="shape"/>
</filter>
<clipPath id="clip0_2058_4487">
<rect width="60" height="60" fill="white"/>
</clipPath>
</defs>
</svg>
