<svg width="60" height="60" viewBox="0 0 60 60" fill="none" xmlns="http://www.w3.org/2000/svg">
<g filter="url(#filter0_d_2058_4488)">
<path d="M15.0151 24.0949L14.7454 23.6387C14.556 23.3195 14.4882 22.9447 14.5541 22.581C14.6199 22.2173 14.8152 21.8881 15.105 21.6526L15.5096 21.3142C15.8069 21.085 16.0049 20.7541 16.0641 20.3876L16.154 19.8726C16.2174 19.5207 16.3998 19.2 16.6717 18.9624C16.9436 18.7249 17.2891 18.5844 17.6525 18.5634H18.1919C18.5716 18.5739 18.9412 18.4424 19.2259 18.1956L19.6305 17.8573C19.9186 17.6216 20.2818 17.4924 20.6569 17.4924C21.032 17.4924 21.3952 17.6216 21.6834 17.8573M35.1698 33.1274C34.8733 33.6923 34.3711 34.1269 33.763 34.345C33.155 34.563 32.4857 34.5486 31.8881 34.3044L31.004 33.9808C30.3682 33.7644 29.6768 33.7644 29.041 33.9808L28.1419 34.3044C27.5369 34.5346 26.8681 34.5456 26.2556 34.3353C25.6432 34.1249 25.1272 33.7071 24.8003 33.1568M21.6834 18.1514L21.8482 17.2245C21.9649 16.5751 22.3116 15.9871 22.8271 15.5644C23.3427 15.1418 23.9938 14.912 24.6654 14.915H25.6244C26.2942 14.9123 26.9415 14.6776 27.4526 14.2528L28.1868 13.6497C28.703 13.2299 29.3522 13 30.0225 13C30.6928 13 31.342 13.2299 31.8581 13.6497L32.5924 14.2528C33.1022 14.6799 33.7503 14.9149 34.4205 14.915H35.3796C36.0496 14.9177 36.6977 15.1499 37.212 15.5716C37.7263 15.9933 38.0746 16.5777 38.1967 17.2245L38.3616 18.1514C38.4687 18.8037 38.8151 19.3948 39.3356 19.8136L40.0549 20.417C40.414 20.7057 40.6949 21.0768 40.8727 21.4978C41.0505 21.9187 41.1196 22.3761 41.0738 22.8295M18.9861 22.9326C18.9201 22.4654 18.9762 21.9892 19.1492 21.5491C19.3222 21.109 19.6064 20.7196 19.9751 20.417M21.099 35.5693C21.099 35.5693 26.1339 35.5694 26.4336 47M28.966 40.3505C28.3667 35.3045 25.6244 34.0249 25.6244 34.0249M34.5854 30.9354L34.4805 31.4943C34.414 31.88 34.4869 32.2767 34.6867 32.6152C34.8864 32.9537 35.2004 33.2127 35.5744 33.3479L36.0988 33.5246C36.472 33.6674 36.7876 33.9256 36.9979 34.2602L37.2677 34.7458C37.4725 35.0804 37.788 35.336 38.1616 35.4698C38.5352 35.6037 38.9443 35.6078 39.3206 35.4813L39.86 35.2899C40.2328 35.1573 40.6411 35.1573 41.0139 35.2899L41.5533 35.4813C41.9272 35.6097 42.3349 35.6062 42.7067 35.472C43.0784 35.3378 43.3911 35.0813 43.5913 34.7458L43.876 34.2602C44.0763 33.9229 44.3884 33.6633 44.7601 33.5246L45.2996 33.3479C45.6735 33.2127 45.9875 32.9537 46.1872 32.6152C46.387 32.2767 46.4599 31.88 46.3934 31.4943L46.2885 30.9354C46.2142 30.5501 46.289 30.1514 46.4983 29.8174L46.7681 29.3318C46.9702 28.9946 47.0436 28.5977 46.9749 28.2123C46.9063 27.8268 46.7002 27.478 46.3934 27.2282L45.9589 26.8751C45.6553 26.6238 45.4533 26.2743 45.3895 25.8896L45.2846 25.3451C45.2148 24.9605 45.0104 24.612 44.7067 24.3596C44.4031 24.1071 44.0191 23.9665 43.6212 23.9623H43.0518C42.6524 23.9667 42.2646 23.831 41.9579 23.5798L41.5234 23.212C41.2187 22.9619 40.8341 22.8249 40.437 22.8249C40.0398 22.8249 39.6552 22.9619 39.3506 23.212L38.916 23.5798C38.608 23.8288 38.221 23.9641 37.8221 23.9623H37.2527C36.854 23.9637 36.4685 24.103 36.1642 24.356C35.86 24.6089 35.6564 24.9592 35.5893 25.3451L35.4845 25.8896C35.4206 26.2743 35.2186 26.6238 34.915 26.8751L34.4805 27.2282M44.9849 24.0949L45.2546 23.6387C45.444 23.3195 45.5118 22.9447 45.4459 22.581C45.3801 22.2173 45.1848 21.8881 44.895 21.6526L44.4904 21.3142C44.2061 21.0741 44.0111 20.7483 43.9359 20.3876L43.846 19.8726C43.7852 19.5195 43.6035 19.1976 43.3311 18.9596C43.0587 18.7215 42.7117 18.5818 42.3475 18.5634H41.8081C41.4335 18.5702 41.07 18.439 40.7891 18.1956L40.3695 17.8573C40.0942 17.6133 39.7365 17.478 39.3655 17.478C38.9946 17.478 38.6369 17.6133 38.3616 17.8573M38.901 35.5693C38.901 35.5693 33.8661 35.5694 33.5814 47M31.034 40.3505C31.6334 35.3045 34.3756 34.0249 34.3756 34.0249M20.6644 23.212L21.099 23.5798C21.4017 23.8278 21.7837 23.9632 22.1779 23.9623H22.7473C23.147 23.966 23.533 24.1058 23.8392 24.3581C24.1453 24.6104 24.3527 24.9593 24.4256 25.3451L24.5155 25.8896C24.5859 26.2755 24.7928 26.6245 25.0999 26.8751L25.5345 27.2282C25.8387 27.4798 26.0429 27.8283 26.1114 28.213C26.1799 28.5977 26.1083 28.9938 25.9091 29.3318L25.6244 29.8174C25.4267 30.1557 25.3577 30.5519 25.4296 30.9354L25.5195 31.4943C25.5891 31.8803 25.5174 32.2782 25.3173 32.6174C25.1171 32.9566 24.8013 33.2152 24.4256 33.3479L23.9012 33.5246C23.5294 33.6633 23.2174 33.9229 23.017 34.2602L22.7323 34.7458C22.5295 35.0825 22.2141 35.3397 21.8398 35.4738C21.4655 35.6079 21.0555 35.6106 20.6794 35.4813L20.1549 35.2899C19.777 35.1575 19.364 35.1575 18.9861 35.2899L18.4617 35.4813C18.0856 35.6106 17.6755 35.6079 17.3012 35.4738C16.9269 35.3397 16.6115 35.0825 16.4087 34.7458L16.124 34.2602C15.9237 33.9229 15.6116 33.6633 15.2399 33.5246L14.7004 33.3479C14.3276 33.2125 14.0151 32.9527 13.8179 32.6138C13.6206 32.2749 13.5511 31.8785 13.6215 31.4943L13.7115 30.9354C13.7834 30.5519 13.7143 30.1557 13.5167 29.8174L13.2319 29.3318C13.0298 28.9946 12.9564 28.5977 13.0251 28.2123C13.0937 27.8268 13.2998 27.478 13.6066 27.2282L14.0411 26.8751C14.3434 26.6206 14.5494 26.2734 14.6255 25.8896L14.7154 25.3451C14.7884 24.9593 14.9957 24.6104 15.3019 24.3581C15.6081 24.1058 15.994 23.966 16.3937 23.9623H16.9632C17.3574 23.9632 17.7394 23.8278 18.0421 23.5798L18.4766 23.212C18.7849 22.9634 19.1715 22.8274 19.5705 22.8274C19.9695 22.8274 20.3561 22.9634 20.6644 23.212Z" stroke="white" stroke-width="1.5" stroke-linecap="round" stroke-linejoin="round" shape-rendering="crispEdges"/>
</g>
<defs>
<filter id="filter0_d_2058_4488" x="2.75" y="2.75" width="54.5" height="54.5" filterUnits="userSpaceOnUse" color-interpolation-filters="sRGB">
<feFlood flood-opacity="0" result="BackgroundImageFix"/>
<feColorMatrix in="SourceAlpha" type="matrix" values="0 0 0 0 0 0 0 0 0 0 0 0 0 0 0 0 0 0 127 0" result="hardAlpha"/>
<feOffset/>
<feGaussianBlur stdDeviation="4.75"/>
<feComposite in2="hardAlpha" operator="out"/>
<feColorMatrix type="matrix" values="0 0 0 0 0 0 0 0 0 0.814378 0 0 0 0 0.773659 0 0 0 1 0"/>
<feBlend mode="normal" in2="BackgroundImageFix" result="effect1_dropShadow_2058_4488"/>
<feBlend mode="normal" in="SourceGraphic" in2="effect1_dropShadow_2058_4488" result="shape"/>
</filter>
</defs>
</svg>
