<svg width="121" height="26" viewBox="0 0 121 26" fill="none" xmlns="http://www.w3.org/2000/svg">
<g clip-path="url(#clip0_18_24435)">
<path d="M36.2207 24.6989H39.0504V7.80763H41.8424V4.99243H36.2207V24.6989Z" fill="black"/>
<path d="M53.1617 4.99243H44.6724V7.80763H53.1617V4.99243Z" fill="black"/>
<path d="M53.1617 21.8835H44.6724V24.6988H53.1617V21.8835Z" fill="black"/>
<path d="M11.5833 9.45898H3.28271V14.3387H11.5833V9.45898Z" fill="black"/>
<path d="M48.9358 10.6228C47.7662 10.6228 46.7851 11.0357 45.9551 11.8615C45.125 12.6873 44.71 13.6632 44.71 14.8269C44.71 15.9905 45.125 16.9664 45.9551 17.7922C46.7851 18.618 47.7662 19.0309 48.9358 19.0309C50.1054 19.0309 51.0864 18.618 51.9165 17.7922C52.7465 16.9664 53.1616 15.9905 53.1616 14.8269C53.1616 13.6632 52.7465 12.6873 51.9165 11.8615C51.0864 11.0357 50.1054 10.6228 48.9358 10.6228ZM49.9168 15.8403C49.6526 16.1031 49.313 16.2532 48.9358 16.2532C48.5585 16.2532 48.219 16.1031 47.9547 15.8403C47.6907 15.5776 47.5397 15.2398 47.5397 14.8644C47.5397 14.489 47.6907 14.1512 47.9547 13.8885C48.219 13.6257 48.5585 13.4756 48.9358 13.4756C49.313 13.4756 49.6526 13.6257 49.9168 13.8885C50.1809 14.1512 50.3319 14.489 50.3319 14.8644C50.3319 15.2398 50.2186 15.5776 49.9168 15.8403Z" fill="black"/>
<path d="M60.217 4.99219C59.0472 4.99219 58.0664 5.40508 57.2363 6.23087C56.4062 7.05666 55.9912 8.0326 55.9912 9.19622V24.6611H58.8209V13.2126C59.2737 13.3627 59.7265 13.4378 60.217 13.4378C61.3866 13.4378 62.3674 13.0249 63.1975 12.1991C64.0275 11.3733 64.4428 10.3974 64.4428 9.23375C64.4428 8.07015 64.0275 7.09422 63.1975 6.2684C62.4052 5.40508 61.3866 4.99219 60.217 4.99219ZM61.2356 10.2097C60.9716 10.4725 60.632 10.6226 60.2548 10.6226C59.8775 10.6226 59.5377 10.4725 59.2737 10.2097C59.0097 9.94695 58.8587 9.60911 58.8587 9.23375C58.8587 8.85841 59.0097 8.52058 59.2737 8.25784C59.5377 7.99507 59.8775 7.84492 60.2548 7.84492C60.632 7.84492 60.9716 7.99507 61.2356 8.25784C61.4999 8.52058 61.6506 8.85841 61.6506 9.23375C61.6506 9.60911 61.4999 9.94695 61.2356 10.2097Z" fill="black"/>
<path d="M81.0443 21.8835H66.8955V24.6988H81.0443V21.8835Z" fill="black"/>
<path d="M81.0443 4.99219H78.2144V19.0682H81.0443V4.99219Z" fill="black"/>
<path d="M71.1587 19.0682C72.3283 19.0682 73.3093 18.6553 74.1394 17.8295C74.9694 17.0037 75.3845 16.0278 75.3845 14.8642C75.3845 13.7006 74.9694 12.7246 74.1394 11.8988C73.3093 11.073 72.3283 10.6601 71.1587 10.6601C70.6681 10.6601 70.1778 10.7352 69.7628 10.8854V4.99219H66.9331V14.8266C66.9331 15.9903 67.3479 16.9662 68.1779 17.792C68.9705 18.6553 69.9891 19.0682 71.1587 19.0682ZM70.1401 13.8507C70.4041 13.588 70.7436 13.4378 71.1209 13.4378C71.4982 13.4378 71.838 13.588 72.102 13.8507C72.366 14.1134 72.517 14.4513 72.517 14.8266C72.517 15.202 72.366 15.5398 72.102 15.8026C71.838 16.0653 71.4982 16.2155 71.1209 16.2155C70.7436 16.2155 70.4041 16.0653 70.1401 15.8026C69.8758 15.5398 69.7251 15.202 69.7251 14.8266C69.7251 14.4513 69.8758 14.151 70.1401 13.8507Z" fill="black"/>
<path d="M89.5334 9.3839L86.7037 6.5687V4.99219H83.874V24.6987H86.7037V10.6226L89.5334 13.4378V24.6987H92.3631V4.99219H89.5334V9.3839Z" fill="black"/>
<path d="M109.304 4.99219H106.474V19.0682H109.304V4.99219Z" fill="black"/>
<path d="M99.4187 19.0682C100.588 19.0682 101.569 18.6553 102.399 17.8295C103.229 17.0037 103.644 16.0278 103.644 14.8642C103.644 13.7006 103.229 12.7246 102.399 11.8988C101.569 11.073 100.588 10.6601 99.4187 10.6601C98.9281 10.6601 98.4378 10.7352 98.0228 10.8854V4.99219H95.1929V14.8266C95.1929 15.9903 95.6079 16.9662 96.438 17.792C97.268 18.6553 98.2491 19.0682 99.4187 19.0682ZM98.4378 13.8507C98.7019 13.588 99.0414 13.4378 99.4187 13.4378C99.796 13.4378 100.135 13.588 100.4 13.8507C100.664 14.1134 100.815 14.4513 100.815 14.8266C100.815 15.202 100.664 15.5398 100.4 15.8026C100.135 16.0653 99.796 16.2155 99.4187 16.2155C99.0414 16.2155 98.7019 16.0653 98.4378 15.8026C98.1736 15.5398 98.0228 15.202 98.0228 14.8266C98.0228 14.4513 98.1358 14.151 98.4378 13.8507Z" fill="black"/>
<path d="M109.342 21.8835H95.1929V24.6988H109.342V21.8835Z" fill="black"/>
<path d="M118.17 4.99219V11.7111H114.963V4.99219H112.133V14.5263H118.17V24.6987H121V4.99219H118.17Z" fill="black"/>
<path d="M21.1665 7.46968C25.3923 7.282 30.8632 6.49374 31.429 0.825794C29.8444 3.37824 26.7882 5.78055 22.7889 5.44274C25.0528 5.29259 28.0333 2.10202 26.2224 0C25.5431 3.86622 20.2233 4.95476 15.9975 4.87969C14.8656 4.84216 11.319 4.4668 10.4889 4.50433C6.90457 4.65448 4.56533 6.11838 3.20706 8.40809C2.52791 9.53418 2.52791 10.8479 1.99969 12.1992C1.47147 13.4755 0.41503 14.7892 0 16.2156C0.33957 16.2531 2.90521 16.103 3.01839 16.2531C3.13158 16.4033 2.79203 17.8672 2.7543 18.205C2.56564 19.6689 1.69785 21.7709 2.90521 22.1463C3.43342 22.2964 5.01809 21.9961 5.47085 22.2964C5.96133 22.6343 6.11224 23.1973 5.99906 23.7603C5.84815 24.5861 5.69724 25.3743 5.65948 25.8999C6.26318 26.1252 14.8279 25.8999 14.8279 25.8999C14.5638 23.948 14.4128 21.9586 14.5638 19.8941C14.677 18.5804 15.2052 17.717 15.7711 16.8162C17.0917 17.2291 18.5254 17.9047 19.695 17.4918C18.2613 17.0789 17.0162 15.6526 16.7898 15.0895C16.8276 15.052 23.1285 16.9288 24.713 14.6391C24.298 14.7517 19.7705 14.8643 18.0349 12.3869C21.6947 14.0385 28.2598 14.076 29.9954 10.6602C27.6938 11.7488 22.2607 12.0866 19.28 9.34649C23.8453 10.5852 29.4671 11.4485 32.2591 6.26853C31.5423 6.83157 31.165 7.01925 30.5235 7.35709C28.6371 8.44562 24.1849 8.29547 21.1665 7.46968ZM6.48954 13.1752C5.5463 13.2127 3.92391 12.2743 3.92391 12.2743C3.92391 12.2743 4.60306 11.8239 5.31993 11.5236C5.31993 11.5986 5.28221 11.7113 5.28221 11.7863C5.31993 12.462 5.84815 12.1992 6.48954 12.1992C7.13097 12.1617 7.62145 12.3869 7.62145 11.7113C7.62145 11.6362 7.62145 11.5236 7.58372 11.4485C8.3006 11.7113 8.97972 12.0866 8.97972 12.0866C8.97972 12.0866 7.39508 13.1376 6.48954 13.1752Z" fill="#D71920"/>
<path d="M6.48949 12.8372C7.21881 12.8372 7.81004 12.2491 7.81004 11.5235C7.81004 10.7979 7.21881 10.2097 6.48949 10.2097C5.76017 10.2097 5.16895 10.7979 5.16895 11.5235C5.16895 12.2491 5.76017 12.8372 6.48949 12.8372Z" fill="black"/>
<path d="M4.03711 10.7729L4.60305 9.83453L5.73496 9.27148L8.56471 10.2099L7.99875 11.1483L7.57571 11.1062L6.11226 10.9606L5.56377 11.1425L4.98035 11.336L4.03711 10.7729Z" fill="#D71920"/>
<path d="M3.65967 12.2742C6.30076 10.5851 6.67806 10.5851 9.13051 12.0865" stroke="#D71920"/>
</g>
<defs>
<clipPath id="clip0_18_24435">
<rect width="121" height="26" fill="white"/>
</clipPath>
</defs>
</svg>
