<svg width="121" height="26" viewBox="0 0 121 26" fill="none" xmlns="http://www.w3.org/2000/svg">
<g clip-path="url(#clip0_2029_2839)">
<path d="M36.2207 24.6988H39.0504V7.80751H41.8424V4.99231H36.2207V24.6988Z" fill="#D71920"/>
<path d="M53.1617 4.99231H44.6724V7.80751H53.1617V4.99231Z" fill="#D71920"/>
<path d="M53.1617 21.8835H44.6724V24.6988H53.1617V21.8835Z" fill="#D71920"/>
<path d="M11.5833 9.45911H3.28271V14.3388H11.5833V9.45911Z" fill="black"/>
<path d="M48.9358 10.6227C47.7662 10.6227 46.7851 11.0356 45.9551 11.8614C45.125 12.6872 44.71 13.6631 44.71 14.8267C44.71 15.9904 45.125 16.9663 45.9551 17.7921C46.7851 18.6179 47.7662 19.0308 48.9358 19.0308C50.1054 19.0308 51.0864 18.6179 51.9165 17.7921C52.7465 16.9663 53.1616 15.9904 53.1616 14.8267C53.1616 13.6631 52.7465 12.6872 51.9165 11.8614C51.0864 11.0356 50.1054 10.6227 48.9358 10.6227ZM49.9168 15.8402C49.6526 16.103 49.313 16.2531 48.9358 16.2531C48.5585 16.2531 48.219 16.103 47.9547 15.8402C47.6907 15.5775 47.5397 15.2396 47.5397 14.8643C47.5397 14.4889 47.6907 14.1511 47.9547 13.8883C48.219 13.6256 48.5585 13.4754 48.9358 13.4754C49.313 13.4754 49.6526 13.6256 49.9168 13.8883C50.1809 14.1511 50.3319 14.4889 50.3319 14.8643C50.3319 15.2396 50.2186 15.5775 49.9168 15.8402Z" fill="#D71920"/>
<path d="M60.217 4.99231C59.0472 4.99231 58.0664 5.4052 57.2363 6.23099C56.4062 7.05678 55.9912 8.03272 55.9912 9.19634V24.6613H58.8209V13.2127C59.2737 13.3629 59.7265 13.4379 60.217 13.4379C61.3866 13.4379 62.3674 13.025 63.1975 12.1992C64.0275 11.3734 64.4428 10.3975 64.4428 9.23387C64.4428 8.07028 64.0275 7.09434 63.1975 6.26852C62.4052 5.4052 61.3866 4.99231 60.217 4.99231ZM61.2356 10.2098C60.9716 10.4726 60.632 10.6227 60.2548 10.6227C59.8775 10.6227 59.5377 10.4726 59.2737 10.2098C59.0097 9.94707 58.8587 9.60924 58.8587 9.23387C58.8587 8.85853 59.0097 8.5207 59.2737 8.25796C59.5377 7.99519 59.8775 7.84504 60.2548 7.84504C60.632 7.84504 60.9716 7.99519 61.2356 8.25796C61.4999 8.5207 61.6506 8.85853 61.6506 9.23387C61.6506 9.60924 61.4999 9.94707 61.2356 10.2098Z" fill="#D71920"/>
<path d="M81.0443 21.8835H66.8955V24.6988H81.0443V21.8835Z" fill="#D71920"/>
<path d="M81.0443 4.99231H78.2144V19.0683H81.0443V4.99231Z" fill="#D71920"/>
<path d="M71.1587 19.0683C72.3283 19.0683 73.3093 18.6555 74.1394 17.8296C74.9694 17.0039 75.3845 16.0279 75.3845 14.8643C75.3845 13.7007 74.9694 12.7247 74.1394 11.8989C73.3093 11.0732 72.3283 10.6603 71.1587 10.6603C70.6681 10.6603 70.1778 10.7353 69.7628 10.8855V4.99231H66.9331V14.8268C66.9331 15.9904 67.3479 16.9663 68.1779 17.7921C68.9705 18.6554 69.9891 19.0683 71.1587 19.0683ZM70.1401 13.8508C70.4041 13.5881 70.7436 13.4379 71.1209 13.4379C71.4982 13.4379 71.838 13.5881 72.102 13.8508C72.366 14.1136 72.517 14.4514 72.517 14.8268C72.517 15.2021 72.366 15.54 72.102 15.8027C71.838 16.0654 71.4982 16.2156 71.1209 16.2156C70.7436 16.2156 70.4041 16.0654 70.1401 15.8027C69.8758 15.54 69.7251 15.2021 69.7251 14.8268C69.7251 14.4514 69.8758 14.1511 70.1401 13.8508Z" fill="#D71920"/>
<path d="M89.5334 9.38402L86.7037 6.56882V4.99231H83.874V24.6988H86.7037V10.6227L89.5334 13.4379V24.6988H92.3631V4.99231H89.5334V9.38402Z" fill="#D71920"/>
<path d="M109.304 4.99231H106.474V19.0683H109.304V4.99231Z" fill="#D71920"/>
<path d="M99.4187 19.0683C100.588 19.0683 101.569 18.6555 102.399 17.8296C103.229 17.0039 103.644 16.0279 103.644 14.8643C103.644 13.7007 103.229 12.7247 102.399 11.8989C101.569 11.0732 100.588 10.6603 99.4187 10.6603C98.9281 10.6603 98.4378 10.7353 98.0228 10.8855V4.99231H95.1929V14.8268C95.1929 15.9904 95.6079 16.9663 96.438 17.7921C97.268 18.6554 98.2491 19.0683 99.4187 19.0683ZM98.4378 13.8508C98.7019 13.5881 99.0414 13.4379 99.4187 13.4379C99.796 13.4379 100.135 13.5881 100.4 13.8508C100.664 14.1136 100.815 14.4514 100.815 14.8268C100.815 15.2021 100.664 15.54 100.4 15.8027C100.135 16.0654 99.796 16.2156 99.4187 16.2156C99.0414 16.2156 98.7019 16.0654 98.4378 15.8027C98.1736 15.54 98.0228 15.2021 98.0228 14.8268C98.0228 14.4514 98.1358 14.1511 98.4378 13.8508Z" fill="#D71920"/>
<path d="M109.342 21.8835H95.1929V24.6988H109.342V21.8835Z" fill="#D71920"/>
<path d="M118.17 4.99231V11.7113H114.963V4.99231H112.133V14.5265H118.17V24.6988H121V4.99231H118.17Z" fill="#D71920"/>
<path d="M21.1665 7.46968C25.3923 7.282 30.8632 6.49374 31.429 0.825794C29.8444 3.37824 26.7882 5.78055 22.7889 5.44274C25.0528 5.29259 28.0333 2.10202 26.2224 0C25.5431 3.86622 20.2233 4.95476 15.9975 4.87969C14.8656 4.84216 11.319 4.4668 10.4889 4.50433C6.90457 4.65448 4.56533 6.11838 3.20706 8.40809C2.52791 9.53418 2.52791 10.8479 1.99969 12.1992C1.47147 13.4755 0.41503 14.7892 0 16.2156C0.33957 16.2531 2.90521 16.103 3.01839 16.2531C3.13158 16.4033 2.79203 17.8672 2.7543 18.205C2.56564 19.6689 1.69785 21.7709 2.90521 22.1463C3.43342 22.2964 5.01809 21.9961 5.47085 22.2964C5.96133 22.6343 6.11224 23.1973 5.99906 23.7603C5.84815 24.5861 5.69724 25.3743 5.65948 25.8999C6.26318 26.1252 14.8279 25.8999 14.8279 25.8999C14.5638 23.948 14.4128 21.9586 14.5638 19.8941C14.677 18.5804 15.2052 17.717 15.7711 16.8162C17.0917 17.2291 18.5254 17.9047 19.695 17.4918C18.2613 17.0789 17.0162 15.6526 16.7898 15.0895C16.8276 15.052 23.1285 16.9288 24.713 14.6391C24.298 14.7517 19.7705 14.8643 18.0349 12.3869C21.6947 14.0385 28.2598 14.076 29.9954 10.6602C27.6938 11.7488 22.2607 12.0866 19.28 9.34649C23.8453 10.5852 29.4671 11.4485 32.2591 6.26853C31.5423 6.83157 31.165 7.01925 30.5235 7.35709C28.6371 8.44562 24.1849 8.29547 21.1665 7.46968ZM6.48954 13.1752C5.5463 13.2127 3.92391 12.2743 3.92391 12.2743C3.92391 12.2743 4.60306 11.8239 5.31993 11.5236C5.31993 11.5986 5.28221 11.7113 5.28221 11.7863C5.31993 12.462 5.84815 12.1992 6.48954 12.1992C7.13097 12.1617 7.62145 12.3869 7.62145 11.7113C7.62145 11.6362 7.62145 11.5236 7.58372 11.4485C8.3006 11.7113 8.97972 12.0866 8.97972 12.0866C8.97972 12.0866 7.39508 13.1376 6.48954 13.1752Z" fill="#D71920"/>
<path d="M6.48949 12.8374C7.21881 12.8374 7.81004 12.2492 7.81004 11.5236C7.81004 10.798 7.21881 10.2098 6.48949 10.2098C5.76017 10.2098 5.16895 10.798 5.16895 11.5236C5.16895 12.2492 5.76017 12.8374 6.48949 12.8374Z" fill="black"/>
<path d="M4.03711 10.7728L4.60305 9.83441L5.73496 9.27136L8.56471 10.2098L7.99875 11.1482L7.57571 11.1061L6.11226 10.9605L5.56377 11.1424L4.98035 11.3359L4.03711 10.7728Z" fill="#D71920"/>
<path d="M3.65967 12.2742C6.30076 10.5851 6.67806 10.5851 9.13051 12.0865" stroke="#D71920"/>
</g>
<defs>
<clipPath id="clip0_2029_2839">
<rect width="121" height="26" fill="white"/>
</clipPath>
</defs>
</svg>
