<svg xmlns="http://www.w3.org/2000/svg" width="136" height="136" viewBox="0 0 136 136" fill="none"><circle cx="68" cy="68" r="68" fill="#185D66"></circle><path d="M82.6976 60.1965C82.1819 61.9394 81.5137 63.6313 80.701 65.2517C80.024 66.624 78.693 69.4625 76.9374 69.615C74.5737 69.8261 77.0751 62.8472 77.5112 61.6861C77.575 61.4267 77.5634 61.154 77.4777 60.9014C77.392 60.6487 77.236 60.4272 77.0287 60.2639C76.8215 60.1007 76.5722 60.0029 76.3113 59.9826C76.0505 59.9623 75.7895 60.0203 75.5605 60.1495C74.269 60.9818 72.9361 61.7452 71.5674 62.4367C70.0414 63.246 71.3839 65.5919 72.9099 64.7826L73.8623 64.2782C72.9558 67.6327 72.6001 71.691 76.2949 72.3127C78.8881 72.7466 80.8846 70.6471 82.4222 68.0198C82.5602 68.7066 82.8959 69.3356 83.386 69.8261C85.4744 71.9843 88.4577 70.3656 89.1921 67.8673C89.2879 67.5189 89.2445 67.1459 89.0712 66.8302C88.898 66.5146 88.6092 66.2822 88.2684 66.1842C87.9275 66.0862 87.5626 66.1306 87.2538 66.3077C86.945 66.4848 86.7177 66.78 86.6218 67.1284C86.2317 68.4772 84.8548 68.2075 84.9466 66.8352C85.0728 64.8881 84.9465 62.859 85.2564 60.9706C85.3568 60.6237 85.3183 60.2503 85.1494 59.9325C84.9805 59.6146 84.6949 59.3784 84.3556 59.2757C84.0163 59.1731 83.651 59.2124 83.34 59.3851C83.0291 59.5577 82.798 59.8496 82.6976 60.1965Z" fill="#FDF6EC"></path><path d="M112.003 55.0591C112.106 53.546 110.144 53.3583 109.525 54.4374C107.533 54.4631 105.608 55.1703 104.056 56.4461C102.505 57.7218 101.416 59.4924 100.965 61.4749C100.783 62.1227 100.75 62.8044 100.868 63.4674C100.986 64.1304 101.251 64.7567 101.644 65.2978C102.037 65.8389 102.546 66.2802 103.133 66.5875C103.72 66.8948 104.368 67.0598 105.027 67.0697C105.975 67.0796 106.913 66.8581 107.761 66.4236C108.609 65.9891 109.343 65.3541 109.903 64.5714L110.098 64.7708C112.324 66.929 115.285 65.1813 116.249 62.7417C116.891 61.1113 114.321 60.3958 113.69 62.0145C113.334 62.9293 111.739 63.5627 111.601 62.1552C111.579 61.0612 111.64 59.967 111.785 58.8828C111.842 57.5808 111.911 56.3141 112.003 55.0591ZM103.971 64.0201C102.629 62.8472 104.051 60.2082 104.855 59.2581C106.015 58.0393 107.577 57.3037 109.238 57.1938L109.077 59.9384C109.017 60.0762 108.979 60.2226 108.962 60.3724C108.756 62.1435 106.036 65.7326 103.983 64.0201H103.971Z" fill="#FDF6EC"></path><path d="M64.5681 88.6514C64.4955 88.6447 64.4224 88.6539 64.3536 88.6781C64.2847 88.7024 64.2217 88.7413 64.1686 88.7923C64.1155 88.8432 64.0735 88.9051 64.0455 88.9738C64.0174 89.0425 64.0039 89.1165 64.0058 89.1909V92.1115C64.0058 92.267 64.0663 92.4162 64.1739 92.5262C64.2815 92.6362 64.4274 92.6979 64.5796 92.6979C64.7317 92.6979 64.8776 92.6362 64.9852 92.5262C65.0928 92.4162 65.1533 92.267 65.1533 92.1115V91.3491L66.3007 92.522C66.3531 92.5766 66.4155 92.62 66.4845 92.6496C66.5535 92.6792 66.6275 92.6945 66.7023 92.6945C66.7771 92.6945 66.8512 92.6792 66.9201 92.6496C66.9891 92.62 67.0516 92.5766 67.1039 92.522C67.1591 92.4758 67.2036 92.4176 67.2342 92.3517C67.2647 92.2858 67.2806 92.2137 67.2806 92.1408C67.2806 92.0679 67.2647 91.9958 67.2342 91.9299C67.2036 91.864 67.1591 91.8058 67.1039 91.7596L65.9909 90.5867L67.058 89.5428C67.1132 89.4966 67.1577 89.4384 67.1883 89.3725C67.2188 89.3066 67.2347 89.2346 67.2347 89.1616C67.2347 89.0887 67.2188 89.0166 67.1883 88.9507C67.1577 88.8848 67.1132 88.8266 67.058 88.7804C66.9508 88.6729 66.8066 88.6128 66.6564 88.6128C66.5062 88.6128 66.3621 88.6729 66.2548 88.7804L65.1074 89.8595V89.1323C65.0957 88.9964 65.033 88.8705 64.9324 88.7808C64.8319 88.6912 64.7013 88.6448 64.5681 88.6514Z" fill="#FDF6EC"></path><path d="M71.1199 90.1293C71.0018 89.7096 70.8156 89.3131 70.5692 88.9563C70.4628 88.84 70.3325 88.7491 70.1877 88.6903C70.0428 88.6315 69.8871 88.6062 69.7315 88.6162C69.6022 88.5973 69.4708 88.5973 69.3414 88.6162C69.2042 88.6611 69.0774 88.7341 68.9689 88.831C68.8604 88.9278 68.7724 89.0463 68.7103 89.1792C68.493 89.6379 68.3089 90.1122 68.1596 90.5984L67.7235 91.8886C67.6969 91.9569 67.6852 92.0302 67.6891 92.1036C67.6931 92.1769 67.7128 92.2485 67.7466 92.3133C67.7805 92.3781 67.8278 92.4346 67.8853 92.4787C67.9427 92.5229 68.0089 92.5537 68.0792 92.5689C68.1484 92.5968 68.2224 92.6101 68.2967 92.608C68.371 92.6059 68.4442 92.5884 68.5117 92.5567C68.5793 92.5249 68.6398 92.4794 68.6897 92.4231C68.7397 92.3667 68.7779 92.3006 68.8021 92.2288L68.9513 91.7948H70.5003L70.661 92.2288C70.6852 92.3006 70.7234 92.3667 70.7733 92.4231C70.8232 92.4794 70.8838 92.5249 70.9513 92.5567C71.0189 92.5884 71.092 92.6059 71.1664 92.608C71.2407 92.6101 71.3147 92.5968 71.3839 92.5689C71.4542 92.5537 71.5203 92.5229 71.5778 92.4787C71.6352 92.4346 71.6826 92.3781 71.7165 92.3133C71.7503 92.2485 71.77 92.1769 71.7739 92.1036C71.7779 92.0302 71.7662 91.9569 71.7396 91.8886L71.3035 90.5984C71.2117 90.4108 71.1544 90.2348 71.1199 90.1293ZM69.2611 90.9972L69.7315 89.707L70.202 90.9972H69.2611Z" fill="#FDF6EC"></path><path d="M75.6179 90.141C75.4999 89.7212 75.3138 89.3247 75.0671 88.9681C74.9607 88.8517 74.8304 88.7608 74.6856 88.702C74.5408 88.6432 74.385 88.6179 74.2295 88.6279C74.1001 88.6092 73.9688 88.6092 73.8394 88.6279C73.7022 88.6728 73.5754 88.7459 73.4669 88.8427C73.3583 88.9395 73.2703 89.058 73.2083 89.1909C72.9912 89.6497 72.8071 90.124 72.6575 90.6101L72.2215 91.9004C72.1948 91.9686 72.1831 92.042 72.1871 92.1153C72.1911 92.1887 72.2107 92.2602 72.2446 92.325C72.2785 92.3898 72.3258 92.4463 72.3832 92.4904C72.4407 92.5346 72.5069 92.5654 72.5772 92.5806C72.6464 92.6085 72.7203 92.6219 72.7947 92.6197C72.869 92.6176 72.9421 92.6002 73.0097 92.5684C73.0772 92.5366 73.1378 92.4912 73.1877 92.4348C73.2376 92.3785 73.2758 92.3124 73.3001 92.2405L74.2295 89.6483L75.1589 92.2405C75.1832 92.3124 75.2214 92.3785 75.2713 92.4348C75.3212 92.4912 75.3817 92.5366 75.4493 92.5684C75.5168 92.6002 75.59 92.6176 75.6643 92.6197C75.7387 92.6219 75.8126 92.6085 75.8818 92.5806C75.9521 92.5654 76.0183 92.5346 76.0757 92.4904C76.1332 92.4463 76.1805 92.3898 76.2144 92.325C76.2483 92.2602 76.2679 92.1887 76.2719 92.1153C76.2759 92.042 76.2641 91.9686 76.2375 91.9004L75.8015 90.6101C75.7212 90.4108 75.6638 90.2466 75.6179 90.141Z" fill="#FDF6EC"></path><path d="M77.2472 88.6514C77.1747 88.6448 77.1016 88.6539 77.0328 88.6781C76.9639 88.7024 76.9009 88.7413 76.8478 88.7923C76.7947 88.8432 76.7527 88.9051 76.7247 88.9738C76.6966 89.0425 76.6831 89.1165 76.685 89.1909V92.1115C76.6831 92.1859 76.6966 92.2599 76.7247 92.3286C76.7527 92.3973 76.7947 92.4592 76.8478 92.5101C76.9009 92.5611 76.9639 92.6 77.0328 92.6243C77.1016 92.6486 77.1747 92.6577 77.2472 92.651H78.7848C79.1362 92.6633 79.4795 92.5421 79.7487 92.3109C79.8755 92.1971 79.9762 92.0561 80.0437 91.898C80.1111 91.7398 80.1436 91.5684 80.1388 91.396C80.1474 91.2293 80.1176 91.0629 80.0518 90.9101C79.986 90.7574 79.8861 90.6225 79.7601 90.5163C79.4853 90.2982 79.144 90.1861 78.7963 90.1996H77.8324V89.2027C77.8365 89.1251 77.8238 89.0475 77.7951 88.9755C77.7665 88.9035 77.7227 88.8389 77.6668 88.7863C77.6109 88.7336 77.5443 88.6942 77.4717 88.6709C77.3992 88.6476 77.3226 88.6409 77.2472 88.6514ZM78.6127 91.0559C78.8422 91.0559 78.9913 91.1732 78.9913 91.3725C78.9913 91.5719 78.8422 91.6775 78.6127 91.6775H77.821V91.0559H78.6127Z" fill="#FDF6EC"></path><path d="M83.2483 92.651C83.3209 92.6577 83.394 92.6486 83.4628 92.6243C83.5317 92.6 83.5947 92.5611 83.6478 92.5101C83.7009 92.4592 83.7429 92.3973 83.7709 92.3286C83.799 92.2599 83.8125 92.1859 83.8106 92.1115V89.1909C83.8125 89.1165 83.799 89.0425 83.7709 88.9738C83.7429 88.9051 83.7009 88.8432 83.6478 88.7923C83.5947 88.7413 83.5317 88.7024 83.4628 88.6781C83.394 88.6539 83.3209 88.6447 83.2483 88.6514H81.6993C81.5213 88.6454 81.344 88.6767 81.1783 88.7433C81.0126 88.8098 80.8619 88.9103 80.7355 89.0385C80.5881 89.2019 80.4761 89.3953 80.4067 89.6059C80.3373 89.8166 80.3121 90.0398 80.3326 90.2611C80.3532 90.4823 80.4191 90.6967 80.5261 90.8902C80.633 91.0838 80.7787 91.2521 80.9535 91.3843L80.5863 91.9707C80.5461 92.0232 80.5187 92.0846 80.5062 92.15C80.4937 92.2154 80.4965 92.2829 80.5144 92.347C80.5323 92.411 80.5648 92.4698 80.6092 92.5186C80.6536 92.5674 80.7087 92.6047 80.7699 92.6276C80.8316 92.6693 80.9008 92.6982 80.9735 92.7125C81.0461 92.7268 81.1209 92.7263 81.1934 92.7111C81.2659 92.6958 81.3347 92.6661 81.3959 92.6236C81.4571 92.5811 81.5095 92.5266 81.5501 92.4634L82.1009 91.5954H82.6631V92.1701C82.6687 92.2418 82.6886 92.3115 82.7215 92.375C82.7543 92.4385 82.7995 92.4945 82.8543 92.5395C82.9091 92.5845 82.9723 92.6177 83.0401 92.6368C83.1078 92.656 83.1787 92.6608 83.2483 92.651ZM82.1009 90.575C82.037 90.5838 81.9721 90.578 81.9106 90.558C81.8492 90.5381 81.7929 90.5045 81.7457 90.4596C81.6985 90.4147 81.6617 90.3597 81.6378 90.2986C81.6139 90.2374 81.6035 90.1716 81.6075 90.1058C81.6055 90.0406 81.6172 89.9757 81.6418 89.9155C81.6664 89.8553 81.7033 89.8012 81.75 89.7567C81.7967 89.7123 81.8522 89.6786 81.9127 89.6579C81.9733 89.6372 82.0374 89.6299 82.1009 89.6366H82.7205V90.5867L82.1009 90.575Z" fill="#FDF6EC"></path><path d="M87.3447 92.651C87.4172 92.6577 87.4903 92.6486 87.5592 92.6243C87.628 92.6 87.6911 92.5611 87.7442 92.5101C87.7973 92.4592 87.8392 92.3973 87.8673 92.3286C87.8953 92.2599 87.9088 92.1859 87.9069 92.1115V89.1909C87.9069 89.0354 87.8465 88.8862 87.7389 88.7762C87.6313 88.6662 87.4854 88.6045 87.3332 88.6045C87.181 88.6045 87.0351 88.6662 86.9275 88.7762C86.8199 88.8862 86.7595 89.0354 86.7595 89.1909V90.1175H85.5662V89.1909C85.5662 89.0354 85.5057 88.8862 85.3981 88.7762C85.2905 88.6662 85.1446 88.6045 84.9924 88.6045C84.8403 88.6045 84.6944 88.6662 84.5868 88.7762C84.4792 88.8862 84.4187 89.0354 84.4187 89.1909V92.1115C84.4187 92.267 84.4792 92.4162 84.5868 92.5262C84.6944 92.6362 84.8403 92.6979 84.9924 92.6979C85.1446 92.6979 85.2905 92.6362 85.3981 92.5262C85.5057 92.4162 85.5662 92.267 85.5662 92.1115V91.091H86.7824V92.1115C86.7805 92.1859 86.794 92.2599 86.8221 92.3286C86.8501 92.3973 86.8921 92.4592 86.9452 92.5101C86.9983 92.5611 87.0613 92.6 87.1302 92.6243C87.199 92.6486 87.2721 92.6577 87.3447 92.651Z" fill="#FDF6EC"></path><path d="M91.4754 92.651C91.5471 92.6559 91.6189 92.6455 91.6864 92.6205C91.7539 92.5954 91.8155 92.5562 91.8673 92.5055C91.9191 92.4547 91.96 92.3934 91.9874 92.3256C92.0147 92.2578 92.028 92.1848 92.0262 92.1115V89.1909C92.0262 89.0354 91.9658 88.8862 91.8582 88.7762C91.7506 88.6662 91.6047 88.6045 91.4525 88.6045C91.3003 88.6045 91.1544 88.6662 91.0468 88.7762C90.9392 88.8862 90.8788 89.0354 90.8788 89.1909V90.1175H89.7313V89.1909C89.7313 89.0354 89.6709 88.8862 89.5633 88.7762C89.4557 88.6662 89.3098 88.6045 89.1576 88.6045C89.0055 88.6045 88.8595 88.6662 88.7519 88.7762C88.6444 88.8862 88.5839 89.0354 88.5839 89.1909V92.1115C88.5839 92.267 88.6444 92.4162 88.7519 92.5262C88.8595 92.6362 89.0055 92.6979 89.1576 92.6979C89.3098 92.6979 89.4557 92.6362 89.5633 92.5262C89.6709 92.4162 89.7313 92.267 89.7313 92.1115V91.091H90.8788V92.1115C90.8762 92.1893 90.8904 92.2667 90.9205 92.3382C90.9505 92.4097 90.9957 92.4735 91.0527 92.525C91.1097 92.5766 91.1772 92.6146 91.2503 92.6364C91.3234 92.6582 91.4003 92.6632 91.4754 92.651Z" fill="#FDF6EC"></path><path d="M95.9619 90.1293C95.8438 89.7096 95.6576 89.3131 95.4112 88.9563C95.3048 88.84 95.1745 88.7491 95.0296 88.6903C94.8848 88.6315 94.7291 88.6062 94.5735 88.6162C94.4441 88.5973 94.3128 88.5973 94.1834 88.6162C94.0462 88.6611 93.9194 88.7341 93.8109 88.831C93.7024 88.9278 93.6144 89.0463 93.5523 89.1792C93.335 89.6379 93.151 90.1122 93.0015 90.5984L92.5655 91.8886C92.5389 91.9569 92.5271 92.0302 92.5311 92.1036C92.5351 92.1769 92.5547 92.2485 92.5886 92.3133C92.6225 92.3781 92.6698 92.4346 92.7273 92.4787C92.7847 92.5229 92.8509 92.5537 92.9212 92.5689C92.9904 92.5968 93.0644 92.6101 93.1387 92.608C93.213 92.6059 93.2862 92.5884 93.3537 92.5567C93.4213 92.5249 93.4818 92.4794 93.5317 92.4231C93.5816 92.3667 93.6199 92.3006 93.6441 92.2288L93.7933 91.7948H95.3423L95.503 92.2288C95.5272 92.3006 95.5654 92.3667 95.6153 92.4231C95.6652 92.4794 95.7258 92.5249 95.7933 92.5567C95.8609 92.5884 95.934 92.6059 96.0084 92.608C96.0827 92.6101 96.1567 92.5968 96.2258 92.5689C96.2961 92.5537 96.3623 92.5229 96.4198 92.4787C96.4772 92.4346 96.5246 92.3781 96.5584 92.3133C96.5923 92.2485 96.6119 92.1769 96.6159 92.1036C96.6199 92.0302 96.6082 91.9569 96.5816 91.8886L96.1455 90.5984C96.0537 90.4108 95.9964 90.2348 95.9619 90.1293ZM94.1031 90.9972L94.5735 89.707L95.044 90.9972H94.1031Z" fill="#FDF6EC"></path><path d="M99.7714 92.651C99.8439 92.6577 99.917 92.6486 99.9859 92.6243C100.055 92.6 100.118 92.5611 100.171 92.5101C100.224 92.4592 100.266 92.3973 100.294 92.3286C100.322 92.2599 100.336 92.1859 100.334 92.1115V89.1909C100.336 89.1165 100.322 89.0425 100.294 88.9738C100.266 88.9051 100.224 88.8432 100.171 88.7923C100.118 88.7413 100.055 88.7024 99.9859 88.6781C99.917 88.6539 99.8439 88.6447 99.7714 88.6514H98.2338C98.0559 88.6454 97.8786 88.6767 97.7129 88.7433C97.5471 88.8098 97.3964 88.9103 97.27 89.0385C97.1227 89.2019 97.0106 89.3953 96.9412 89.6059C96.8718 89.8166 96.8466 90.0398 96.8672 90.2611C96.8877 90.4823 96.9536 90.6967 97.0606 90.8902C97.1676 91.0838 97.3132 91.2521 97.488 91.3843L97.1208 91.9707C97.0807 92.0232 97.0532 92.0846 97.0407 92.15C97.0282 92.2154 97.0311 92.2829 97.049 92.347C97.0669 92.411 97.0993 92.4698 97.1437 92.5186C97.1881 92.5674 97.2432 92.6047 97.3044 92.6276C97.3662 92.6693 97.4353 92.6982 97.508 92.7125C97.5807 92.7268 97.6554 92.7263 97.7279 92.7111C97.8004 92.6958 97.8692 92.6661 97.9305 92.6236C97.9917 92.5811 98.0441 92.5266 98.0847 92.4634L98.6354 91.5954H99.1977V92.1701C99.2034 92.2406 99.2229 92.3093 99.255 92.3719C99.2872 92.4346 99.3314 92.49 99.3849 92.5348C99.4384 92.5797 99.5002 92.6131 99.5666 92.6331C99.633 92.653 99.7026 92.6591 99.7714 92.651ZM98.624 90.575C98.5601 90.5838 98.4951 90.578 98.4337 90.558C98.3723 90.5381 98.316 90.5045 98.2688 90.4596C98.2216 90.4147 98.1847 90.3597 98.1608 90.2986C98.1369 90.2374 98.1266 90.1716 98.1306 90.1058C98.1286 90.0406 98.1403 89.9757 98.1649 89.9155C98.1894 89.8553 98.2263 89.8012 98.2731 89.7567C98.3198 89.7123 98.3753 89.6786 98.4358 89.6579C98.4963 89.6372 98.5605 89.6299 98.624 89.6366H99.2436V90.5867L98.624 90.575Z" fill="#FDF6EC"></path><path d="M95.3653 71.8787L64.8664 77.6846C63.1797 78.0013 63.9026 80.6286 65.5778 80.3002L96.0767 74.5295C97.7634 74.1659 97.0405 71.562 95.3653 71.8787Z" fill="#FDF6EC"></path><path d="M60.2193 91.1262C60.7012 83.6196 61.1832 76.1246 61.6077 68.618C62.6404 68.0081 63.6846 67.4451 64.7287 66.8586C64.326 68.6594 64.5239 70.5462 65.291 72.2188C66.9203 75.5851 70.5462 73.6498 72.3706 71.7027C73.5181 70.436 71.6822 68.5124 70.4889 69.7792C69.2955 71.0459 67.8612 72.2657 67.299 69.9551C67.1388 68.987 67.1786 67.9954 67.4157 67.044C67.6528 66.0926 68.0821 65.2024 68.6759 64.4307C69.4906 63.2578 67.9415 61.9324 66.8515 62.5657C65.1877 63.551 63.478 64.4424 61.7913 65.3807C61.7913 65.0758 61.7913 64.7591 61.7913 64.4541C61.8831 62.7065 59.2325 62.7065 59.1292 64.4541C59.1292 65.3104 59.0375 66.1549 58.9801 67.0111L58.6473 67.2222C58.4429 67.3606 58.2784 67.5523 58.1707 67.7775C58.0631 68.0027 58.0161 68.2531 58.0349 68.503C58.0536 68.7529 58.1372 68.9932 58.2772 69.199C58.4171 69.4047 58.6083 69.5686 58.8309 69.6736C58.4178 76.8284 57.9589 83.9714 57.4999 91.1262C57.4425 92.9325 60.1046 92.8621 60.2193 91.1262Z" fill="#FDF6EC"></path><path d="M43.8339 67.9025C43.9372 66.3894 41.9751 66.2018 41.3555 67.2809C39.3649 67.3086 37.4406 68.0166 35.8893 69.292C34.338 70.5674 33.2489 72.3368 32.7956 74.3183C32.614 74.9661 32.5808 75.6479 32.6986 76.3108C32.8164 76.9738 33.082 77.6001 33.4748 78.1412C33.8677 78.6823 34.3772 79.1236 34.9638 79.4309C35.5504 79.7382 36.1984 79.9032 36.8575 79.9132C37.8061 79.923 38.7434 79.7015 39.5915 79.267C40.4396 78.8325 41.1741 78.1976 41.7341 77.4148L41.9292 77.6142C43.9028 79.5261 46.5189 78.3649 47.6664 76.3592C48.172 76.8155 48.7808 77.136 49.4378 77.2916C50.0949 77.4472 50.7795 77.4331 51.4299 77.2506C56.1918 76.2067 56.6623 70.9286 56.8114 66.8586C56.9282 65.6747 56.6269 64.4872 55.9619 63.5106C55.297 62.534 54.3122 61.8327 53.1855 61.5336C60.9766 56.8419 69.089 52.725 77.0522 48.3383C78.5668 47.5055 77.2243 45.1597 75.7097 45.9924C66.7826 50.8952 57.6032 55.3992 48.9285 60.9471C48.6866 61.102 48.4993 61.3316 48.3938 61.6027C48.2882 61.8737 48.2699 62.1721 48.3416 62.4546C48.4132 62.737 48.571 62.9887 48.7921 63.1732C49.0132 63.3577 49.2861 63.4654 49.5711 63.4806C51.2923 63.6448 52.8872 63.8442 53.6445 64.9467C50.0874 65.7912 46.932 68.3717 46.4501 72.254C46.3692 72.8179 46.3692 73.3908 46.4501 73.9547C46.2262 74.0032 46.0177 74.108 45.8434 74.2595C45.6692 74.4111 45.5346 74.6046 45.4518 74.8227C45.0961 75.7376 43.5012 76.371 43.3635 74.9635C43.3409 73.8694 43.4023 72.7752 43.5471 71.691C43.6618 70.4243 43.7307 69.1575 43.8339 67.9025ZM40.885 72.7818C40.8252 72.9196 40.7865 73.066 40.7703 73.2158C40.5982 74.9869 37.8787 78.576 35.8248 76.8636C34.4823 75.6907 35.9051 73.0516 36.7084 72.1015C37.8576 70.8931 39.4012 70.1585 41.0457 70.0372C40.9768 70.9521 40.9156 71.867 40.8621 72.7818H40.885ZM49.2383 72.0194C49.7891 69.5798 51.9578 68.2075 54.1723 67.621C54.1723 70.2718 53.851 73.4856 51.1431 74.4591C49.2269 75.1863 48.8367 73.6381 49.2154 72.0194H49.2383Z" fill="#FDF6EC"></path><path d="M127.333 65.6153L124.154 66.2252C124.232 55.5995 121.221 45.1895 115.503 36.3159C104.946 20.0827 85.9333 11.0982 67.0924 12.0717C50.0645 12.9514 32.4514 21.6661 21.8491 35.4596C16.5823 42.2743 12.922 51.3057 14.2875 60.0909C15.2972 66.6123 20.1279 71.0107 26.3241 70.6471L25.9225 77.5673C25.7618 80.3706 25.3373 84.6048 22.5834 85.7777L20.7819 86.1531C20.4695 86.2391 20.1985 86.4386 20.0195 86.7141C19.8405 86.9896 19.7659 87.3223 19.8095 87.6501C19.853 87.9778 20.0119 88.278 20.2564 88.4947C20.5008 88.7114 20.8141 88.8296 21.1377 88.8273C21.858 88.7943 22.5695 88.652 23.2489 88.4051C33.9775 86.1413 44.7634 84.1943 55.5263 82.1417C57.213 81.825 56.4901 79.1977 54.8149 79.5261C45.5321 81.2972 36.2264 83.0448 26.9666 84.8746C29.032 80.8397 28.9173 74.5177 29.032 70.2483C36.6854 68.1957 42.4914 59.6921 38.6819 51.8101C37.11 48.5611 33.7594 47.0363 30.3745 46.6962L30.5237 44.1158C30.6269 42.3681 27.9649 42.3798 27.8616 44.1158L27.7125 46.661C22.6752 47.048 19.0608 50.9656 17.833 55.7863C17.7311 56.1331 17.7681 56.5072 17.936 56.8261C18.1038 57.1451 18.3887 57.3828 18.728 57.487C19.0674 57.5912 19.4333 57.5534 19.7453 57.3818C20.0573 57.2102 20.2899 56.919 20.3918 56.5721C21.3442 52.8422 23.8341 50.039 27.5518 49.5346L26.6224 66.3542L26.5306 67.9846C25.2057 68.1625 23.8583 68.0042 22.6076 67.5234C21.3568 67.0427 20.2411 66.2544 19.3591 65.2282C16.7544 62.3194 16.4332 57.8975 16.7315 54.2263C17.4659 45.1948 23.0309 37.1721 29.3533 31.202C43.1225 18.2999 63.1797 11.9309 81.5157 15.9541C90.5213 17.9285 98.8338 22.3642 105.567 28.7883C112.3 35.2124 117.201 43.384 119.748 52.4317C121.003 57.0856 121.575 61.904 121.446 66.7296L106.392 69.5798C106.168 69.6379 105.963 69.7569 105.8 69.9241C105.636 70.0913 105.52 70.3006 105.463 70.5298L104.912 74.6819L96.7766 60.9002C97.924 60.1964 99.1862 59.4927 100.402 58.8124C101.906 57.9679 100.563 55.6221 99.06 56.4666C97.0979 57.5574 95.1702 58.7068 93.2425 59.8563L93.3113 58.3667C93.3071 58.1297 93.2428 57.8978 93.1248 57.6938C93.0068 57.4897 92.8391 57.3204 92.638 57.2023C92.437 57.0841 92.2094 57.0213 91.9775 57.0198C91.7456 57.0183 91.5173 57.0782 91.3148 57.1938L87.4365 59.3637C85.9333 60.2082 87.2758 62.554 88.779 61.7095L90.546 60.7242C90.4313 63.2695 90.328 65.8147 90.1788 68.3482C90.0871 70.0958 92.7376 70.0958 92.8409 68.3482C92.9442 66.6005 93.0245 64.8294 93.1048 63.0935L94.4817 62.2725L104.568 79.3619C105.107 80.265 106.863 80.2767 107 79.0335L107.93 71.996L121.309 69.4742C121.09 72.2426 120.653 74.9883 120.001 77.6846C117.646 86.7851 113.029 95.1086 106.599 101.847C100.718 108.308 93.4617 113.298 85.3909 116.43C77.3201 119.563 68.6521 120.753 60.0587 119.91C58.0075 119.687 55.9723 119.331 53.9658 118.842C54.1441 118.136 54.1505 117.396 53.9845 116.686C53.8185 115.977 53.4851 115.32 53.0134 114.772C52.1528 113.787 50.5464 113.423 49.3875 112.966L34.4709 106.984L34.0004 106.796C34.9069 103.77 30.5581 102.105 28.8484 104.38C28.4353 104.908 28.1026 105.553 27.701 106.057C27.2717 106.609 26.9167 107.216 26.6453 107.864C26.467 108.468 26.4802 109.114 26.6832 109.711C26.8861 110.307 27.2683 110.822 27.7751 111.183C28.282 111.543 28.8874 111.731 29.5047 111.718C30.1221 111.705 30.7197 111.494 31.2121 111.113L31.3498 111.207C31.958 111.558 31.1548 111.054 31.7973 111.465L32.7841 112.11C33.9316 112.884 35.079 113.681 36.2264 114.456C38.8541 116.297 41.4702 118.15 44.0864 119.992C45.7272 121.165 48.1942 123.51 50.3169 122.901C51.2668 122.626 52.1142 122.066 52.7495 121.294C62.7413 123.759 73.2009 123.398 83.0074 120.25C91.4671 117.454 99.2259 112.8 105.739 106.614C112.253 100.428 117.363 92.8596 120.712 84.4406C122.602 79.5007 123.721 74.2881 124.028 68.9933L128.044 68.2309C129.719 67.9142 129.008 65.2986 127.333 65.6153ZM30.2139 49.3704C31.5217 49.4327 32.791 49.8432 33.8959 50.5612C35.0008 51.2792 35.903 52.2798 36.5133 53.4639C39.3819 59.3285 34.425 65.3924 29.1697 67.3395L30.2139 49.3704ZM31.3613 106.245C31.2236 106.503 31.04 106.738 30.8909 106.984L29.7434 108.685C29.5139 108.872 28.9861 109.048 29.1926 108.685C29.2959 108.485 29.4451 108.298 29.5713 108.098L30.8794 106.057C30.8794 106.057 31.6023 105.835 31.4187 106.245H31.3613ZM49.2154 120.168C48.4944 119.859 47.8216 119.444 47.2189 118.936C45.2912 117.599 43.375 116.227 41.4817 114.866C39.5884 113.505 37.3394 111.969 35.2741 110.526L33.943 109.623L48.7449 115.558L51.0513 116.532C51.1034 116.61 51.1651 116.681 51.2349 116.743C52.2905 117.763 50.5464 120.543 49.2154 120.168Z" fill="#FDF6EC"></path></svg>