<svg width="50" height="50" viewBox="0 0 50 50" fill="none" xmlns="http://www.w3.org/2000/svg">
<path d="M12 15L12.0156 27H13.6055L22.3945 36.1895C22.5803 36.4405 22.8222 36.6446 23.101 36.7854C23.3798 36.9261 23.6877 36.9996 24 37C24.5304 37 25.0391 36.7893 25.4142 36.4142C25.7893 36.0391 26 35.5304 26 35C25.9989 34.9052 25.9911 34.8105 25.9766 34.7168C26.286 34.9017 26.6396 34.9995 27 35C27.5304 35 28.0391 34.7893 28.4142 34.4142C28.7893 34.0391 29 33.5304 29 33C28.9989 32.9052 28.9911 32.8105 28.9766 32.7168C29.286 32.9017 29.6396 32.9995 30 33C30.5304 33 31.0391 32.7893 31.4142 32.4142C31.7893 32.0391 32 31.5304 32 31C31.9989 30.9052 31.9911 30.8105 31.9766 30.7168C32.286 30.9017 32.6396 30.9995 33 31C33.5304 31 34.0391 30.7893 34.4142 30.4142C34.7893 30.0391 35 29.5304 35 29C34.9999 28.4744 34.793 27.9699 34.4238 27.5957L34.3984 27.5723C34.356 27.5306 34.3116 27.4908 34.2656 27.4531L28.3574 22.123C28.3574 22.123 24.6959 22.7038 23.2949 22.9258C21.8939 23.1478 18 22.682 18 18C18 16.542 19.0748 16.2188 19.7578 15.9688C20.4398 15.7178 22.5 15 22.5 15H12ZM29 15C28.8246 14.9999 28.6499 15.0229 28.4805 15.0684C28.4798 15.0684 28.4792 15.0684 28.4785 15.0684L28.4707 15.0703C28.4687 15.071 28.4668 15.0716 28.4648 15.0723C28.3939 15.0925 28.3241 15.1166 28.2559 15.1445L20 18V18.5C20 19.881 21.119 21 22.5 21C22.5837 21 22.6626 20.9826 22.7441 20.9746L22.7539 20.9863L22.9609 20.9531C22.9804 20.9495 23.0002 20.9475 23.0195 20.9434L29 19.9961C29 19.9961 34.251 24.6943 35.168 25.6113C36.048 26.4913 36.9173 27.155 36.9863 29H39V17L35 18L30.0098 15.2754C29.9746 15.2548 29.9387 15.2352 29.9023 15.2168L29.8555 15.1914H29.8477C29.5825 15.0662 29.2932 15.0009 29 15Z" fill="#185D66"/>
</svg>
