<svg width="34" height="34" viewBox="0 0 34 34" fill="none" xmlns="http://www.w3.org/2000/svg">
<path d="M11.4008 8.19922C11.0216 8.19922 10.6956 8.46552 10.618 8.83672C10.5844 8.99672 9.80078 12.7712 9.80078 14.5992C9.80078 18.298 12.6069 21.3524 16.2008 21.7523V24.3555L12.8602 25.0102C12.845 25.0128 12.8299 25.016 12.8148 25.0195L12.7914 25.0242V25.0258C12.6032 25.0757 12.4397 25.1924 12.3315 25.3542C12.2232 25.516 12.1776 25.7117 12.2033 25.9047C12.229 26.0977 12.3242 26.2746 12.4709 26.4025C12.6177 26.5303 12.8061 26.6003 13.0008 26.5992H21.0008C21.1965 26.6018 21.3864 26.5325 21.5345 26.4045C21.6826 26.2765 21.7787 26.0987 21.8045 25.9046C21.8303 25.7106 21.784 25.5138 21.6745 25.3516C21.565 25.1893 21.3998 25.0729 21.2102 25.0242L21.1883 25.0195C21.1671 25.0145 21.1457 25.0103 21.1242 25.007L17.8008 24.3555V21.7523C21.3947 21.3524 24.2008 18.298 24.2008 14.5992C24.2008 12.7664 23.4172 8.99516 23.3836 8.83516C23.306 8.46476 22.98 8.19922 22.6008 8.19922H11.4008ZM12.057 9.79922H21.9445C22.0565 10.38 22.2241 11.2856 22.3617 12.1992H13.232C13.1016 13.084 13.0008 13.972 13.0008 14.5992C13.0008 15.6328 13.2468 16.6087 13.682 17.4711C14.0092 18.1199 13.1288 18.6999 12.668 18.1383C11.8768 17.1743 11.4008 15.9424 11.4008 14.5992C11.4008 13.3536 11.8346 10.9456 12.057 9.79922Z" fill="#185D66"/>
</svg>
