<svg width="64" height="64" viewBox="0 0 64 64" fill="none" xmlns="http://www.w3.org/2000/svg">
<g filter="url(#filter0_d_225_4468)">
<path d="M47.7567 35.6123C46.8088 32.0152 44.6417 28.8242 41.5978 26.5436C38.5539 24.2629 34.8068 23.0225 30.9481 23.0183M30.9481 23.0183C27.0883 23.0183 23.3389 24.2572 20.2942 26.5385C17.2494 28.8198 15.0834 32.0131 14.1394 35.6123L13.3617 38.8694M30.9481 23.0183C31.7266 23.0183 32.4731 22.7209 33.0236 22.1915C33.5741 21.6621 33.8833 20.9442 33.8833 20.1955C33.8833 18.6273 32.5788 18 30.9481 18C29.3174 18 28.0128 18.6273 28.0128 20.1955C28.0128 20.9442 28.3221 21.6621 28.8725 22.1915C29.423 22.7209 30.1696 23.0183 30.9481 23.0183ZM48.1581 43.3086C48.3638 43.4994 48.5276 43.728 48.6396 43.9808C48.7517 44.2336 48.8098 44.5055 48.8104 44.7803C48.7599 45.3862 48.4734 45.9514 48.0083 46.3629C47.5432 46.7744 46.9337 47.0019 46.3017 47H16.6983C16.0663 47.0019 15.4569 46.7744 14.9918 46.3629C14.5267 45.9514 14.2401 45.3862 14.1896 44.7803C14.195 44.2306 14.4195 43.7039 14.8168 43.3086H12.5088C11.8767 43.3106 11.2672 43.083 10.8021 42.6715C10.337 42.26 10.0506 41.6948 10 41.089C10.0061 40.7827 10.0767 40.4807 10.2076 40.2014C10.3384 39.922 10.5266 39.6711 10.7611 39.4636C10.9956 39.2562 11.2713 39.0965 11.5716 38.9944C11.872 38.8923 12.1908 38.8498 12.5088 38.8694H50.3157C50.6474 38.8248 50.9852 38.8487 51.3065 38.9395C51.6279 39.0302 51.9255 39.1858 52.1794 39.3958C52.4334 39.6058 52.6379 39.8654 52.7794 40.1574C52.9209 40.4493 52.9961 40.7669 53 41.089C52.9494 41.6948 52.663 42.26 52.1979 42.6715C51.7328 43.083 51.1233 43.3106 50.4912 43.3086H48.1581ZM48.1581 43.3086L44.8967 43.3086M14.9918 43.3086H25.9055M32.8297 26.9991C32.8297 26.9991 39.4527 27.168 43.1908 35.6123" stroke="#F8F8F8" stroke-linecap="round" stroke-linejoin="round" shape-rendering="crispEdges"/>
</g>
<defs>
<filter id="filter0_d_225_4468" x="0" y="8" width="63" height="49" filterUnits="userSpaceOnUse" color-interpolation-filters="sRGB">
<feFlood flood-opacity="0" result="BackgroundImageFix"/>
<feColorMatrix in="SourceAlpha" type="matrix" values="0 0 0 0 0 0 0 0 0 0 0 0 0 0 0 0 0 0 127 0" result="hardAlpha"/>
<feOffset/>
<feGaussianBlur stdDeviation="4.75"/>
<feComposite in2="hardAlpha" operator="out"/>
<feColorMatrix type="matrix" values="0 0 0 0 0 0 0 0 0 0.814378 0 0 0 0 0.773659 0 0 0 1 0"/>
<feBlend mode="normal" in2="BackgroundImageFix" result="effect1_dropShadow_225_4468"/>
<feBlend mode="normal" in="SourceGraphic" in2="effect1_dropShadow_225_4468" result="shape"/>
</filter>
</defs>
</svg>
