<svg width="24" height="24" viewBox="0 0 24 24" fill="none" xmlns="http://www.w3.org/2000/svg">
<path d="M10.9131 3.90234C11.0001 3.87223 11.0973 3.8927 11.165 3.95508C11.7236 4.46974 12.1891 5.08854 12.5762 5.80762L12.5771 5.80859C13.3315 7.22247 13.6947 8.50924 13.624 9.62695C13.6105 9.83732 13.645 10.048 13.7246 10.2432C13.8043 10.4385 13.9271 10.6139 14.084 10.7549H14.085C14.2207 10.8774 14.3793 10.9725 14.5518 11.0332C14.7242 11.0939 14.9074 11.1199 15.0898 11.1094L15.0918 11.1084C15.4623 11.0895 15.8024 10.9268 16.0518 10.6494C16.3389 10.3277 16.5861 10.0007 16.791 9.66992L16.8281 9.62305C16.8709 9.58134 16.9283 9.55619 16.9893 9.55273C17.0707 9.54842 17.1499 9.58418 17.2002 9.64844C17.524 10.0625 17.7948 10.5136 18.0098 10.999C18.3774 11.8268 18.5654 12.7087 18.5654 13.6152C18.5654 15.3476 17.8819 16.979 16.6455 18.2041C15.4044 19.4337 13.7551 20.1093 12 20.1094C10.2449 20.1093 8.59657 19.4336 7.35547 18.2041H7.35449C6.1183 16.977 5.43555 15.3478 5.43555 13.6152C5.43559 12.6097 5.66216 11.6443 6.1084 10.7471L6.28125 10.4229C6.70739 9.67698 7.2892 9.01114 7.97656 8.4834L7.97754 8.48242C8.44394 8.12571 8.86822 7.71486 9.23926 7.25977C9.7777 6.60274 10.1996 5.87014 10.4922 5.08496C10.6102 4.76631 10.6958 4.43634 10.748 4.10059C10.7623 4.00948 10.826 3.93276 10.9131 3.90234ZM11.0371 11.1572C11.0151 11.2987 10.9785 11.438 10.9287 11.5723C10.8074 11.8978 10.6321 12.2006 10.4092 12.4727C10.2552 12.6615 10.0802 12.8325 9.88672 12.9805C9.58348 13.2133 9.33375 13.5155 9.16602 13.8535C8.99383 14.1997 8.9063 14.5719 8.90625 14.96C8.90625 15.6283 9.1692 16.2566 9.64648 16.7305C10.1257 17.2052 10.7622 17.4658 11.4404 17.4658C12.1186 17.4658 12.7552 17.2052 13.2344 16.7305C13.7116 16.2575 13.9746 15.6282 13.9746 14.96C13.9746 14.6103 13.9025 14.2705 13.7607 13.9512C13.6777 13.7638 13.5732 13.5894 13.4482 13.4297C13.3626 13.568 13.2603 13.704 13.1416 13.8369C13.0239 13.968 12.8622 14.0457 12.6865 14.0547C12.5999 14.0597 12.5125 14.0474 12.4307 14.0186C12.3491 13.9898 12.2742 13.9447 12.21 13.8867C12.1357 13.82 12.0768 13.737 12.0391 13.6445C12.0015 13.5524 11.9859 13.4528 11.9922 13.3535C12.019 12.9305 11.8811 12.4327 11.583 11.874C11.4323 11.594 11.252 11.3552 11.0371 11.1572Z" fill="#185D66"/>
</svg>
