<svg width="12" height="12" viewBox="0 0 12 12" fill="none" xmlns="http://www.w3.org/2000/svg">
<path d="M10.3876 1.19941C10.3656 1.2002 10.3436 1.20281 10.322 1.20722L9.32198 1.40722C9.23482 1.42222 9.15509 1.46567 9.09525 1.5308C9.03541 1.59592 8.99884 1.67903 8.99125 1.76715C8.98366 1.85526 9.00549 1.94341 9.05331 2.0178C9.10114 2.09219 9.17227 2.14864 9.25558 2.17832L8.15636 3.27754C7.98977 3.2316 7.81803 3.19941 7.63683 3.19941C6.60043 3.19941 6.00011 4.09941 6.00011 4.09941C6.00011 4.09941 5.39979 3.19941 4.36339 3.19941C3.27899 3.19941 2.40011 4.07789 2.40011 5.16269C2.40011 6.1049 2.94854 7.02421 3.62277 7.81113L3.03448 8.39941H2.40011C2.34712 8.39869 2.29452 8.40851 2.24536 8.42829C2.1962 8.44806 2.15146 8.47741 2.11374 8.51463C2.07601 8.55184 2.04606 8.59618 2.02561 8.64507C2.00517 8.69396 1.99464 8.74642 1.99464 8.79941C1.88856 8.79942 1.78682 8.84157 1.71181 8.91658C1.6368 8.99159 1.59465 9.09333 1.59464 9.19941C1.54169 9.19912 1.48921 9.20934 1.44024 9.22948C1.39127 9.24963 1.34679 9.27929 1.30937 9.31676C1.27195 9.35422 1.24234 9.39874 1.22226 9.44774C1.20218 9.49674 1.19203 9.54923 1.19239 9.60218C1.19275 9.65513 1.20362 9.70748 1.22437 9.7562C1.24512 9.80491 1.27533 9.84902 1.31326 9.88598C1.35119 9.92293 1.39607 9.95198 1.44531 9.97145C1.49455 9.99092 1.54717 10.0004 1.60011 9.99941H2.00011V10.3994C1.99909 10.4524 2.00859 10.505 2.02807 10.5542C2.04754 10.6034 2.07659 10.6483 2.11354 10.6863C2.15049 10.7242 2.19461 10.7544 2.24332 10.7751C2.29204 10.7959 2.34439 10.8068 2.39734 10.8071C2.45029 10.8075 2.50278 10.7973 2.55178 10.7773C2.60078 10.7572 2.6453 10.7276 2.68276 10.6902C2.72023 10.6527 2.74989 10.6082 2.77004 10.5593C2.79018 10.5103 2.8004 10.4578 2.80011 10.4049C2.90619 10.4049 3.00793 10.3627 3.08294 10.2877C3.15795 10.2127 3.2001 10.111 3.20011 10.0049C3.2531 10.0049 3.30556 9.99435 3.35445 9.97391C3.40334 9.95346 3.44768 9.92351 3.48489 9.88578C3.52211 9.84806 3.55146 9.80332 3.57123 9.75416C3.59101 9.705 3.60083 9.6524 3.60011 9.59941V8.96504L4.68292 7.88222C4.69251 7.87305 4.70164 7.8634 4.71027 7.85332C4.71105 7.85228 4.71183 7.85124 4.71261 7.85019L6.4462 6.1166C6.6026 5.9602 6.85543 5.9602 7.01183 6.1166C7.16823 6.273 7.16823 6.52582 7.01183 6.68222L4.75011 8.94394C5.08411 9.23834 5.39677 9.48832 5.63917 9.67832C5.63917 9.67832 5.79811 9.79941 6.00011 9.79941C6.20211 9.79941 6.36105 9.67832 6.36105 9.67832C7.37345 8.88432 9.60011 7.06469 9.60011 5.16269C9.60011 4.56039 9.32368 4.0283 8.89698 3.66816L9.8212 2.74394C9.85088 2.82725 9.90733 2.89838 9.98172 2.94621C10.0561 2.99404 10.1443 3.01586 10.2324 3.00827C10.3205 3.00068 10.4036 2.96411 10.4687 2.90427C10.5338 2.84443 10.5773 2.7647 10.5923 2.67754L10.7923 1.67754C10.8041 1.61848 10.8024 1.55753 10.7873 1.49923C10.7723 1.44093 10.7442 1.38677 10.7053 1.34081C10.6664 1.29485 10.6177 1.25826 10.5626 1.23378C10.5076 1.20929 10.4478 1.19755 10.3876 1.19941Z" fill="white"/>
</svg>
