<svg width="64" height="64" viewBox="0 0 64 64" fill="none" xmlns="http://www.w3.org/2000/svg">
<g filter="url(#filter0_d_225_4519)">
<path d="M39.8259 22.0439C41.2774 27.7893 41.0381 34.5259 37.9279 39.6054C36.7954 41.4637 38.0236 43.4305 38.6775 45.5057C39.1241 46.8994 39.9216 48.3706 39.3953 49.7334C39.1365 50.3556 38.6974 50.8915 38.1312 51.2763C37.565 51.6611 36.896 51.8782 36.2053 51.9013C34.3788 52.0329 32.5449 52.0329 30.7185 51.9013C22.9348 51.4367 30.8461 43.2601 28.613 39.6209C26.7285 36.2259 25.7677 32.4202 25.8218 28.5639C25.8218 26.4113 25.5666 23.1126 27.2892 21.4556C29.8093 19.0398 34.3072 19.0243 37.1623 20.3252M26.1567 32.0789C26.3162 33.9837 28.5492 34.2626 30.0645 33.8135C31.5798 33.3644 33.0791 32.0944 34.8495 31.7537C35.9023 31.5044 37.0123 31.6299 37.9781 32.1073C38.9438 32.5846 39.7013 33.3824 40.113 34.3557M33.8447 37.3752L43 13M29.6179 48.7419C31.9955 49.4682 34.5454 49.4682 36.923 48.7419M25.758 28.7339C25.4376 28.7962 25.1117 28.8274 24.785 28.8269C23.516 28.8269 22.2989 28.3375 21.4015 27.4662C20.5041 26.5949 20 25.4132 20 24.1811C20 22.9489 20.5041 21.7672 21.4015 20.8959C22.2989 20.0247 23.516 19.5352 24.785 19.5352C26.0541 19.5352 27.2712 20.0247 28.1685 20.8959C29.0659 21.7672 29.57 22.9489 29.57 24.1811M26.2365 23.4223C27.8167 24.1282 29.5289 24.5128 31.2679 24.5527C33.0069 24.5927 34.736 24.287 36.3488 23.6544" stroke="white" stroke-linecap="round" stroke-linejoin="round" shape-rendering="crispEdges"/>
</g>
<defs>
<filter id="filter0_d_225_4519" x="10" y="3" width="43" height="59" filterUnits="userSpaceOnUse" color-interpolation-filters="sRGB">
<feFlood flood-opacity="0" result="BackgroundImageFix"/>
<feColorMatrix in="SourceAlpha" type="matrix" values="0 0 0 0 0 0 0 0 0 0 0 0 0 0 0 0 0 0 127 0" result="hardAlpha"/>
<feOffset/>
<feGaussianBlur stdDeviation="4.75"/>
<feComposite in2="hardAlpha" operator="out"/>
<feColorMatrix type="matrix" values="0 0 0 0 0 0 0 0 0 0.814378 0 0 0 0 0.773659 0 0 0 1 0"/>
<feBlend mode="normal" in2="BackgroundImageFix" result="effect1_dropShadow_225_4519"/>
<feBlend mode="normal" in="SourceGraphic" in2="effect1_dropShadow_225_4519" result="shape"/>
</filter>
</defs>
</svg>
