<svg width="34" height="34" viewBox="0 0 34 34" fill="none" xmlns="http://www.w3.org/2000/svg">
<path d="M9.79968 8.1993C9.69367 8.1978 9.58842 8.21738 9.49004 8.25692C9.39167 8.29645 9.30213 8.35514 9.22663 8.42957C9.15114 8.50401 9.09119 8.5927 9.05027 8.69051C9.00935 8.78832 8.98828 8.89328 8.98828 8.9993C8.98828 9.10532 9.00935 9.21028 9.05027 9.30809C9.09119 9.40589 9.15114 9.49459 9.22663 9.56903C9.30213 9.64346 9.39167 9.70215 9.49004 9.74168C9.58842 9.78121 9.69367 9.8008 9.79968 9.7993H9.87624L11.3309 24.3587C11.4119 25.1697 12.1083 25.7993 12.9231 25.7993H21.0762C21.8911 25.7993 22.5875 25.1697 22.6684 24.3587L24.1231 9.7993H24.1997C24.3057 9.8008 24.4109 9.78121 24.5093 9.74168C24.6077 9.70215 24.6972 9.64346 24.7727 9.56903C24.8482 9.49459 24.9082 9.40589 24.9491 9.30809C24.99 9.21028 25.0111 9.10532 25.0111 8.9993C25.0111 8.89328 24.99 8.78832 24.9491 8.69051C24.9082 8.5927 24.8482 8.50401 24.7727 8.42957C24.6972 8.35514 24.6077 8.29645 24.5093 8.25692C24.4109 8.21738 24.3057 8.1978 24.1997 8.1993H9.79968ZM11.4825 9.7993H22.5169L22.1965 12.9993H11.8028L11.4825 9.7993ZM19.7997 14.5993C20.4621 14.5993 20.9997 15.1369 20.9997 15.7993C20.9997 16.4617 20.4621 16.9993 19.7997 16.9993C19.1373 16.9993 18.5997 16.4617 18.5997 15.7993C18.5997 15.1369 19.1373 14.5993 19.7997 14.5993ZM14.9997 17.7993C15.6621 17.7993 16.1997 18.3369 16.1997 18.9993C16.1997 19.6617 15.6621 20.1993 14.9997 20.1993C14.3373 20.1993 13.7997 19.6617 13.7997 18.9993C13.7997 18.3369 14.3373 17.7993 14.9997 17.7993ZM17.7997 20.9993C18.2413 20.9993 18.5997 21.3577 18.5997 21.7993C18.5997 22.2409 18.2413 22.5993 17.7997 22.5993C17.3581 22.5993 16.9997 22.2409 16.9997 21.7993C16.9997 21.3577 17.3581 20.9993 17.7997 20.9993Z" fill="#185D66"/>
</svg>
