<svg width="30" height="30" viewBox="0 0 30 30" fill="none" xmlns="http://www.w3.org/2000/svg">
<path d="M4.92862 5.00009C4.80729 4.99839 4.68684 5.02064 4.57425 5.06556C4.46166 5.11049 4.35919 5.17718 4.27279 5.26176C4.18639 5.34635 4.11778 5.44714 4.07095 5.55828C4.02412 5.66943 4 5.7887 4 5.90918C4 6.02965 4.02412 6.14893 4.07095 6.26007C4.11778 6.37121 4.18639 6.47201 4.27279 6.55659C4.35919 6.64118 4.46166 6.70787 4.57425 6.75279C4.68684 6.79771 4.80729 6.81997 4.92862 6.81826H5.6618L12.2533 15H17.7467L24.3382 6.81826H25.0714C25.1927 6.81997 25.3132 6.79771 25.4257 6.75279C25.5383 6.70787 25.6408 6.64118 25.7272 6.55659C25.8136 6.47201 25.8822 6.37121 25.9291 6.26007C25.9759 6.14893 26 6.02965 26 5.90918C26 5.7887 25.9759 5.66943 25.9291 5.55828C25.8822 5.44714 25.8136 5.34635 25.7272 5.26176C25.6408 5.17718 25.5383 5.11049 25.4257 5.06556C25.3132 5.02064 25.1927 4.99839 25.0714 5.00009H4.92862ZM12.2533 16.8182V25L17.7467 23.1818V16.8182H12.2533Z" fill="#185D66"/>
</svg>
