<svg width="50" height="50" viewBox="0 0 50 50" fill="none" xmlns="http://www.w3.org/2000/svg">
<path d="M6.66683 6.66663C6.66683 6.66663 3.3335 13.3333 3.3335 20C3.3335 25.9913 6.26248 30.9188 13.3335 31.582V38.7369L7.8973 40.052V40.0553C7.50528 40.1592 7.1646 40.4025 6.93907 40.7396C6.71354 41.0766 6.61863 41.4843 6.67213 41.8864C6.72562 42.2884 6.92385 42.6571 7.22967 42.9234C7.5355 43.1898 7.92795 43.3355 8.3335 43.3333H14.7202C14.9002 43.363 15.0838 43.363 15.2638 43.3333H21.6668C22.0746 43.3387 22.4702 43.1944 22.7788 42.9277C23.0873 42.6611 23.2874 42.2905 23.3412 41.8863C23.3949 41.482 23.2986 41.0721 23.0704 40.734C22.8422 40.396 22.4981 40.1534 22.103 40.052L16.6668 38.7369V31.582C23.7378 30.9188 26.6668 25.9913 26.6668 20C26.6668 13.3333 23.3335 6.66663 23.3335 6.66663H15.0002H6.66683ZM31.6668 6.66663C30.7468 6.66663 30.0002 7.41329 30.0002 8.33329V17.9752C30.0002 21.8789 32.5689 25.3867 36.2241 26.3704L35.0002 39.7102H35.0132C35.0046 39.8066 35.0003 39.9032 35.0002 40C35.0002 40.884 35.3514 41.7319 35.9765 42.357C36.6016 42.9821 37.4494 43.3333 38.3335 43.3333C39.2176 43.3333 40.0654 42.9821 40.6905 42.357C41.3156 41.7319 41.6668 40.884 41.6668 40C41.6656 39.9032 41.6602 39.8065 41.6506 39.7102H41.6538L40.4331 26.3899C44.0171 25.4583 46.6668 22.2086 46.6668 18.3333V8.33329C46.6668 7.41329 45.9202 6.66663 45.0002 6.66663C44.0802 6.66663 43.3335 7.41329 43.3335 8.33329V16.6666C43.3335 17.5883 42.5868 18.3333 41.6668 18.3333C40.7468 18.3333 40.0002 17.5883 40.0002 16.6666V8.33329C40.0002 7.41329 39.2535 6.66663 38.3335 6.66663C37.4135 6.66663 36.6668 7.41329 36.6668 8.33329V16.6666C36.6668 17.5883 35.9202 18.3333 35.0002 18.3333C34.0802 18.3333 33.3335 17.5883 33.3335 16.6666V8.33329C33.3335 7.41329 32.5868 6.66663 31.6668 6.66663ZM38.3205 26.6601C38.3248 26.6601 38.3292 26.6634 38.3335 26.6634V36.6666C38.3292 36.6666 38.3248 36.6666 38.3205 36.6666V26.6601Z" fill="#D71920"/>
</svg>
