<svg width="34" height="34" viewBox="0 0 34 34" fill="none" xmlns="http://www.w3.org/2000/svg">
<path d="M17.0004 7.40039C11.7865 7.40039 7.40039 10.8955 7.40039 15.4004C7.40039 22.5988 12.1708 26.6004 15.4004 26.6004C15.8524 26.6004 16.6268 26.191 17.0004 26.191C17.374 26.191 18.1484 26.6004 18.6004 26.6004C21.83 26.6004 26.6004 22.5988 26.6004 15.4004C26.6004 10.8955 22.2142 7.40039 17.0004 7.40039ZM17.0004 9.00039C21.5068 9.00039 25.0004 11.9524 25.0004 15.4004C25.0004 18.8484 21.5068 21.8004 17.0004 21.8004C12.494 21.8004 9.00039 18.8484 9.00039 15.4004C9.00039 11.9524 12.494 9.00039 17.0004 9.00039ZM15.7488 10.6051C14.6576 10.7707 13.6679 11.1489 12.8535 11.6801C12.5903 11.8521 12.6118 12.2502 12.891 12.3926L15.3316 13.6379C15.73 13.8411 16.2004 13.5454 16.2004 13.091V11.0129C16.2004 10.7673 15.9872 10.5691 15.7488 10.6051ZM18.252 10.6051C18.0136 10.5683 17.8004 10.7673 17.8004 11.0129V13.091C17.8004 13.5454 18.2707 13.8411 18.6691 13.6379L21.1098 12.3926C21.389 12.2502 21.4105 11.8513 21.1473 11.6801C20.3329 11.1481 19.3432 10.7707 18.252 10.6051ZM11.3863 13.4848C11.2324 13.4721 11.0786 13.5471 11.0066 13.6941C10.7466 14.2253 10.6004 14.7996 10.6004 15.4004C10.6004 16.0012 10.7466 16.5754 11.0066 17.1066C11.1026 17.3026 11.3459 17.3722 11.5379 17.2738L14.1379 15.9473C14.5803 15.7217 14.5803 15.0791 14.1379 14.8535L11.5379 13.527C11.4899 13.5026 11.4376 13.489 11.3863 13.4848ZM22.6145 13.4848C22.5632 13.489 22.5109 13.5024 22.4629 13.527L19.8629 14.8535C19.4205 15.0791 19.4205 15.7217 19.8629 15.9473L22.4629 17.2738C22.6549 17.3714 22.8981 17.3026 22.9941 17.1066C23.2541 16.5754 23.4004 16.0012 23.4004 15.4004C23.4004 14.7996 23.2541 14.2253 22.9941 13.6941C22.9221 13.5471 22.7684 13.472 22.6145 13.4848ZM15.6363 17.0988C15.5363 17.0926 15.4312 17.1121 15.3316 17.1629L12.891 18.4082C12.6118 18.5506 12.5903 18.9487 12.8535 19.1207C13.6679 19.6527 14.6576 20.0301 15.7488 20.1957C15.9872 20.2317 16.2004 20.0335 16.2004 19.7879V17.7098C16.2004 17.369 15.9365 17.1177 15.6363 17.0988ZM18.3645 17.0988C18.0643 17.1177 17.8004 17.369 17.8004 17.7098V19.7879C17.8004 20.0335 18.0136 20.2317 18.252 20.1957C19.3432 20.0301 20.3329 19.6519 21.1473 19.1207C21.4097 18.9495 21.3882 18.5506 21.1098 18.4082L18.6691 17.1629C18.5695 17.1121 18.4645 17.0926 18.3645 17.0988Z" fill="#185D66"/>
</svg>
