<svg width="50" height="50" viewBox="0 0 50 50" fill="none" xmlns="http://www.w3.org/2000/svg">
<path d="M25.1143 11C25.8082 11.0001 26.4697 11.282 26.9541 11.7764C27.3616 12.1923 27.6135 12.7303 27.6836 13.3018H28.7773C29.2284 13.3018 29.6602 13.4622 30.001 13.7471L30.1416 13.877L30.2676 14.0195C30.5448 14.3647 30.6963 14.7954 30.6963 15.2393V15.5938H30.7783C31.7295 15.5938 32.6375 15.9793 33.3037 16.6592C33.9693 17.3385 34.3398 18.2559 34.3398 19.208V33.7861C34.3398 34.2577 34.2489 34.7255 34.0713 35.1621C33.8935 35.5988 33.6321 35.9973 33.3018 36.333C32.9715 36.6687 32.5783 36.9353 32.1445 37.1172C31.7118 37.2986 31.2473 37.391 30.7783 37.3896V37.3906H19.5518C18.6032 37.3906 17.6976 37.0052 17.0332 36.3271C16.3696 35.6498 16 34.7354 16 33.7861V18.9473C16 18.0643 16.3433 17.2134 16.9609 16.583C17.5794 15.9518 18.423 15.5938 19.3066 15.5938H19.7051V15.2285C19.7105 14.7222 19.9109 14.2342 20.2695 13.8721L20.4111 13.7432C20.7527 13.4605 21.1838 13.3017 21.6338 13.3018H22.5439C22.614 12.7304 22.866 12.1923 23.2734 11.7764C23.7579 11.2819 24.4201 11 25.1143 11ZM19.3066 17.5938C18.9668 17.5938 18.6363 17.7307 18.3896 17.9824C18.1423 18.2348 18 18.5817 18 18.9473V33.7861C18 34.218 18.1686 34.6284 18.4619 34.9277C18.7545 35.2263 19.147 35.3906 19.5518 35.3906H30.7822C30.9836 35.3914 31.1837 35.3519 31.3711 35.2734C31.5586 35.1949 31.7303 35.0778 31.876 34.9297C32.0216 34.7816 32.1388 34.6046 32.2188 34.4082C32.2987 34.2117 32.3398 34 32.3398 33.7861V19.208C32.3398 18.7734 32.1702 18.3599 31.875 18.0586C31.5806 17.7583 31.1856 17.5938 30.7783 17.5938H30.6758C30.6186 18.002 30.4348 18.3863 30.1416 18.6855C29.7835 19.051 29.2928 19.2598 28.7773 19.2598H21.6338V19.2588C21.381 19.2602 21.1308 19.2125 20.8975 19.1162C20.6608 19.0185 20.4461 18.8746 20.2666 18.6934C20.0872 18.5123 19.9467 18.2972 19.8506 18.0625C19.789 17.9119 19.748 17.7541 19.7256 17.5938H19.3066ZM27.1367 30.6348C27.689 30.6348 28.1367 31.0825 28.1367 31.6348C28.1365 32.1868 27.6888 32.6347 27.1367 32.6348H20.2988C19.7467 32.6348 19.2991 32.1868 19.2988 31.6348C19.2988 31.0825 19.7465 30.6348 20.2988 30.6348H27.1367ZM29.6963 30.6074C30.2484 30.6074 30.6961 31.0553 30.6963 31.6074C30.6963 32.1597 30.2486 32.6074 29.6963 32.6074H29.1514C28.5992 32.6073 28.1514 32.1596 28.1514 31.6074C28.1516 31.0554 28.5993 30.6076 29.1514 30.6074H29.6963ZM27.1367 26.2773C27.689 26.2774 28.1367 26.7251 28.1367 27.2773C28.1365 27.8294 27.6888 28.2773 27.1367 28.2773H20.2988C19.7467 28.2773 19.299 27.8295 19.2988 27.2773C19.2988 26.7251 19.7465 26.2773 20.2988 26.2773H27.1367ZM29.6963 26.251C30.2486 26.251 30.6963 26.6987 30.6963 27.251C30.696 27.8031 30.2484 28.251 29.6963 28.251H29.1514C28.5994 28.2508 28.1516 27.803 28.1514 27.251C28.1514 26.6988 28.5992 26.2511 29.1514 26.251H29.6963ZM27.1367 21.8936C27.689 21.8936 28.1367 22.3413 28.1367 22.8936C28.1365 23.4457 27.6889 23.8935 27.1367 23.8936H20.2988C19.7466 23.8936 19.299 23.4457 19.2988 22.8936C19.2988 22.3413 19.7465 21.8936 20.2988 21.8936H27.1367ZM29.6963 21.8936C30.2486 21.8936 30.6963 22.3413 30.6963 22.8936C30.6961 23.4457 30.2485 23.8936 29.6963 23.8936H29.1514C28.5993 23.8934 28.1515 23.4456 28.1514 22.8936C28.1514 22.3414 28.5992 21.8937 29.1514 21.8936H29.6963ZM25.1143 13C24.9639 13 24.8148 13.0608 24.7021 13.1758C24.5888 13.2915 24.5215 13.4528 24.5215 13.625C24.523 14.0009 24.4002 14.3807 24.1729 14.6846C23.9382 14.9979 23.5291 15.3017 22.9756 15.3018H21.7051V17.2598H28.6963V16.7285C28.6903 16.6844 28.6865 16.6395 28.6865 16.5938C28.6865 16.5478 28.6903 16.5023 28.6963 16.458V15.3018H27.252C26.6985 15.3017 26.2893 14.9979 26.0547 14.6846C25.8273 14.3807 25.7046 14.0009 25.7061 13.625L25.6934 13.498C25.6691 13.3748 25.6103 13.2625 25.5254 13.1758C25.4128 13.0609 25.2645 13.0001 25.1143 13Z" fill="#185D66"/>
</svg>
