<svg width="24" height="24" viewBox="0 0 24 24" fill="none" xmlns="http://www.w3.org/2000/svg">
<path d="M19.1848 1.59214C18.977 1.59834 18.7797 1.6852 18.6348 1.83433C18.6348 1.83433 18.3325 2.14674 18.0848 2.64214C17.9107 2.99046 17.7462 3.46052 17.6614 4.02964C15.4965 4.1804 14.4005 5.72052 14.4005 7.99996C14.1101 12.5496 12.8822 17.2896 6.99422 19.764C6.63982 19.9128 6.40047 20.2511 6.40047 20.6343C6.40047 21.1631 6.83653 21.6021 7.36453 21.5765C14.9693 21.2061 21.5989 16.7998 21.5989 7.80464C21.5989 6.02679 20.8184 4.64453 19.2583 4.17496C19.3188 3.83036 19.4175 3.55496 19.5161 3.35777C19.6684 3.05318 19.7661 2.96558 19.7661 2.96558C19.8817 2.85321 19.9607 2.70854 19.9926 2.55052C20.0246 2.39251 20.0081 2.22852 19.9452 2.08005C19.8824 1.93158 19.7762 1.80556 19.6405 1.7185C19.5048 1.63143 19.346 1.58739 19.1848 1.59214ZM13.6005 2.39996C12.8304 2.39996 12.17 2.71147 11.7536 3.14527C11.3372 3.57907 11.1303 4.07315 10.9536 4.48589C10.7769 4.89864 10.6249 5.2373 10.4942 5.40152C10.3635 5.56574 10.3455 5.59996 10.0723 5.59996C9.48319 5.59996 8.64531 5.26958 7.99735 4.90308C7.34939 4.53659 6.90203 4.17652 6.90203 4.17652C6.78446 4.08194 6.64254 4.02254 6.49265 4.00517C6.34276 3.9878 6.19101 4.01317 6.05492 4.07836C5.91884 4.14354 5.80396 4.24588 5.72354 4.37356C5.64313 4.50125 5.60047 4.64906 5.60047 4.79996C5.60047 7.28161 6.27827 8.79384 6.92235 9.82652C7.24439 10.3429 7.54046 10.7408 7.72703 11.075C7.9136 11.4091 8.00047 11.6555 8.00047 12C8.00047 12.4437 7.8811 12.8912 7.68641 13.1656C7.49171 13.4399 7.27965 13.6 6.7536 13.6C6.21121 13.6 6.00534 13.3898 5.82235 13.1343C5.63935 12.8788 5.58328 12.6343 5.58328 12.6343C5.55269 12.4898 5.48269 12.3566 5.38104 12.2494C5.27939 12.1423 5.15005 12.0653 5.00735 12.0271C4.86466 11.989 4.71419 11.991 4.5726 12.0331C4.431 12.0752 4.30383 12.1557 4.20516 12.2656C4.20516 12.2656 3.7062 12.8335 3.2661 13.8484C2.82599 14.8633 2.40047 16.3779 2.40047 18.4C2.39897 18.506 2.41856 18.6112 2.45809 18.7096C2.49762 18.808 2.55631 18.8975 2.63074 18.973C2.70518 19.0485 2.79388 19.1084 2.89168 19.1494C2.98949 19.1903 3.09445 19.2114 3.20047 19.2114C3.30649 19.2114 3.41145 19.1903 3.50926 19.1494C3.60707 19.1084 3.69576 19.0485 3.7702 18.973C3.84463 18.8975 3.90332 18.808 3.94285 18.7096C3.98238 18.6112 4.00197 18.506 4.00047 18.4C4.00047 16.6012 4.37495 15.3158 4.73485 14.4859C4.78207 14.377 4.77613 14.4261 4.82078 14.3343C5.25036 14.7811 5.86895 15.2 6.7536 15.2C7.72675 15.2 8.53699 14.732 8.9911 14.0921C9.4452 13.4523 9.60047 12.6994 9.60047 12C9.60047 11.3376 9.38734 10.767 9.12391 10.2953C8.86048 9.82349 8.55656 9.42531 8.2786 8.97964C7.89341 8.36207 7.59412 7.499 7.4036 6.38746C8.14451 6.79133 9.0578 7.19996 10.0723 7.19996C10.7804 7.19996 11.399 6.83418 11.7458 6.39839C12.0926 5.96261 12.2582 5.50128 12.4239 5.11402C12.5897 4.72676 12.7488 4.42084 12.9083 4.25464C13.0678 4.08845 13.1926 3.99996 13.6005 3.99996C13.7065 4.00146 13.8117 3.98187 13.9101 3.94234C14.0085 3.90281 14.098 3.84412 14.1735 3.76969C14.249 3.69525 14.309 3.60655 14.3499 3.50875C14.3908 3.41094 14.4119 3.30598 14.4119 3.19996C14.4119 3.09394 14.3908 2.98897 14.3499 2.89117C14.309 2.79336 14.249 2.70466 14.1735 2.63023C14.098 2.55579 14.0085 2.49711 13.9101 2.45757C13.8117 2.41804 13.7065 2.39846 13.6005 2.39996Z" fill="white"/>
</svg>
