<svg width="50" height="50" viewBox="0 0 50 50" fill="none" xmlns="http://www.w3.org/2000/svg">
<g clip-path="url(#clip0_2081_5846)">
<path d="M19.207 37.7461C19.7812 37.7461 20.1797 37.4414 20.8945 36.8086L24.9375 33.2109H32.4609C35.9531 33.2109 37.8281 31.2773 37.8281 27.8438V18.8672C37.8281 15.4336 35.9531 13.5 32.4609 13.5H17.3672C13.875 13.5 12 15.4219 12 18.8672V27.8438C12 31.2891 13.875 33.2109 17.3672 33.2109H17.9297V36.2578C17.9297 37.1602 18.3867 37.7461 19.207 37.7461ZM19.6875 35.6016V32.2031C19.6875 31.5703 19.4414 31.3242 18.8086 31.3242H17.3672C15 31.3242 13.8867 30.1172 13.8867 27.832V18.8672C13.8867 16.582 15 15.3867 17.3672 15.3867H32.4609C34.8164 15.3867 35.9414 16.582 35.9414 18.8672V27.832C35.9414 30.1172 34.8164 31.3242 32.4609 31.3242H24.8672C24.2109 31.3242 23.8828 31.418 23.4375 31.875L19.6875 35.6016Z" fill="#185D66"/>
<path d="M19.2539 22.1016C19.2539 23.4375 20.0859 24.4688 21.4102 24.4688C21.9023 24.4688 22.3945 24.3867 22.6992 24H22.793C22.3594 24.9727 21.457 25.5938 20.6953 25.793C20.2617 25.9102 20.1328 26.0977 20.1328 26.3789C20.1328 26.6719 20.3789 26.918 20.707 26.918C21.8906 26.918 24.2695 25.5117 24.2695 22.5352C24.2695 20.9414 23.2383 19.7344 21.7148 19.7344C20.3086 19.7344 19.2539 20.707 19.2539 22.1016ZM25.582 22.1016C25.582 23.4375 26.4141 24.4688 27.7383 24.4688C28.2305 24.4688 28.7227 24.3867 29.0273 24H29.1211C28.6875 24.9727 27.7852 25.5938 27.0234 25.793C26.6016 25.9102 26.4609 26.0977 26.4609 26.3789C26.4609 26.6719 26.707 26.918 27.0352 26.918C28.2188 26.918 30.5977 25.5117 30.5977 22.5352C30.5977 20.9414 29.5664 19.7344 28.043 19.7344C26.6367 19.7344 25.582 20.707 25.582 22.1016Z" fill="#185D66"/>
</g>
<defs>
<clipPath id="clip0_2081_5846">
<rect width="25.8281" height="25.7461" fill="white" transform="translate(12 12)"/>
</clipPath>
</defs>
</svg>
