<svg width="54" height="54" viewBox="0 0 54 54" fill="none" xmlns="http://www.w3.org/2000/svg">
<path d="M12 20C12 17.7909 13.7909 16 16 16C18.2091 16 20 17.7909 20 20C20 22.2091 18.2091 24 16 24C13.7909 24 12 22.2091 12 20Z" fill="#185D66"/>
<path d="M23 20C23 17.7909 24.7909 16 27 16C29.2091 16 31 17.7909 31 20C31 22.2091 29.2091 24 27 24C24.7909 24 23 22.2091 23 20Z" fill="#185D66"/>
<path d="M34 20C34 17.7909 35.7909 16 38 16C40.2091 16 42 17.7909 42 20C42 22.2091 40.2091 24 38 24C35.7909 24 34 22.2091 34 20Z" fill="#185D66"/>
<path d="M12 34C12 31.7909 13.7909 30 16 30C18.2091 30 20 31.7909 20 34C20 36.2091 18.2091 38 16 38C13.7909 38 12 36.2091 12 34Z" fill="#185D66"/>
<path d="M23 34C23 31.7909 24.7909 30 27 30C29.2091 30 31 31.7909 31 34C31 36.2091 29.2091 38 27 38C24.7909 38 23 36.2091 23 34Z" fill="#185D66"/>
<path d="M34 34C34 31.7909 35.7909 30 38 30C40.2091 30 42 31.7909 42 34C42 36.2091 40.2091 38 38 38C35.7909 38 34 36.2091 34 34Z" fill="#185D66"/>
</svg>
