<svg width="50" height="50" viewBox="0 0 50 50" fill="none" xmlns="http://www.w3.org/2000/svg">
<path d="M24.457 13.0059C24.8284 12.9893 26.4609 12.9616 28.2852 13.6104C30.0758 14.2472 32.0888 15.5545 33.2178 18.1611L33.3242 18.418L33.3311 18.4355C34.1837 20.7039 34.2196 23.18 33.4355 25.4707C32.042 29.9589 28.2772 34.0799 25.1475 36.7598C24.7733 37.0799 24.2219 37.0798 23.8477 36.7598C20.7135 34.0797 16.9484 29.9596 15.5547 25.4717L15.5557 25.4707C14.7773 23.178 14.8168 20.7021 15.6719 18.4346L15.6787 18.417C17.8997 12.8463 23.9805 13.0269 24.457 13.0059ZM24.5459 15.0039C23.7892 15.0375 19.2185 14.9542 17.54 19.1504C16.8491 20.9895 16.819 22.994 17.4551 24.8506C17.4582 24.8596 17.462 24.8688 17.4648 24.8779C18.602 28.5404 21.6307 32.0944 24.4961 34.668C27.3588 32.0941 30.389 28.5408 31.5264 24.8779L31.5361 24.8477C32.1783 22.99 32.1511 20.9825 31.459 19.1406C30.6181 17.0424 29.0694 16.0124 27.6152 15.4951C26.1329 14.968 24.7899 14.993 24.5459 15.0039ZM24.8359 18.2031C25.0957 18.2219 25.4546 18.2707 25.8477 18.3945C26.6446 18.6456 27.6294 19.2266 28.1309 20.4893L28.1973 20.6689C28.5062 21.5709 28.484 22.5505 28.1309 23.4414V23.4424C27.6294 24.7051 26.6446 25.2851 25.8477 25.5361C25.4545 25.66 25.0958 25.7098 24.8359 25.7285C24.7048 25.738 24.5943 25.7399 24.5137 25.7393C24.4787 25.739 24.4488 25.7372 24.4248 25.7363C24.4021 25.7369 24.3745 25.7383 24.3428 25.7383C24.2624 25.7383 24.1531 25.7358 24.0225 25.7256C23.7633 25.7053 23.4047 25.654 23.0127 25.5293C22.2203 25.2769 21.2366 24.6982 20.7344 23.4443L20.7324 23.4414C20.3558 22.4911 20.3557 21.4395 20.7324 20.4893H20.7334C21.2348 19.2267 22.2188 18.6457 23.0156 18.3945C23.4089 18.2706 23.7684 18.2219 24.0283 18.2031C24.1593 18.1937 24.269 18.1908 24.3496 18.1914C24.3812 18.1916 24.409 18.1926 24.4316 18.1934C24.4543 18.1926 24.482 18.1916 24.5137 18.1914C24.5943 18.1908 24.7048 18.1937 24.8359 18.2031ZM24.1719 20.1973C24.0248 20.2079 23.8261 20.236 23.6172 20.3018C23.2601 20.4143 22.9088 20.621 22.6816 21.0361L22.5918 21.2266C22.4032 21.7023 22.4031 22.2252 22.5908 22.7012L22.6797 22.8896C22.9064 23.3006 23.2591 23.5091 23.6201 23.624C23.8302 23.6908 24.03 23.7199 24.1777 23.7314C24.2502 23.7371 24.3072 23.7383 24.3418 23.7383H24.5C24.5059 23.7385 24.5162 23.7392 24.5293 23.7393C24.5635 23.7395 24.6197 23.7386 24.6914 23.7334C24.8385 23.7228 25.0379 23.6948 25.2471 23.6289C25.6551 23.5003 26.055 23.2491 26.2715 22.7041L26.334 22.5234C26.4403 22.1581 26.4403 21.7726 26.334 21.4072L26.2715 21.2266C26.0549 20.6818 25.6551 20.4303 25.2471 20.3018C25.038 20.2359 24.8385 20.2079 24.6914 20.1973C24.6197 20.1921 24.5635 20.1912 24.5293 20.1914C24.517 20.1915 24.5069 20.1912 24.501 20.1914V20.1924L24.5 20.1914C24.4985 20.1915 24.4971 20.1923 24.4961 20.1924H24.3682C24.3668 20.1922 24.3646 20.1915 24.3623 20.1914L24.3613 20.1924V20.1914C24.3553 20.1912 24.3463 20.1915 24.335 20.1914C24.3007 20.1912 24.244 20.1921 24.1719 20.1973Z" fill="#185D66"/>
</svg>
