<svg width="50" height="50" viewBox="0 0 50 50" fill="none" xmlns="http://www.w3.org/2000/svg">
<path d="M30.455 14C27 14 25 17 25 17C25 17 23 14 19.545 14C15.93 14 13 16.93 13 20.545C13 26.886 20.421 32.951 23.796 35.597L23.8 35.591C24.135 35.844 24.548 36 25 36C25.452 36 25.865 35.844 26.2 35.591L26.204 35.597C29.579 32.951 37 26.886 37 20.545C37 16.93 34.07 14 30.455 14ZM26 26.816V29C26 29.552 25.552 30 25 30C24.448 30 24 29.552 24 29V26.816C22.837 26.403 22 25.304 22 24C22 22.343 23.343 21 25 21C26.657 21 28 22.343 28 24C28 25.304 27.163 26.403 26 26.816Z" fill="#185D66"/>
</svg>
