<svg width="64" height="64" viewBox="0 0 64 64" fill="none" xmlns="http://www.w3.org/2000/svg">
<g filter="url(#filter0_d_225_4487)">
<path d="M40.1358 45.5373H25.9261C22.0233 45.5373 18.8535 42.4062 18.8535 38.5619V31.7917C18.8535 27.9426 22.0283 24.8164 25.9261 24.8164H40.1358C44.0386 24.8164 47.2084 27.9475 47.2084 31.7917V38.5619C47.2084 42.4111 44.0336 45.5373 40.1358 45.5373ZM25.9261 25.9838C22.682 25.9838 20.0422 28.5874 20.0422 31.7869V38.5571C20.0422 41.7565 22.682 44.3601 25.9261 44.3601H40.1358C43.3799 44.3601 46.0197 41.7565 46.0197 38.5571V31.7869C46.0197 28.5874 43.3799 25.9838 40.1358 25.9838H25.9261Z" fill="white"/>
<path d="M23.3227 30.8176C23.1945 30.8176 23.0663 30.7782 22.9578 30.6895C22.7015 30.4873 22.6571 30.1175 22.8592 29.8562C24.0031 28.4018 25.6301 27.4256 27.4395 27.11C27.76 27.0558 28.0657 27.2678 28.1249 27.5932C28.1791 27.9137 27.9671 28.2193 27.6417 28.2785C26.1182 28.5448 24.7525 29.3632 23.7861 30.5909C23.6678 30.7388 23.4952 30.8176 23.3227 30.8176Z" fill="white"/>
<path d="M29.4762 34.4043H19.5238C19.2357 34.4043 19 34.1793 19 33.9043C19 33.6293 19.2357 33.4043 19.5238 33.4043H29.4762C29.7643 33.4043 30 33.6293 30 33.9043C30 34.1793 29.7643 34.4043 29.4762 34.4043Z" fill="white"/>
<path d="M46.5 32.4043H36.5C36.225 32.4043 36 32.1793 36 31.9043C36 31.6293 36.225 31.4043 36.5 31.4043H46.5C46.775 31.4043 47 31.6293 47 31.9043C47 32.1793 46.775 32.4043 46.5 32.4043Z" fill="white"/>
<path d="M46.3913 40.4043L19.6087 40.361C19.2739 40.361 19 40.1043 19 39.881C19 39.661 19.2739 39.4043 19.6087 39.4043L46.3913 39.5176C46.7261 39.5176 47 39.741 47 39.961C47 40.181 46.7261 40.4043 46.3913 40.4043Z" fill="white"/>
<path d="M26.5833 37.4043H22.4167C22.1875 37.4043 22 37.1793 22 36.9043C22 36.6293 22.1875 36.4043 22.4167 36.4043H26.5833C26.8125 36.4043 27 36.6293 27 36.9043C27 37.1793 26.8125 37.4043 26.5833 37.4043Z" fill="white"/>
<path d="M43.4667 36.4043H36.5333C36.24 36.4043 36 36.1793 36 35.9043C36 35.6293 36.24 35.4043 36.5333 35.4043H43.4667C43.76 35.4043 44 35.6293 44 35.9043C44 36.1793 43.76 36.4043 43.4667 36.4043Z" fill="white"/>
<path d="M41.1481 48.8074H26.0035C25.6696 48.8074 25.3965 48.562 25.3965 48.2621C25.3965 47.9622 25.6696 47.7168 26.0035 47.7168H41.1481C41.4819 47.7168 41.7551 47.9622 41.7551 48.2621C41.7551 48.562 41.4819 48.8074 41.1481 48.8074Z" fill="white"/>
<path d="M38.6866 25.9053H27.3809C25.6853 25.9053 24.3066 24.6991 24.3066 23.2157V22.0712C24.3066 21.7807 24.5783 21.543 24.9104 21.543H41.152C41.4841 21.543 41.7558 21.7807 41.7558 22.0712V23.2157C41.7558 24.6991 40.3772 25.9053 38.6816 25.9053H38.6866ZM25.5192 22.5994V23.2157C25.5192 24.1137 26.3544 24.8488 27.3859 24.8488H38.6916C39.7181 24.8488 40.5583 24.1181 40.5583 23.2157V22.5994H25.5243H25.5192Z" fill="white"/>
<path d="M28.4957 20.8721C28.338 20.8721 28.1802 20.808 28.0619 20.6848C27.84 20.4432 27.8548 20.1523 28.0914 19.9304C29.3783 18.7373 31.2765 18.1309 33.3028 18.1309H33.3226C35.2158 18.1309 37.0351 18.6732 38.3072 19.7382C38.5586 19.9502 38.5882 20.2805 38.3811 20.5319C38.1691 20.7834 37.7993 20.7735 37.5479 20.5665C36.4829 19.6741 34.9447 19.1169 33.3226 19.1169H33.3078C31.5772 19.1169 29.9699 19.7036 28.9 20.6996C28.7866 20.8031 28.6436 20.8771 28.4957 20.8771V20.8721Z" fill="white"/>
<path d="M34.5848 19.0823C34.2594 19.0823 33.9932 18.8161 33.9932 18.4907V16.8538C33.9932 16.484 33.6875 16.1833 33.3177 16.1833C32.948 16.1833 32.6423 16.484 32.6423 16.8538V18.4907C32.6423 18.8161 32.376 19.0823 32.0506 19.0823C31.7252 19.0823 31.459 18.8161 31.459 18.4907V16.8538C31.459 15.8332 32.2922 15 33.3177 15C34.3433 15 35.1765 15.8332 35.1765 16.8538V18.4907C35.1765 18.8161 34.9103 19.0823 34.5848 19.0823Z" fill="white"/>
<path d="M17.1572 40.9234C17.0438 40.9234 16.9255 40.8888 16.8219 40.8198C15.3132 39.7844 13.4939 37.8813 13.3756 34.6864C13.3066 32.7685 12.641 31.1317 11.3985 29.83C10.9942 29.406 10.8858 28.7897 11.1274 28.2523C11.364 27.7198 11.8817 27.4043 12.4783 27.4043L14.2039 27.4536C15.0865 27.4782 15.9098 27.9121 16.4127 28.6172C16.6395 28.9327 16.8368 29.2926 16.9995 29.6969C17.1424 30.047 17.3594 30.328 17.6355 30.5203C17.9017 30.7076 17.9658 31.0774 17.7784 31.3437C17.5911 31.6099 17.2213 31.674 16.9551 31.4866C16.4916 31.1612 16.1366 30.7076 15.9049 30.1407C15.7767 29.8202 15.6189 29.5391 15.4513 29.3025C15.1604 28.8982 14.6822 28.6467 14.1694 28.632L12.4438 28.5827C12.291 28.5679 12.2318 28.6714 12.2071 28.7306C12.1825 28.7897 12.1529 28.8982 12.2564 29.0067C13.2524 30.0519 14.4603 31.8811 14.5589 34.6371C14.6575 37.339 16.2057 38.9561 17.4925 39.8387C17.7637 40.0211 17.8327 40.3909 17.6453 40.6621C17.5319 40.8297 17.3446 40.9184 17.1572 40.9184V40.9234Z" fill="white"/>
<path d="M50.2412 42.8761C49.5312 42.8761 48.9445 42.5063 48.5895 41.821C48.1507 40.9681 48.2247 39.9376 48.7818 39.1241L51.5034 35.1552C52.2725 34.036 52.5486 32.6357 52.2676 31.3095C52.0161 30.1311 50.8476 29.3817 49.6643 29.6331C49.3932 29.6923 49.1417 29.7959 48.915 29.9438C48.6438 30.1213 48.274 30.0473 48.0965 29.7761C47.919 29.505 47.993 29.1352 48.2641 28.9577C48.6142 28.726 49.0037 28.5682 49.4178 28.4794C51.2421 28.0899 53.0417 29.2535 53.4262 31.0679C53.7763 32.7048 53.4262 34.4403 52.4796 35.8257L49.758 39.7946C49.4474 40.2482 49.403 40.8152 49.6446 41.2836C49.832 41.6485 50.0637 41.7569 50.4729 41.6731C50.7589 41.6139 50.8526 41.4167 50.8772 41.3378C50.9167 41.2146 50.897 41.116 50.8575 41.0765C50.8082 41.0174 50.6652 41.0075 50.4926 41.0469C50.1771 41.116 49.8566 40.9089 49.7925 40.5933C49.7235 40.2729 49.9306 39.9573 50.2461 39.8932C51.0744 39.7157 51.5379 40.0658 51.74 40.2877C52.0704 40.6525 52.1739 41.1998 52.0063 41.7076C51.8189 42.2845 51.3407 42.7035 50.7195 42.8367C50.5568 42.8712 50.399 42.8909 50.2461 42.8909L50.2412 42.8761Z" fill="white"/>
</g>
<defs>
<filter id="filter0_d_225_4487" x="1.5" y="5.5" width="61.5586" height="52.8066" filterUnits="userSpaceOnUse" color-interpolation-filters="sRGB">
<feFlood flood-opacity="0" result="BackgroundImageFix"/>
<feColorMatrix in="SourceAlpha" type="matrix" values="0 0 0 0 0 0 0 0 0 0 0 0 0 0 0 0 0 0 127 0" result="hardAlpha"/>
<feOffset/>
<feGaussianBlur stdDeviation="4.75"/>
<feComposite in2="hardAlpha" operator="out"/>
<feColorMatrix type="matrix" values="0 0 0 0 0 0 0 0 0 0.814378 0 0 0 0 0.773659 0 0 0 1 0"/>
<feBlend mode="normal" in2="BackgroundImageFix" result="effect1_dropShadow_225_4487"/>
<feBlend mode="normal" in="SourceGraphic" in2="effect1_dropShadow_225_4487" result="shape"/>
</filter>
</defs>
</svg>
