<svg width="134" height="134" viewBox="0 0 134 134" fill="none" xmlns="http://www.w3.org/2000/svg">
<path d="M17.8669 17.8672C17.8669 17.8672 8.93359 35.7339 8.93359 53.6005C8.93359 69.6572 16.7833 82.8631 35.7336 84.6404V103.816L21.1646 107.34V107.349C20.114 107.627 19.201 108.279 18.5965 109.183C17.9921 110.086 17.7378 111.179 17.8811 112.256C18.0245 113.333 18.5557 114.322 19.3754 115.035C20.195 115.749 21.2467 116.14 22.3336 116.134H39.45C39.9324 116.214 40.4245 116.214 40.9069 116.134H58.0669C59.1598 116.148 60.22 115.762 61.047 115.047C61.8739 114.332 62.4101 113.339 62.5542 112.256C62.6982 111.172 62.44 110.074 61.8285 109.168C61.217 108.262 60.2946 107.612 59.2359 107.34L44.6669 103.816V84.6404C63.6173 82.8631 71.4669 69.6572 71.4669 53.6005C71.4669 35.7339 62.5336 17.8672 62.5336 17.8672H40.2003H17.8669ZM84.8669 17.8672C82.4013 17.8672 80.4003 19.8683 80.4003 22.3339V48.1742C80.4003 58.636 87.2846 68.0369 97.0805 70.6733L93.8003 106.424H93.8352C93.8123 106.682 93.8006 106.941 93.8003 107.201C93.8003 109.57 94.7415 111.842 96.4168 113.517C98.0921 115.193 100.364 116.134 102.734 116.134C105.103 116.134 107.375 115.193 109.05 113.517C110.726 111.842 111.667 109.57 111.667 107.201C111.664 106.941 111.649 106.682 111.623 106.424H111.632L108.361 70.7257C117.966 68.2288 125.067 59.5196 125.067 49.1339V22.3339C125.067 19.8683 123.066 17.8672 120.6 17.8672C118.135 17.8672 116.134 19.8683 116.134 22.3339V44.6672C116.134 47.1373 114.133 49.1339 111.667 49.1339C109.201 49.1339 107.2 47.1373 107.2 44.6672V22.3339C107.2 19.8683 105.199 17.8672 102.734 17.8672C100.268 17.8672 98.2669 19.8683 98.2669 22.3339V44.6672C98.2669 47.1373 96.2659 49.1339 93.8003 49.1339C91.3347 49.1339 89.3336 47.1373 89.3336 44.6672V22.3339C89.3336 19.8683 87.3325 17.8672 84.8669 17.8672ZM102.699 71.4497C102.71 71.4498 102.722 71.4585 102.734 71.4585V98.2672C102.722 98.2672 102.71 98.2672 102.699 98.2672V71.4497Z" fill="#3A3B39"/>
</svg>
