<svg width="24" height="24" viewBox="0 0 24 24" fill="none" xmlns="http://www.w3.org/2000/svg">
<path d="M11.0124 14.0783V13.9093C11.0157 13.3292 11.0671 12.8669 11.1665 12.5222C11.2693 12.1775 11.4184 11.8991 11.614 11.687C11.8095 11.4748 12.0449 11.2826 12.32 11.1103C12.5254 10.9777 12.7094 10.8401 12.8718 10.6976C13.0342 10.5551 13.1635 10.3977 13.2596 10.2253C13.3557 10.0497 13.4038 9.85411 13.4038 9.63867C13.4038 9.40998 13.3491 9.20946 13.2397 9.03711C13.1303 8.86476 12.9828 8.73218 12.7972 8.63938C12.6149 8.54658 12.4128 8.50018 12.1907 8.50018C11.9753 8.50018 11.7714 8.54824 11.5792 8.64435C11.387 8.73716 11.2295 8.87636 11.1069 9.06197C10.9843 9.24426 10.918 9.47129 10.908 9.74308H8.87962C8.89619 9.0802 9.05528 8.53332 9.35689 8.10245C9.6585 7.66826 10.0579 7.34511 10.555 7.13299C11.0522 6.91755 11.6007 6.80984 12.2006 6.80984C12.8602 6.80984 13.4435 6.91921 13.9506 7.13796C14.4577 7.3534 14.8555 7.66661 15.1438 8.07759C15.4322 8.48858 15.5763 8.98408 15.5763 9.5641C15.5763 9.95188 15.5117 10.2966 15.3825 10.5982C15.2565 10.8965 15.0792 11.1616 14.8505 11.3936C14.6218 11.6223 14.3517 11.8295 14.0401 12.0151C13.7783 12.1709 13.5629 12.3333 13.3938 12.5023C13.2281 12.6713 13.1038 12.8669 13.021 13.089C12.9414 13.311 12.9 13.5845 12.8967 13.9093V14.0783H11.0124ZM11.9968 17.2601C11.6654 17.2601 11.382 17.1441 11.1467 16.9121C10.9147 16.6768 10.8003 16.3951 10.8036 16.0669C10.8003 15.7421 10.9147 15.4637 11.1467 15.2317C11.382 14.9997 11.6654 14.8837 11.9968 14.8837C12.3117 14.8837 12.5884 14.9997 12.8271 15.2317C13.0657 15.4637 13.1867 15.7421 13.19 16.0669C13.1867 16.2857 13.1287 16.4862 13.016 16.6685C12.9066 16.8475 12.7624 16.9917 12.5835 17.101C12.4045 17.2071 12.2089 17.2601 11.9968 17.2601Z" fill="#185D66"/>
</svg>
