<svg width="50" height="50" viewBox="0 0 50 50" fill="none" xmlns="http://www.w3.org/2000/svg">
<g clip-path="url(#clip0_2232_4742)">
<path d="M42.4996 3.33398C42.0704 3.33564 41.6489 3.44774 41.2756 3.65951L28.2059 10.6289C29.7343 11.4839 30.9637 12.5531 31.8387 13.7865L43.2287 8.22331C43.7408 8.06715 44.1893 7.75073 44.5081 7.3206C44.8268 6.89047 44.9991 6.36937 44.9996 5.83398C44.9996 5.17094 44.7362 4.53506 44.2673 4.06622C43.7985 3.59738 43.1626 3.33398 42.4996 3.33398ZM18.3329 11.6673C15.3463 11.6673 12.6301 12.2515 10.5171 13.3079C8.40419 14.3644 6.66622 16.0525 6.66622 18.334V22.1133L0.920783 25.1764C0.0974492 25.5881 -0.236327 26.5894 0.17534 27.4128C0.467006 27.9961 1.05781 28.334 1.66948 28.334C1.91948 28.334 2.17333 28.2765 2.41167 28.1582L6.66622 26.0814V30.2904L2.76974 31.765C1.90307 32.0766 1.45388 33.0321 1.76388 33.8971C2.00888 34.5771 2.64956 35.0007 3.33289 35.0007C3.51956 35.0007 3.71104 34.9697 3.89604 34.903L48.0887 19.9258C48.6328 19.7938 49.1168 19.4831 49.4633 19.0434C49.8097 18.6037 49.9986 18.0605 49.9996 17.5007C49.9996 16.8376 49.7362 16.2017 49.2673 15.7329C48.7985 15.264 48.1626 15.0007 47.4996 15.0007C47.1275 15.0022 46.7605 15.0867 46.4253 15.248L29.9996 21.4622V18.334C29.9996 16.0525 28.2616 14.3644 26.1486 13.3079C24.0357 12.2515 21.3195 11.6673 18.3329 11.6673ZM18.3329 15.0007C20.8691 15.0007 23.1514 15.5365 24.6578 16.2897C26.1641 17.0429 26.6662 17.854 26.6662 18.334C26.6662 18.814 26.1641 19.6251 24.6578 20.3783C23.1514 21.1314 20.8691 21.6673 18.3329 21.6673C15.7967 21.6673 13.5144 21.1314 12.008 20.3783C10.5017 19.6251 9.99956 18.814 9.99956 18.334C9.99956 17.854 10.5017 17.0429 12.008 16.2897C13.5144 15.5365 15.7967 15.0007 18.3329 15.0007ZM18.3329 17.2923C17.7804 17.2923 17.2505 17.4021 16.8598 17.5974C16.4691 17.7928 16.2496 18.0577 16.2496 18.334C16.2496 18.6103 16.4691 18.8752 16.8598 19.0706C17.2505 19.2659 17.7804 19.3757 18.3329 19.3757C18.8854 19.3757 19.4153 19.2659 19.806 19.0706C20.1967 18.8752 20.4162 18.6103 20.4162 18.334C20.4162 18.0577 20.1967 17.7928 19.806 17.5974C19.4153 17.4021 18.8854 17.2923 18.3329 17.2923ZM29.9996 29.5189L7.31401 37.2533C8.86234 39.8766 13.0812 41.6673 18.3329 41.6673C24.9829 41.6673 29.9996 38.8007 29.9996 35.0007V29.5189Z" fill="#D71920"/>
</g>
<defs>
<clipPath id="clip0_2232_4742">
<rect width="50" height="50" fill="white"/>
</clipPath>
</defs>
</svg>
