<svg width="50" height="50" viewBox="0 0 50 50" fill="none" xmlns="http://www.w3.org/2000/svg">
<path d="M21.6667 6.66602C19.3084 6.66602 17.3401 8.30081 16.8034 10.4941C16.4701 11.8608 15.1247 11.5302 14.1797 11.7702C13.4564 11.9535 12.8426 12.3964 12.3926 12.9681C18.6293 15.0298 23.4718 18.8451 23.7468 19.0651L27.002 21.666H29.6062L30.3516 20.1751C30.4866 19.9051 33.0821 14.9012 39.0788 12.7012C38.6338 12.2328 38.0556 11.8907 37.4089 11.7474C36.8322 11.6191 36.2782 11.6464 35.7715 11.7897C35.2799 11.9297 34.7446 11.7046 34.5313 11.2396C33.7396 9.52458 32.0134 8.33268 30 8.33268C29.27 8.33268 28.5791 8.49039 27.9558 8.77539C27.0374 9.19372 25.9846 8.98146 25.2963 8.24479C24.3896 7.27312 23.1017 6.66602 21.6667 6.66602ZM25 11.666C25.92 11.666 26.6667 12.4127 26.6667 13.3327C26.6667 14.2527 25.92 14.9993 25 14.9993C24.08 14.9993 23.3334 14.2527 23.3334 13.3327C23.3334 12.4127 24.08 11.666 25 11.666ZM5.00003 14.9993C5.00003 19.9993 6.6667 21.666 6.6667 21.666H21.6667C21.6667 21.666 13.3334 14.9993 5.00003 14.9993ZM45 14.9993C36.6667 14.9993 33.3334 21.666 33.3334 21.666H43.3334C43.3334 21.666 45 19.9993 45 14.9993ZM6.6667 24.9993C6.44594 24.9955 6.2266 25.0355 6.02144 25.1171C5.81628 25.1987 5.62938 25.3203 5.47159 25.4748C5.3138 25.6292 5.18827 25.8135 5.10228 26.0168C5.0163 26.2202 4.97158 26.4386 4.97072 26.6594C4.96985 26.8802 5.01287 27.099 5.09726 27.303C5.18165 27.507 5.30574 27.6923 5.46232 27.848C5.6189 28.0036 5.80484 28.1266 6.00936 28.2099C6.21388 28.2931 6.43289 28.3348 6.65368 28.3327C6.65368 34.0191 10.2214 38.8607 15.2344 40.7773C15.0745 41.0311 14.986 41.3233 14.9783 41.6231C14.9706 41.923 15.0439 42.2193 15.1906 42.481C15.3372 42.7426 15.5518 42.9598 15.8116 43.1097C16.0714 43.2596 16.3668 43.3367 16.6667 43.3327H33.3334C33.6337 43.3362 33.9295 43.2585 34.1893 43.1078C34.4492 42.9571 34.6635 42.739 34.8095 42.4765C34.9556 42.2141 35.028 41.917 35.0192 41.6168C35.0103 41.3165 34.9205 41.0242 34.7592 40.7708C39.7624 38.8492 43.3203 34.0119 43.3203 28.3327H43.3334C43.5542 28.3358 43.7735 28.295 43.9784 28.2126C44.1834 28.1303 44.3699 28.008 44.5272 27.8529C44.6845 27.6979 44.8094 27.5131 44.8946 27.3093C44.9799 27.1056 45.0238 26.8869 45.0238 26.666C45.0238 26.4451 44.9799 26.2265 44.8946 26.0227C44.8094 25.8189 44.6845 25.6342 44.5272 25.4791C44.3699 25.324 44.1834 25.2017 43.9784 25.1194C43.7735 25.037 43.5542 24.9962 43.3334 24.9993H6.6667Z" fill="#D71920"/>
</svg>
