<svg width="64" height="64" viewBox="0 0 64 64" fill="none" xmlns="http://www.w3.org/2000/svg">
<g filter="url(#filter0_d_225_4472)">
<path d="M17.0151 26.0949L16.7454 25.6387C16.556 25.3195 16.4882 24.9447 16.5541 24.581C16.6199 24.2173 16.8152 23.8881 17.105 23.6526L17.5096 23.3142C17.8069 23.085 18.0049 22.7541 18.0641 22.3876L18.154 21.8726C18.2174 21.5207 18.3998 21.2 18.6717 20.9624C18.9436 20.7249 19.2891 20.5844 19.6525 20.5634H20.1919C20.5716 20.5739 20.9412 20.4424 21.2259 20.1956L21.6305 19.8573C21.9186 19.6216 22.2818 19.4924 22.6569 19.4924C23.032 19.4924 23.3952 19.6216 23.6834 19.8573M37.1698 35.1274C36.8733 35.6923 36.3711 36.1269 35.763 36.345C35.155 36.563 34.4857 36.5486 33.8881 36.3044L33.004 35.9808C32.3682 35.7644 31.6768 35.7644 31.041 35.9808L30.1419 36.3044C29.5369 36.5346 28.8681 36.5456 28.2556 36.3353C27.6432 36.1249 27.1272 35.7071 26.8003 35.1568M23.6834 20.1514L23.8482 19.2245C23.9649 18.5751 24.3116 17.9871 24.8271 17.5644C25.3427 17.1418 25.9938 16.912 26.6654 16.915H27.6244C28.2942 16.9123 28.9415 16.6776 29.4526 16.2528L30.1868 15.6497C30.703 15.2299 31.3522 15 32.0225 15C32.6928 15 33.342 15.2299 33.8581 15.6497L34.5924 16.2528C35.1022 16.6799 35.7503 16.9149 36.4205 16.915H37.3796C38.0496 16.9177 38.6977 17.1499 39.212 17.5716C39.7263 17.9933 40.0746 18.5777 40.1967 19.2245L40.3616 20.1514C40.4687 20.8037 40.8151 21.3948 41.3356 21.8136L42.0549 22.417C42.414 22.7057 42.6949 23.0768 42.8727 23.4978C43.0505 23.9187 43.1196 24.3761 43.0738 24.8295M20.9861 24.9326C20.9201 24.4654 20.9762 23.9892 21.1492 23.5491C21.3222 23.109 21.6064 22.7196 21.9751 22.417M23.099 37.5693C23.099 37.5693 28.1339 37.5694 28.4336 49M30.966 42.3505C30.3667 37.3045 27.6244 36.0249 27.6244 36.0249M36.5854 32.9354L36.4805 33.4943C36.414 33.88 36.4869 34.2767 36.6867 34.6152C36.8864 34.9537 37.2004 35.2127 37.5744 35.3479L38.0988 35.5246C38.472 35.6674 38.7876 35.9256 38.9979 36.2602L39.2677 36.7458C39.4725 37.0804 39.788 37.336 40.1616 37.4698C40.5352 37.6037 40.9443 37.6078 41.3206 37.4813L41.86 37.2899C42.2328 37.1573 42.6411 37.1573 43.0139 37.2899L43.5533 37.4813C43.9272 37.6097 44.3349 37.6062 44.7067 37.472C45.0784 37.3378 45.3911 37.0813 45.5913 36.7458L45.876 36.2602C46.0763 35.9229 46.3884 35.6633 46.7601 35.5246L47.2996 35.3479C47.6735 35.2127 47.9875 34.9537 48.1872 34.6152C48.387 34.2767 48.4599 33.88 48.3934 33.4943L48.2885 32.9354C48.2142 32.5501 48.289 32.1514 48.4983 31.8174L48.7681 31.3318C48.9702 30.9946 49.0436 30.5977 48.9749 30.2123C48.9063 29.8268 48.7002 29.478 48.3934 29.2282L47.9589 28.8751C47.6553 28.6238 47.4533 28.2743 47.3895 27.8896L47.2846 27.3451C47.2148 26.9605 47.0104 26.612 46.7067 26.3596C46.4031 26.1071 46.0191 25.9665 45.6212 25.9623H45.0518C44.6524 25.9667 44.2646 25.831 43.9579 25.5798L43.5234 25.212C43.2187 24.9619 42.8341 24.8249 42.437 24.8249C42.0398 24.8249 41.6552 24.9619 41.3506 25.212L40.916 25.5798C40.608 25.8288 40.221 25.9641 39.8221 25.9623H39.2527C38.854 25.9637 38.4685 26.103 38.1642 26.356C37.86 26.6089 37.6564 26.9592 37.5893 27.3451L37.4845 27.8896C37.4206 28.2743 37.2186 28.6238 36.915 28.8751L36.4805 29.2282M46.9849 26.0949L47.2546 25.6387C47.444 25.3195 47.5118 24.9447 47.4459 24.581C47.3801 24.2173 47.1848 23.8881 46.895 23.6526L46.4904 23.3142C46.2061 23.0741 46.0111 22.7483 45.9359 22.3876L45.846 21.8726C45.7852 21.5195 45.6035 21.1976 45.3311 20.9596C45.0587 20.7215 44.7117 20.5818 44.3475 20.5634H43.8081C43.4335 20.5702 43.07 20.439 42.7891 20.1956L42.3695 19.8573C42.0942 19.6133 41.7365 19.478 41.3655 19.478C40.9946 19.478 40.6369 19.6133 40.3616 19.8573M40.901 37.5693C40.901 37.5693 35.8661 37.5694 35.5814 49M33.034 42.3505C33.6334 37.3045 36.3756 36.0249 36.3756 36.0249M22.6644 25.212L23.099 25.5798C23.4017 25.8278 23.7837 25.9632 24.1779 25.9623H24.7473C25.147 25.966 25.533 26.1058 25.8392 26.3581C26.1453 26.6104 26.3527 26.9593 26.4256 27.3451L26.5155 27.8896C26.5859 28.2755 26.7928 28.6245 27.0999 28.8751L27.5345 29.2282C27.8387 29.4798 28.0429 29.8283 28.1114 30.213C28.1799 30.5977 28.1083 30.9938 27.9091 31.3318L27.6244 31.8174C27.4267 32.1557 27.3577 32.5519 27.4296 32.9354L27.5195 33.4943C27.5891 33.8803 27.5174 34.2782 27.3173 34.6174C27.1171 34.9566 26.8013 35.2152 26.4256 35.3479L25.9012 35.5246C25.5294 35.6633 25.2174 35.9229 25.017 36.2602L24.7323 36.7458C24.5295 37.0825 24.2141 37.3397 23.8398 37.4738C23.4655 37.6079 23.0555 37.6106 22.6794 37.4813L22.1549 37.2899C21.777 37.1575 21.364 37.1575 20.9861 37.2899L20.4617 37.4813C20.0856 37.6106 19.6755 37.6079 19.3012 37.4738C18.9269 37.3397 18.6115 37.0825 18.4087 36.7458L18.124 36.2602C17.9237 35.9229 17.6116 35.6633 17.2399 35.5246L16.7004 35.3479C16.3276 35.2125 16.0151 34.9527 15.8179 34.6138C15.6206 34.2749 15.5511 33.8785 15.6215 33.4943L15.7115 32.9354C15.7834 32.5519 15.7143 32.1557 15.5167 31.8174L15.2319 31.3318C15.0298 30.9946 14.9564 30.5977 15.0251 30.2123C15.0937 29.8268 15.2998 29.478 15.6066 29.2282L16.0411 28.8751C16.3434 28.6206 16.5494 28.2734 16.6255 27.8896L16.7154 27.3451C16.7884 26.9593 16.9957 26.6104 17.3019 26.3581C17.6081 26.1058 17.994 25.966 18.3937 25.9623H18.9632C19.3574 25.9632 19.7394 25.8278 20.0421 25.5798L20.4766 25.212C20.7849 24.9634 21.1715 24.8274 21.5705 24.8274C21.9695 24.8274 22.3561 24.9634 22.6644 25.212Z" stroke="white" stroke-linecap="round" stroke-linejoin="round" shape-rendering="crispEdges"/>
</g>
<defs>
<filter id="filter0_d_225_4472" x="5" y="5" width="54" height="54" filterUnits="userSpaceOnUse" color-interpolation-filters="sRGB">
<feFlood flood-opacity="0" result="BackgroundImageFix"/>
<feColorMatrix in="SourceAlpha" type="matrix" values="0 0 0 0 0 0 0 0 0 0 0 0 0 0 0 0 0 0 127 0" result="hardAlpha"/>
<feOffset/>
<feGaussianBlur stdDeviation="4.75"/>
<feComposite in2="hardAlpha" operator="out"/>
<feColorMatrix type="matrix" values="0 0 0 0 0 0 0 0 0 0.814378 0 0 0 0 0.773659 0 0 0 1 0"/>
<feBlend mode="normal" in2="BackgroundImageFix" result="effect1_dropShadow_225_4472"/>
<feBlend mode="normal" in="SourceGraphic" in2="effect1_dropShadow_225_4472" result="shape"/>
</filter>
</defs>
</svg>
