<svg width="24" height="24" viewBox="0 0 24 24" fill="none" xmlns="http://www.w3.org/2000/svg">
<path d="M11.9883 0.800875C11.7805 0.804189 11.5821 0.888245 11.4352 1.03525L8.23516 4.23525C8.15838 4.30897 8.09708 4.39726 8.05485 4.49496C8.01262 4.59267 7.99031 4.69781 7.98923 4.80425C7.98815 4.91068 8.00831 5.01626 8.04854 5.1148C8.08878 5.21334 8.14827 5.30286 8.22353 5.37813C8.29879 5.45339 8.38831 5.51288 8.48686 5.55311C8.5854 5.59334 8.69098 5.61351 8.79741 5.61242C8.90384 5.61134 9.00899 5.58903 9.10669 5.54681C9.20439 5.50458 9.29269 5.44328 9.36641 5.3665L11.2008 3.53213V13.6009C11.1993 13.7069 11.2189 13.8121 11.2584 13.9105C11.2979 14.0089 11.3566 14.0984 11.4311 14.1739C11.5055 14.2494 11.5942 14.3094 11.692 14.3503C11.7898 14.3912 11.8948 14.4123 12.0008 14.4123C12.1068 14.4123 12.2118 14.3912 12.3096 14.3503C12.4074 14.3094 12.4961 14.2494 12.5705 14.1739C12.6449 14.0984 12.7036 14.0089 12.7432 13.9105C12.7827 13.8121 12.8023 13.7069 12.8008 13.6009V3.53213L14.6352 5.3665C14.7089 5.44328 14.7972 5.50458 14.8949 5.54681C14.9926 5.58903 15.0977 5.61134 15.2042 5.61242C15.3106 5.61351 15.4162 5.59334 15.5147 5.55311C15.6132 5.51288 15.7028 5.45339 15.778 5.37813C15.8533 5.30286 15.9128 5.21334 15.953 5.1148C15.9932 5.01626 16.0134 4.91068 16.0123 4.80425C16.0112 4.69781 15.9889 4.59267 15.9467 4.49496C15.9045 4.39726 15.8432 4.30897 15.7664 4.23525L12.5664 1.03525C12.4906 0.959458 12.4004 0.899657 12.3011 0.859396C12.2018 0.819135 12.0954 0.799234 11.9883 0.800875ZM7.20078 7.20088C5.88481 7.20088 4.80078 8.2849 4.80078 9.60088V19.2009C4.80078 20.5169 5.88481 21.6009 7.20078 21.6009H16.8008C18.1168 21.6009 19.2008 20.5169 19.2008 19.2009V9.60088C19.2008 8.2849 18.1168 7.20088 16.8008 7.20088H15.2008V8.80088H16.8008C17.2528 8.80088 17.6008 9.14885 17.6008 9.60088V19.2009C17.6008 19.6529 17.2528 20.0009 16.8008 20.0009H7.20078C6.74876 20.0009 6.40078 19.6529 6.40078 19.2009V9.60088C6.40078 9.14885 6.74876 8.80088 7.20078 8.80088H8.80078V7.20088H7.20078Z" fill="white"/>
</svg>
