<svg width="24" height="24" viewBox="0 0 24 24" fill="none" xmlns="http://www.w3.org/2000/svg">
<path fill-rule="evenodd" clip-rule="evenodd" d="M12.7776 9.65555C13.1157 10.0556 13.6072 10.3074 14.1542 10.3074C15.1738 10.3074 16.0004 9.43276 16.0004 8.35388C16.0004 7.275 15.1738 6.40039 14.1542 6.40039C13.1346 6.40039 12.3081 7.275 12.3081 8.35388C12.3081 8.57317 12.3422 8.78401 12.4052 8.98079L9.62317 10.6987C9.2851 10.2987 8.79361 10.0469 8.24654 10.0469C7.22694 10.0469 6.40039 10.9215 6.40039 12.0004C6.40039 13.0793 7.22694 13.9539 8.24654 13.9539C8.79369 13.9539 9.28524 13.702 9.62331 13.3019L12.4059 15.0177C12.3425 15.2151 12.3081 15.4268 12.3081 15.6469C12.3081 16.7258 13.1346 17.6004 14.1542 17.6004C15.1738 17.6004 16.0004 16.7258 16.0004 15.6469C16.0004 14.568 15.1738 13.6934 14.1542 13.6934C13.608 13.6934 13.1172 13.9444 12.7792 14.3434L9.99565 12.6271C10.0586 12.4304 10.0927 12.2196 10.0927 12.0004C10.0927 11.7811 10.0586 11.5703 9.99558 11.3735L12.7776 9.65555Z" fill="#0A2533"/>
</svg>
