<svg width="24" height="24" viewBox="0 0 24 24" fill="none" xmlns="http://www.w3.org/2000/svg">
<g opacity="0.6">
<path d="M21.4671 13.2526C20.3414 13.8192 18.601 14.0841 17.6635 14.9401C16.5916 15.9143 16.3765 17.8993 15.781 19.2037C15.6081 19.5787 15.4198 19.5053 15.2431 19.1751C14.6322 18.0257 14.5208 16.1955 13.5987 15.148C12.7266 14.1575 10.7979 13.8681 9.65301 13.2689C9.5147 13.1996 9.4686 13.0039 9.49934 12.849C9.53776 12.6697 12.2694 11.7648 12.7035 11.5365C14.3441 10.6765 14.5131 8.72813 15.1509 7.08955C15.293 6.73085 15.3468 6.36808 15.7656 6.77976C16.4648 8.41427 16.607 10.5664 18.2437 11.4876C19.1734 12.0094 20.4144 12.2906 21.3941 12.7431C21.6131 12.8654 21.6054 13.0529 21.4671 13.2526Z" fill="#A9ADA5"/>
<path d="M7.38244 2.52012C7.48617 2.59349 8.06631 4.62338 8.24304 4.98208C8.89233 6.29457 10.2024 6.31496 11.3512 6.87338C11.6585 7.02419 11.6163 7.15463 11.3281 7.3299C10.579 7.78234 9.25732 7.88832 8.63108 8.57718C7.928 9.34756 7.87421 10.8761 7.25181 11.7076C7.01361 11.7076 6.40658 9.47799 6.21064 9.09892C5.56903 7.85164 4.15518 7.92093 3.17548 7.3299C2.89502 7.1587 2.83355 7.02012 3.14859 6.87338C4.39723 6.2905 5.59208 6.32311 6.27211 4.90056C6.49879 4.42365 6.88682 2.85844 7.07124 2.61795C7.15192 2.51605 7.3056 2.46714 7.38628 2.5242L7.38244 2.52012Z" fill="#A9ADA5"/>
<path d="M8.95451 17.9727C8.98524 18.1398 8.91225 18.1724 8.80467 18.2499C8.45505 18.5067 7.62903 18.6452 7.19873 18.8939C6.23439 19.4523 6.33044 20.6262 5.77336 21.4903C5.58894 21.5352 5.64273 21.417 5.59279 21.2947C5.35458 20.7159 5.13175 19.599 4.71682 19.1874C4.19431 18.6656 3.09551 18.5678 2.5 18.1153C2.5 17.8912 4.04447 17.4591 4.31341 17.3042C5.27006 16.7539 5.17785 15.4781 5.76952 14.6466C5.87325 14.6466 6.36886 16.2852 6.48796 16.5257C6.97589 17.4999 8.05933 17.5936 8.95067 17.9727H8.95451Z" fill="#A9ADA5"/>
</g>
</svg>
