<svg width="12" height="12" viewBox="0 0 12 12" fill="none" xmlns="http://www.w3.org/2000/svg">
<path d="M6.00039 0.800781C5.78822 0.800781 5.58473 0.885067 5.43471 1.0351C5.28468 1.18512 5.20039 1.38861 5.20039 1.60078C5.20046 1.7457 5.23988 1.88787 5.31446 2.01213C5.38904 2.13638 5.49597 2.23804 5.62383 2.30625L4.0418 5.27266L1.88945 4.00625C1.96192 3.8834 2.00022 3.74341 2.00039 3.60078C2.00039 3.38861 1.91611 3.18512 1.76608 3.0351C1.61605 2.88507 1.41256 2.80078 1.20039 2.80078C0.988217 2.80078 0.784734 2.88507 0.634705 3.0351C0.484676 3.18512 0.400391 3.38861 0.400391 3.60078C0.400391 3.81295 0.484676 4.01644 0.634705 4.16647C0.784734 4.3165 0.988217 4.40078 1.20039 4.40078C1.22701 4.40055 1.25361 4.39898 1.28008 4.39609L1.60039 7.60078H2.80039H8.00039H9.20039H10.4004L10.7207 4.39688C10.7472 4.3995 10.7738 4.40081 10.8004 4.40078C11.0126 4.40078 11.216 4.3165 11.3661 4.16647C11.5161 4.01644 11.6004 3.81295 11.6004 3.60078C11.6004 3.38861 11.5161 3.18512 11.3661 3.0351C11.216 2.88507 11.0126 2.80078 10.8004 2.80078C10.5882 2.80078 10.3847 2.88507 10.2347 3.0351C10.0847 3.18512 10.0004 3.38861 10.0004 3.60078C10.0006 3.74341 10.0389 3.8834 10.1113 4.00625L7.95898 5.27266L6.37695 2.30625C6.50481 2.23804 6.61174 2.13638 6.68632 2.01213C6.7609 1.88787 6.80032 1.7457 6.80039 1.60078C6.80039 1.38861 6.71611 1.18512 6.56608 1.0351C6.41605 0.885067 6.21256 0.800781 6.00039 0.800781ZM1.60039 8.40078V9.20078C1.60039 9.64278 1.95839 10.0008 2.40039 10.0008H9.60039C10.0424 10.0008 10.4004 9.64278 10.4004 9.20078V8.40078H1.60039Z" fill="white"/>
</svg>
