<svg width="50" height="50" viewBox="0 0 50 50" fill="none" xmlns="http://www.w3.org/2000/svg">
<path fill-rule="evenodd" clip-rule="evenodd" d="M38.0391 18.0641C38.2368 17.4638 38.0391 17.0273 37.1636 17.0273H34.2547C33.5204 17.0273 33.1815 17.4092 32.9838 17.8186C32.9838 17.8186 31.487 21.3108 29.3971 23.5753C28.7192 24.2301 28.4086 24.4484 28.0415 24.4484C27.8437 24.4484 27.5896 24.2301 27.5896 23.6299V18.0368C27.5896 17.3274 27.3637 17 26.7423 17H22.1671C21.7153 17 21.4329 17.3274 21.4329 17.6548C21.4329 18.3369 22.4778 18.5006 22.5908 20.4104V24.5575C22.5908 25.4579 22.4213 25.6216 22.0542 25.6216C21.0657 25.6216 18.6652 22.102 17.2248 18.0914C16.9423 17.3001 16.66 17 15.9257 17H12.9885C12.1412 17 12 17.382 12 17.7913C12 18.5279 12.9885 22.2384 16.6034 27.1495C19.0041 30.5053 22.4213 32.306 25.4997 32.306C27.3637 32.306 27.5896 31.8968 27.5896 31.2148V28.6774C27.5896 27.8588 27.759 27.7225 28.3521 27.7225C28.7758 27.7225 29.5383 27.9407 31.261 29.5504C33.238 31.4602 33.5769 32.3333 34.6783 32.3333H37.5873C38.4345 32.3333 38.8299 31.9241 38.604 31.1328C38.3498 30.3417 37.3896 29.1958 36.1469 27.8315C35.4691 27.0677 34.4524 26.2219 34.1417 25.8126C33.7181 25.267 33.8311 25.0487 34.1417 24.5575C34.1135 24.5575 37.672 19.7011 38.0391 18.0641Z" fill="#D51216"/>
</svg>
