<svg width="118" height="118" viewBox="0 0 118 118" fill="none" xmlns="http://www.w3.org/2000/svg">
<g clip-path="url(#clip0_2227_8922)">
<path d="M52.5098 50.5566H32.7959V62.1928H52.5098V50.5566Z" fill="black"/>
<path d="M75.2704 45.8123C85.3068 45.3648 98.3002 43.4851 99.6439 29.9692C95.8805 36.0558 88.6219 41.7844 79.1236 40.9788C84.5004 40.6208 91.579 33.0125 87.2782 28C85.6649 37.2195 73.0302 39.8152 62.9941 39.6362C60.3058 39.5467 51.8826 38.6516 49.9112 38.7411C41.3984 39.0991 35.8427 42.59 32.6168 48.0501C31.0038 50.7353 31.0038 53.8681 29.7493 57.0905C28.4947 60.1338 25.9857 63.2666 25 66.668C25.8065 66.7575 31.8999 66.3994 32.1687 66.7575C32.4375 67.1155 31.6311 70.6063 31.5415 71.4119C31.0934 74.9028 29.0324 79.9153 31.8999 80.8104C33.1544 81.1684 36.918 80.4523 37.9933 81.1684C39.1582 81.974 39.5166 83.3166 39.2478 84.6593C38.8893 86.6285 38.5309 88.508 38.4413 89.7612C39.875 90.2985 60.2162 89.7612 60.2162 89.7612C59.589 85.1068 59.2305 80.3628 59.589 75.4398C59.8578 72.307 61.1123 70.2483 62.4565 68.1001C65.5927 69.0847 68.9979 70.6958 71.7757 69.7112C68.3706 68.7267 65.4135 65.3253 64.8759 63.9827C64.9655 63.8932 79.9301 68.3686 83.6935 62.9086C82.7078 63.1771 71.9549 63.4456 67.833 57.538C76.525 61.4764 92.117 61.5659 96.2391 53.4206C90.7727 56.0164 77.8691 56.822 70.79 50.2878C81.6327 53.2416 94.9844 55.3003 101.615 42.948C99.9129 44.2907 99.0169 44.7382 97.4932 45.5438C93.013 48.1396 82.4391 47.7815 75.2704 45.8123ZM40.4127 59.4177C38.1725 59.5072 34.3193 57.2695 34.3193 57.2695C34.3193 57.2695 35.9323 56.1954 37.6348 55.4793C37.6348 55.6583 37.5452 55.9269 37.5452 56.1059C37.6348 57.717 38.8893 57.0905 40.4127 57.0905C41.936 57.001 43.1009 57.538 43.1009 55.9269C43.1009 55.7478 43.1009 55.4793 43.0113 55.3003C44.7139 55.9269 46.3268 56.822 46.3268 56.822C46.3268 56.822 42.5633 59.3282 40.4127 59.4177Z" fill="#D71920"/>
<path d="M40.4127 58.6113C42.1448 58.6113 43.549 57.2087 43.549 55.4785C43.549 53.7483 42.1448 52.3457 40.4127 52.3457C38.6805 52.3457 37.2764 53.7483 37.2764 55.4785C37.2764 57.2087 38.6805 58.6113 40.4127 58.6113Z" fill="black"/>
<path d="M34.5879 53.6898L35.932 51.452L38.6203 50.1094L45.3409 52.3471L43.9968 54.5849L42.9921 54.4845L39.5164 54.1373L38.2137 54.571L36.8281 55.0324L34.5879 53.6898Z" fill="#D71920"/>
<path d="M33.6924 57.2687C39.965 53.2409 40.8611 53.2409 46.6856 56.8212" stroke="#D71920"/>
</g>
<defs>
<clipPath id="clip0_2227_8922">
<rect width="76" height="62" fill="white" transform="translate(25 28)"/>
</clipPath>
</defs>
</svg>
